<mxfile host="Electron" modified="2023-06-09T09:50:10.120Z" agent="Mozilla/5.0 (Windows NT 10.0; Win64; x64) AppleWebKit/537.36 (KHTML, like Gecko) draw.io/21.3.7 Chrome/112.0.5615.204 Electron/24.5.0 Safari/537.36" etag="1OBFelkynG6L0zc5cC55" version="21.3.7" type="device">
  <diagram name="ページ1" id="MmHCwnLC4_F7Na03-vsr">
    <mxGraphModel dx="2204" dy="957" grid="1" gridSize="10" guides="1" tooltips="1" connect="1" arrows="1" fold="1" page="1" pageScale="1" pageWidth="1169" pageHeight="827" math="0" shadow="0">
      <root>
        <mxCell id="0" />
        <mxCell id="1" parent="0" />
        <mxCell id="vPiXW8HXQtMh3uFXOmdS-22" value="" style="verticalLabelPosition=bottom;verticalAlign=top;html=1;shape=mxgraph.infographic.parallelogram;dx=0;fillColor=default;strokeColor=none;gradientColor=#8C8C8C;gradientDirection=north;" parent="1" vertex="1">
          <mxGeometry x="940" width="229" height="220" as="geometry" />
        </mxCell>
        <mxCell id="wGdNvJiHcEGvdqtFSIJg-37" value="&lt;span style=&quot;font-size: 30px;&quot;&gt;機体名&lt;/span&gt;" style="html=1;shape=mxgraph.infographic.ribbonRolled;dx=185.76;dy=19.06;fillColor=#10739E;strokeColor=none;align=center;verticalAlign=middle;fontColor=#ffffff;fontSize=14;fontStyle=1;" parent="1" vertex="1">
          <mxGeometry x="80" y="60" width="720" height="80" as="geometry" />
        </mxCell>
        <mxCell id="wGdNvJiHcEGvdqtFSIJg-85" value="重量" style="shape=step;perimeter=stepPerimeter;whiteSpace=wrap;html=1;fixedSize=1;size=10;fillColor=#10739E;strokeColor=none;fontSize=17;fontColor=#FFFFFF;fontStyle=1;align=center;rounded=0;" parent="1" vertex="1">
          <mxGeometry x="5" y="550" width="240" height="30" as="geometry" />
        </mxCell>
        <mxCell id="wGdNvJiHcEGvdqtFSIJg-90" value="&lt;font style=&quot;font-size: 20px;&quot;&gt;&lt;b&gt;重量：t&lt;/b&gt;&lt;/font&gt;" style="shape=rect;fillColor=#B1DDF0;strokeColor=none;fontSize=12;html=1;whiteSpace=wrap;align=left;verticalAlign=top;spacing=5;rounded=0;" parent="1" vertex="1">
          <mxGeometry x="15" y="590" width="220" height="40" as="geometry" />
        </mxCell>
        <mxCell id="wGdNvJiHcEGvdqtFSIJg-105" value="&lt;span style=&quot;font-size: 20px;&quot;&gt;&lt;b&gt;乾燥重量：t&lt;/b&gt;&lt;/span&gt;" style="shape=rect;fillColor=#B1DDF0;strokeColor=none;fontSize=12;html=1;whiteSpace=wrap;align=left;verticalAlign=top;spacing=5;rounded=0;" parent="1" vertex="1">
          <mxGeometry x="15" y="640" width="220" height="40" as="geometry" />
        </mxCell>
        <mxCell id="wGdNvJiHcEGvdqtFSIJg-106" value="&lt;font style=&quot;font-size: 20px;&quot;&gt;&lt;b&gt;燃料重量：t&lt;/b&gt;&lt;/font&gt;" style="shape=rect;fillColor=#B1DDF0;strokeColor=none;fontSize=12;html=1;whiteSpace=wrap;align=left;verticalAlign=top;spacing=5;rounded=0;" parent="1" vertex="1">
          <mxGeometry x="15" y="690" width="220" height="40" as="geometry" />
        </mxCell>
        <mxCell id="wGdNvJiHcEGvdqtFSIJg-107" value="燃料" style="shape=step;perimeter=stepPerimeter;whiteSpace=wrap;html=1;fixedSize=1;size=10;fillColor=#F2931E;strokeColor=none;fontSize=17;fontColor=#FFFFFF;fontStyle=1;align=center;rounded=0;" parent="1" vertex="1">
          <mxGeometry x="245" y="550" width="240" height="30" as="geometry" />
        </mxCell>
        <mxCell id="wGdNvJiHcEGvdqtFSIJg-108" value="&lt;font style=&quot;font-size: 20px;&quot;&gt;&lt;b&gt;メタノックス：t&lt;/b&gt;&lt;/font&gt;" style="shape=rect;fillColor=#F8C382;strokeColor=none;fontSize=12;html=1;whiteSpace=wrap;align=left;verticalAlign=top;spacing=5;rounded=0;" parent="1" vertex="1">
          <mxGeometry x="255" y="590" width="220" height="40" as="geometry" />
        </mxCell>
        <mxCell id="wGdNvJiHcEGvdqtFSIJg-109" value="&lt;font style=&quot;font-size: 20px;&quot;&gt;&lt;b&gt;固体燃料：t&lt;/b&gt;&lt;/font&gt;" style="shape=rect;fillColor=#F8C382;strokeColor=none;fontSize=12;html=1;whiteSpace=wrap;align=left;verticalAlign=top;spacing=5;rounded=0;" parent="1" vertex="1">
          <mxGeometry x="255" y="640" width="220" height="40" as="geometry" />
        </mxCell>
        <mxCell id="wGdNvJiHcEGvdqtFSIJg-110" value="&lt;font style=&quot;font-size: 20px;&quot;&gt;&lt;b&gt;一液式燃料：t&lt;/b&gt;&lt;/font&gt;" style="shape=rect;fillColor=#F8C382;strokeColor=none;fontSize=12;html=1;whiteSpace=wrap;align=left;verticalAlign=top;spacing=5;rounded=0;" parent="1" vertex="1">
          <mxGeometry x="255" y="690" width="220" height="40" as="geometry" />
        </mxCell>
        <mxCell id="wGdNvJiHcEGvdqtFSIJg-112" value="打ち上げ能力" style="shape=step;perimeter=stepPerimeter;whiteSpace=wrap;html=1;fixedSize=1;size=10;fillColor=#AE4132;strokeColor=none;fontSize=17;fontColor=#FFFFFF;fontStyle=1;align=center;rounded=0;" parent="1" vertex="1">
          <mxGeometry x="485" y="550" width="400" height="30" as="geometry" />
        </mxCell>
        <mxCell id="wGdNvJiHcEGvdqtFSIJg-113" value="&lt;font style=&quot;font-size: 20px;&quot;&gt;&lt;b&gt;低軌道：t&lt;/b&gt;&lt;/font&gt;" style="shape=rect;fillColor=#F08E81;strokeColor=none;fontSize=12;html=1;whiteSpace=wrap;align=left;verticalAlign=top;spacing=5;rounded=0;" parent="1" vertex="1">
          <mxGeometry x="492.5" y="590" width="385" height="40" as="geometry" />
        </mxCell>
        <mxCell id="wGdNvJiHcEGvdqtFSIJg-114" value="&lt;font style=&quot;font-size: 20px;&quot;&gt;&lt;b&gt;静止軌道：t&lt;/b&gt;&lt;/font&gt;" style="shape=rect;fillColor=#F08E81;strokeColor=none;fontSize=12;html=1;whiteSpace=wrap;align=left;verticalAlign=top;spacing=5;rounded=0;" parent="1" vertex="1">
          <mxGeometry x="492.5" y="640" width="385" height="40" as="geometry" />
        </mxCell>
        <mxCell id="wGdNvJiHcEGvdqtFSIJg-120" value="ペイロード" style="shape=step;perimeter=stepPerimeter;whiteSpace=wrap;html=1;fixedSize=1;size=10;fillColor=#15AA96;strokeColor=none;fontSize=17;fontColor=#FFFFFF;fontStyle=1;align=center;rounded=0;" parent="1" vertex="1">
          <mxGeometry x="885" y="550" width="280" height="30" as="geometry" />
        </mxCell>
        <mxCell id="wGdNvJiHcEGvdqtFSIJg-121" value="&lt;font style=&quot;font-size: 20px;&quot;&gt;&lt;b&gt;人員：名&lt;/b&gt;&lt;/font&gt;" style="shape=rect;fillColor=#61C6CE;strokeColor=none;fontSize=12;html=1;whiteSpace=wrap;align=left;verticalAlign=top;spacing=5;rounded=0;" parent="1" vertex="1">
          <mxGeometry x="892.5" y="590" width="265" height="40" as="geometry" />
        </mxCell>
        <mxCell id="wGdNvJiHcEGvdqtFSIJg-122" value="&lt;font style=&quot;font-size: 20px;&quot;&gt;&lt;b&gt;カーゴベイ：&lt;/b&gt;&lt;/font&gt;" style="shape=rect;fillColor=#61C6CE;strokeColor=none;fontSize=12;html=1;whiteSpace=wrap;align=left;verticalAlign=top;spacing=5;rounded=0;" parent="1" vertex="1">
          <mxGeometry x="892.5" y="640" width="262.5" height="40" as="geometry" />
        </mxCell>
        <mxCell id="wGdNvJiHcEGvdqtFSIJg-123" value="&lt;font style=&quot;font-size: 20px;&quot;&gt;&lt;b&gt;フェアリング：&lt;/b&gt;&lt;/font&gt;" style="shape=rect;fillColor=#61C6CE;strokeColor=none;fontSize=12;html=1;whiteSpace=wrap;align=left;verticalAlign=top;spacing=5;rounded=0;" parent="1" vertex="1">
          <mxGeometry x="892.5" y="690" width="265" height="40" as="geometry" />
        </mxCell>
        <mxCell id="wGdNvJiHcEGvdqtFSIJg-124" value="" style="shape=rect;fillColor=#F08E81;strokeColor=none;fontSize=12;html=1;whiteSpace=wrap;align=left;verticalAlign=top;spacing=5;rounded=0;" parent="1" vertex="1">
          <mxGeometry x="492.5" y="690" width="385" height="40" as="geometry" />
        </mxCell>
        <mxCell id="wGdNvJiHcEGvdqtFSIJg-135" value="" style="verticalLabelPosition=bottom;verticalAlign=top;html=1;shape=mxgraph.infographic.parallelogram;dx=0;fillColor=#f5f5f5;strokeColor=#666666;fontColor=#333333;" parent="1" vertex="1">
          <mxGeometry x="40" y="200" width="400" height="300" as="geometry" />
        </mxCell>
        <mxCell id="wGdNvJiHcEGvdqtFSIJg-137" value="" style="verticalLabelPosition=bottom;verticalAlign=top;html=1;shape=mxgraph.infographic.parallelogram;dx=0;fillColor=#f5f5f5;strokeColor=#666666;fontColor=#333333;" parent="1" vertex="1">
          <mxGeometry x="477.5" y="200" width="400" height="300" as="geometry" />
        </mxCell>
        <mxCell id="eNdxS734EQl6WOKbVy7b-2" value="" style="shape=image;verticalLabelPosition=bottom;labelBackgroundColor=default;verticalAlign=top;aspect=fixed;imageAspect=0;image=data:image/png,iVBORw0KGgoAAAANSUhEUgAABDgAAAQ4CAYAAADsEGyPAAAAAXNSR0IB2cksfwAAAAlwSFlzAAALEwAACxMBAJqcGAAButtJREFUeJzs3XecVPX1//Gfmvi1Y4sFGxYs2FusMbbYW9SY6JpoosZoikZjYgELiIKKvS297q4iKoggiNJBEBWpSlfpSF/6RX/v6+wm6zCzM7PzuXM+M/N6Ph7vPxKHufee2z7n7p17/9//AwAAAAAAAAAAAAAAAAAAAAAAAAAAAAAAAAAAAAAAAAAAAAAAAAAAAAAAAAAAAAAAAAAAAAAAAAAAAAAAAAAAAAAAAAAAAAAAAAAAAAAAAAAAAAAAAAAAAAAAAAAAAAAAAAAAAAAAAAAAAAAAAAAAAAAAAAAAAAAAAAAAAAAAAAAAAAAAAAAAAAAAAAAAAAAAAAAAAAAAAAAAAAAAAAAAAAAAAAAAAAAAAAAAAAAAAAAAAAAAAAAAAAAAAAAAAAAAAAAAAAAAAAAAAAAAAAAAAAAAAAAAAAAAAAAAAAAAAAAAAAAAAAAAAAAAAAAAAAAAAAAAAAAAAAAAAAAAAAAAAAAAAAAAAAAAAAAAAAAAAAAAAAAAAAAAAAAAAAAAAAAAAAAAAAAAAAAAAAAAAAAAAAAAAAAAAAAAAAAAAAAAAAAAAAAAAAAAAAAAAAAAAAAAAAAAAAAAAAAAAAAAAAAAAAAAAAAAAAAAAAAAAAAAAAAAAAAAAAAAAAAAAAAAAAAAAAAAAAAAAAAAAAAAAAAAAAAAAAAAAAAAAAAAAAAAAAAAAAAAAAAAAAAAAAAAAAAAAAAAAAAAAAAAAAAAAAAAAAAAAAAAAAAAAAAAAAAAAAAAAAAAAAAAAAAAAAAAAAAAAAAAAAAAAAAAAAAAAAAAAAAAAAAAAAAAAAAAAAAAAAAAAAAAAAAAAAAAAAAAAAAAAAAAAAAAAAAAAAAAAAAAAAAAAAAAAAAAAAAAAAAAAAAAAAAAAAAAAAAAAAAAAAAAAAAAAAAAAAAAAAAAAAAAAAAAAAAAAAAAAAAAAAAAAAAAAAAAAAAAAAAAAAAAAAAAAAAAAAAAAAAAAAAAAAAAAAAAAAAAAAAAAAAAAAAAAAAAAAAAAAAAAAAAAAAAAAAAAAAAAAAAAAAAAAAAAAAAAAAAAAAAAAAAAAAAAAAAAAAAAAAAAAAAAAAAAAAAAABEJNi4cQflVOXXys3Kf5THlbbKm8qguIxRZikrle9TZIkyRRke9x3vK68pryjNlLuUG5RLlFOUg5WdrWsDAAAAAAA8EWzceJBykfJn5UHlZeUNZYiyKI2LFNZZqExQBiitlBuVE6zrCgAAAAAAIqCmv5HyV+VZpbzqTonlHlygiDKTg9hdJo8ov1OOt14PAAAAAAAgTWrkD1euU5orbynzPbjY4FNmKr2Ue5UzrNcXAAAAAABFTw36Hsq5yp1B7LkVXMyoW6ZUXfRooVyp7GS9bgEAAAAAKFhqvLerasDbBLGHeVpfGCjkjFM6K/cov1K2tl7/AAAAAADkLTXWuyt/U/p70PQXc9YofZTblD2stwsAAAAAALynBvp4pYky0oPGniTOKOUB5Vjr7QUAAAAAAC+oSd5BuUrppCzwoHknmWV2EPvZ0BXKttbbEwAAAAAAORPEXt0aPt9hsAcNOnGbAco/lf2stzMAAAAAAJxTw3uq8oQy3YMmnOQmE5RmynHW2x8AAAAAAHWmxvYQpaXyjQfNNrHNVOWhgDs7AAAAAAD5Ioi9WrSnB0018TM9lHOtt1MAAAAAADahhnVX5V/KZA8aaJIfmajcrexqvf0CAAAAAIqcmtMjlW7KBg8aZpKfWa90VBpZb88AAAAAgCKiRvQnyjXKEA+aY1JYCd/CcrmyufV2DgAAAAAoUGo6t1BuVGZ40AiTws4XQewi2mbW2z0AAAAAoICo0SxRvvSg8SXFlXHK5dbbPwAAAAAgz6m5vFaZ5EGjS4o7Y5QrrPcHAAAAAEAeUSO5vfJvZa4HjS0hNRP+POrvytbW+wkAAAAAwFNqGrdVminLPWhkCaktS5VHlG2s9xsAAAAAgEfUKP4+4I4Nkn8Jt9nfW+8/AAAAAABjag4vVj73oFElJJt8qvzKen8CAAAAAOSYmsGTlZEeNKaEuMxQ5QTr/QsAAAAAEDE1f8cqfT1oRAmJMj2VRtb7GwAAAADAMTV7+ylveNB4EpLLdFP2tN7/AAAAAABZUnO3RRB75etqD5pNQiwSvhXoNmUz6/0RAAAAAFAHauguUCZ60GAS4kPGKKdZ75cAAAAAgDSpidtH6eNBQ0mIjylTdrPeTwEAAAAAtVDjdo8HDWSh5FvlC2VIEHtoZQellfKAcrtynXKhcqajXFj1nbdXTaNV1TR7BbG3g3xRNU/WdSmELFVutt5fAQAAAABx1KztqrznQeOYbxkdxB6++nIQu6hwlXKY9fpMRfN4uHKN0kR5RXkziP0Ew7qe+Za3lV2s1ycAAAAA4P/90OyGf/Vf5EGzmA8Zq7ykXK3Us153rmmZdgxiFz7CZfzcg3rnQ8J950rrdQcAAAAARUtN2XZKuQcNoq8J3xzTW/mn8gtlG+t1lmvhMitnKHcpfZU1HqwXX9OhGLcRAAAAADClRuxkZaYHTaFvCe9aCJ9d8SvrdeSrIPZ2necC3rCTKFOVE6zXEQAAAAAUBTVgzT1oBH1J+LDI7soflD2s102+Uc32U25V3lIqPVifvuRB63UDAAAAAAVLTddhyqceNH/WCZ+j0Uw5zXqdFBrV9CzliSB2J4P1erbOR8qB1usEAAAAAApKEHuOhHXDZ5U5SkflZqWB9booFkHsTS23KZ2r1oH1dmCR8Dkut1qvCwAAAADIe2qu9lI+9KDRy3WWKc8rp1uvA8QEsQe1vlC1bqy3j1wnfFjtbtbrAAAAAADykhqq25WVHjR3ucw7yrXWtUfttI6uV/p4sL3kMuHzXq63rj0AAAAA5A01UQcogzxo6HKVkUHs5yf1rGuPzGid7RzELsSN9WA7ylXCCzt7WtceAAAAALxW1SxaN3C5yBqlVDnKuuZwQ+vyRKWDB9tWLrJc+a11zQEAAADAO2qWtg1irzu1btyiTvj8hvA1tztb1xzR0LrdU3k6KI7Xzr6sbGldcwAAAADwghqko4LCfy3nNOUOZXvreiM3tK53Ve5VvvFg+4synyj7W9cbAAAAAEypMbrbgwYtyryhnGFdZ9jSNnC+8p4H22NUCe9Wucm6zgAAAACQc2qGGigfedCYRZHvqi5sHGldZ/hF28TJSn8PttGo0ivgdbIAAAAAioUaoFuD2EM2rZuxKDJAOca6xvCbtpEzlDEebK9RZLFytXWNAQAAACAy4V92lXc9aMCiyGTlEusaI79om7m8atux3n6jSJmyo3WNAQAAAMApNTqXKt960HS5zhzlT8rm1jVGfgq3HeVmZa4H27PrzFfOta4xAAAAAGRNzU09pZMHjZbrfBHEfmrzf9Y1RmHQtrS18pegMN8o1D7gbg4AAAAA+UoNzUXKPA+aK5eZrlxlXVsUNm1jv1NmebC9u0x4h8p51rUFAAAAgLSpidlKedmDhsplFiq3WtcWxUXb3B3KEg+2f5d5zrquAAAAAJCSmpfDg9jPN6ybKFdZqzyhbG9dWxQnbXs7K88rGzzYH1xlgnKIdW0BAAAAICE1LHd60Di5TPjskAbWdQVC2hYPVV7zYL9wlUrlJuu6AgAAAMB/qUnZR/nAg4bJVcIm8iDrugKJaNs8UnnPg/3EVXore1jXFQAAAECRU2PyW2W5B02Si4xVTrOuKZAObasXK9M82G9cZLFyqXVNAQAAABQhNSPbKJ09aIxcZL3ykPIT67oCmQhiD/R9VvnOg/3IRV4IePUyAAAAgFxRA3JSUDh/OX5LaWhdUyAb2oaPUt7xYH9ykfHKEdY1BQAAAFDg1Hg096ABcpEFyhXW9QRcCrdpZZEH+5eL3GNdTwAAAAAFSM3G0cpnHjQ9LvKSsqN1TYEoaNveSSn1YD9zkSEBbzICAAAA4IKai58qTZUNHjQ72Wa2cqp1TYFc0LZ+ljLXg/0u26xS7lA2t64pAAAAgDylhuJEZYIHDY6LhK9+rWddUyCXtM3vrPTyYP9zkZHKIdY1BQAAAJBH1ERsG8TeZrDRg6Ym24SvsL3euqaAJe0DtwSxOyGs98dss055UPmpdU0BAAAAeC6I3db+jQeNjIuMCPj9PvAD7QuHBIXzHJ2JytHWNQUAAADgITULWyrPKN950Lxkm8og9pv9zazrCvhE+8RPlPuVtR7sp9kmvJvjHvZzAAAAAP8VxN6QMtmDhsVFPlD2s64p4LMgdjfHRx7sry4ySNnXuqYAAAAADKkp2EK5r+ovodZNSrZZE3DXBpC2qv0/fJ5FIbwhaZnye+uaAgAAADCgZuCAIPZWAuvGxEXC5wocal1TIB9p3zlBmerBfuwibyq7WNcUAAAAQI6oAbg9iD2nwroZcZHnlC2tawrksyD25qRuHuzPLrJAudS6pgAAAAAipEF/fWWgBw2Ii6xQLrOuKVBIgtjrZNd4sH+7SDtlO+uaAgAAAHBMA/07g8K5a2OUsr91TYFCpH3rGOVLD/ZzF5mrXGtdUwAAAAAOaHB/qjLRg0bDRdYrTZQtrOtaaOrfP2A75STlUuUPyp3KI8rzSmellzIoQT5RpijzldXK9w6yXPlK+bxqGm8rHZSnlcbK7crvlHOUhta1K0RB7LXRLZXAg/3eRcK3Kx1oXVcAAAAAdaDB/NbKix40Fq4Svsb2WOu65rv69w84RLlE+Y/SXhmqLHR0YcIy4UWW3sqzyl+Vc5Wdreud77TPnaRM8WD/d5W7rWsKAAAAIANVTclMD5oJF/lOeVbZyrqu+UTN/U5VTf6/ldeVSR5chLDI18pbygPKhco+1usm34T7nvJ81b5ofTxwkcHKftZ1BQAAAJBCELut3LqBcJX5ytnWNc0HatyPVe6quothngcXFnzOEuU95eGwbtbrLl9oX/yVstCD44KLhA8pvsm6pgAAAAAS0GD9MGWsB42Dq3RXdrSuq4/UlDeqH/sZRvgTk4+UVR5cNMjnfFk/9nyPi6zXre+0T+6ivO3B8cFVwmXZxbquAAAAAKpogH6PB42Cq4RveuEvqzWo8f6Zcr3SqX7sYZ7WFwQKOZX1Yw81vbK6/toe91IaK28pg5S2yu+UnSy3C0ta9ls9OFa4SnhXylXWNQUAAACKmgblP1fGedAguMrAgNe//kAN9qn1Y28x+diDpr8YM1vbYn2lLMU221f5o7KH9TaTa1rmg5URHhw3XCW8m2NP67oCAAAARUWD8G2V5zxoCFxluXKLdV0tqaHeWfmHMtCD5r7Y89W0hZWttE2uznA7Di823ltsFzu0vHcoqzw4jrjISuWf1jUFAAAAioIG32cqX3vQCLjK+8ru1nW1oEb6gPqxB4MO8qCpJ8oxjw+ZsmrdhqEOtuvwzo6rrbexXNGy7qMM8+B44iqfK8dZ1xUAAAAoSEHsro1XPBj4u0r4l9Kbreuaa2qij1SeVL6wbubJj3Nj57Hj1gcbF0WwnYfP7DjHetvLBS3n3R4cW1zmRWVb67oCAAAABUMD7LOUbzwY7LvKcGUv67rmiprnesptyhjrJp4kztufz+ufg+0+fK5H+Brngr4zQMvXMCisZwOFd8yda11XAAAAIK9pUL2T0sGDAb7L3Gtd11xR43ym0tm6eSe1ZvGXC1Z2NNgPRitXKZtZb6dR0bK18OB44zLtlHrWdQUAAADyjgbS1ygLPBjUu8p05RjrukZNDfMOyh3KNA+ad1J7ls1YVNnFeL8I78x6Qmlove1GQct1hjLPg+OPq4TLcpl1XQEAAIC8oMHzbspbHgzkXaarso11baOkZvl45UVljQeNO0mdpV8vWdXDg32jZjoph1pvy64FsTvR+npQX9fHtF2tawsAAAB4SwPmG5SlHgzeXWVFuEzWdY2SGuU/KOM9aNhJ+lm4YMVanxvuD5TLrbdt17RM//Kgti7zrXKtdV0BAAAAr2iQvHcQe12q9YDdZXqFy2Vd2yioQd62fuxnKNM9aNZJZlm8dNW6fNnXxiq3Wm/vLgWxB5C6eA2vT+mt1LeuLQAAAGBKg+LNlL8HsVdJWg/SXWWOcrV1baOiBvk+ZaUHjTrJPCuXrFo3woN9JNPMUC6x3vZdqTru3aIs86C2rhIuy5+sawsAAACY0GD4IGWYBwNzlwmfIbC9dW2joOb4PGWyB006qWNmfFs5wIN9JJuEd540sN4XXNGy7B4U3rM5wnW0j3VtAQAAgJzQ4HfzIPZb9NUeDMZdZb5yoXVto6DG+AJlqHVzTrLL4KnfvuHBfuIia5R7rPcLl7Q8Nwex5/VY19ZVwmX5s3VdAQAAgEgFsbs2RnowAHeZ7sqO1rV1TU3xgUp/68acZJ92I77u7cF+4jrh8zlOst5PXNGy7KMM8aCuLhPeMcSzOQAAAFBYgthvzv8ZFNZdG5VBAf7mXA3xjkoL66acuMkfOn02xoN9Jco8a73PuBLE7m5rogQe1NVVlis3WtcWAAAAcEKD2/2CwvvL5CfKgda1dUnN8NbKQ8oK66acuMmRzQcvXh8E8z3YX6LOKKWh9T7kipblVOUbD+rqMu8ou1nXFgAAAKgzDWhvCmJ/wbMeXLtMU+u6uqZm+BfKLOuGnLjN7KWrP/Zgf8llmljvS65oWeopbTyoqcssVC62ri0AAACQEQ1id1IK5aGG1RmtHGZdW5fqx36O0t66ESfuUzp01mAP9hmLjFcOtd63XNGynKt85UFdXeZVZSvr2gIAAAApaeD6C2W2B4Nol7nLuq6uqQn+g7LYuhEn7nPu8x9ND2JvG7Heb6wS3jV2nvU+5oqWZWvlaQ/q6jKTlcOtawsAAAAkpQFrcw8Gzi4T3rVRML/tD9WPvR1loHUTTqLLwpVrx3qw71jnO+VJ5SfW+5wrWpYzlDke1NZl7rCuKwAAAPAjGqQerUzwYLDsKuFbDB4ppOYopOb3T8pK6wacRJfbK8YX23M3UiV8VenW1vueK1qWHZTOHtTVZYYpDaxrCwAAAIQD7mYeDJBdZoZyonVdXVLju4vypnXzTaJP5boNX3qwD/mWj5QdrPdDl7Q8VyvLPKitq4Q/qbrNuq4AAAAoUhqMHqB86sHA2GVeUraxrq1LanrPU+ZZN94k+jw5YHqhvY7ZZcKHj+5pvT+6pOXZQxngQW1dpq+yi3VtAQAAUCQ0+NxcuUdZ7cFg2FXmKedY19YlNbzbKC9bN90kZ9m4dkNQaG/bcJ1ZQQH+FELLdJuyyoP6ukr4OtnfWtcVAAAABU6DzsOUQvuNf4Wyk3VtXVKze7wyxYOmm+QoD7375TAP9qV8SPgTtIK6kyOkZTpIGeVBfV2ml7KbdW0BAABQgDTQvDMorFdPLlWutK6ra2p277Futknus3Lthi882KfyJVOUn1nvq65pmbZQmigbPKixq3yrXGBdWwAAABSIIPasjUL7bX/4u/U9rGvrkprcHZS3rRttkvvcVjH+Iw/2qXzLZGVn1e8GpY2yt/U+7IqW69ggdhHHusYu01GpZ11bAAAA5DENKP/hwcDWZcK7Nm60rqtras6OU6ZZN9rEJjMWVQ73YN/Kx3xyV4+Je6uGy5QlynHW+7JLWr5HPaixyyxQzrOuKwAAAPKMBpE7Kz09GNC6TFdlV+vauqam7DbrBpvY5aCHB4avCl3vwf6Vr/nggIc+vKOqnpVKQT1sOIg9N6nQ7vBpaV1XAAAA5AkNHs9RFnkwiHWV8A0p51rXNQpqxp60brCJbZ7+YPpgD/axfE+Zavlljbrebb1vuxbEnqFkXWeXGas0tK4rAAAAPKYB47UeDFxdJrwLpaDekFJNTViFdXNN7LNo5drPPNjP8j6T5q3oGFfbttb7uGtazobKSOtaO0z4atxrrOsKAAAAz2iQ+H/Kqx4MWF1lrfI367pGQY3XNko/68aa2OeI5oMXerCvFUxKh80qj6vxG9b7u2tB7E0r9ynrrOvtMC8qW1rXFgAAAB7QwLC+8qkHg1RX+Vg53IO6/tn1d6rh2k4Zbt1YEz/Sov+0gR7sb4WUtZe9+vFHcXXu4Wr/1fcfopzg6vuyofk4QhnjQc1dJTzu72ZdVwAAABjSgPDEIPZkeuvBqYusVu5RNjeuaT3lA+Vml99bn4sbJC7TF1UW2uubzbNuQzDr4EcGLYqrdYWLfVjfv4uyUhmvnOziO7Ocn82rjpmrrevuKHOUY63rCgAAAAMaCP7egwGpqwxU9vOgpg2UycoMl9+rBmur+lzcIHHZEGuWrfe9gsvcZWsGJah3axf7sr7/yhrTeinw4K4DzcMBSiFdLPutdU0BAACQIxr8ba2082AQ6iLh6zH/rWzmQV1/riytmq+LXH63mqu3rJtp4leuajOmkH5W5l3e+GxuWYK6P+lif9b3d64xrbnKtS6+N8t5Cu/mCJ/NscG69o7CczkAAAAKnQZ8Bwax26OtB58uMlU5xrqmIc3HccH//prexuV3q6lqa91ME//SdfTsAR7sg//N8jXrv5/57Srz+XCYNb9uPaZ3gtrfk+0+re/eNtj0ODxJ+ZmLY0aW8xb+bHGGB/V3kfAioPmdfQAAAIiABnqnK8s9GHS6yMvKNtY1DWk+jleWVc3XLGVrV9+tZqq5dSNN/MxXS1Z95MF++ENe/2TO9wc+NPCH+bq89OPwlavm8+Qi6zYEX2i55ieo/9XZ7ttB7Gch8cfjUUo9F8eOLOdtO6Wtdf0dZZFyvHVNAQAA4FAQ+913IbwW8GvlTOt6VtO8HK0sqTF/Z7v6bjVR/7Ruoom/Wbs+mOnB/vj9klXrvt+vyYc/mrdGzQZ///WS1ebz5iLTFlX2SVD/FcoB2e7j+v6LE0xzorKXi2NItjQf5waxB3ear4css0q50LqeAAAAcCCI/a7aeoDpIs8r21rXs5rm5RhlcY35e8HVd6t5uta6gSZex5u3XgybvjjhPP7rzUnm8+Yqj/Wb+naCZfzUxb6u738qwTQn+XKs03xsHxTO3Rz/sK4nAAAA6iiIva60jweDymwT3rVxmnU9a9L8nBz8+Pby8K+uW7n4bjVOp3vQQBOPc8pTw715RkKvcfMTzuMRjw42nzdX2bBx4+Kjmg+Zm2A5n3Oxz2sawxNM9z0X3+1KELubY771unCQ7oHDnxECAAAgBzSAO1L5yoPBZLYpDTz5S2a1IPYsk1Vx89nQxXerYfqZMs+6gSZ+5/JXP/bmDSo9k1zgCLNm/Qbz+XOVaQsrRyZZzl87OKbspixIMN0uLo4rrmh+dgznyXpdOEh4h4yTYzYAAAAipoHb1R4MILNN+JfC86xrGS+IPVB0Zdy83u7q+9UsfWjdPBP/U9LxsxEe7KM/ZOi0xD9RCVNIFzjC3NF9wrgEy7lSaZDtvq/vPzvJdFs5OLQ4pXm6Ivjxz/PyMZXKuda1BAAAQC00YGusfOfB4DGblCs7WtcyXhC7Kyb+rQcDXH2/mqRO1o0zyY/8uWzcUA/20x+ybPW67/dKMI8nthxmPm+us2Z9sOiAhz5MtE6GuzgGaBpPJJn2v118v0tB7K6TvtbrJMsEyi3WtQQAAEACGqh19GDAmE2WKtdY1zERzdehwaZ/sQzvMtndxferQbrXumkm+ZNbun0+zIP99b/522vjN5nHpn2mmM9XFGn1wfREd3GEecDFsUDT+CDJtG908f2uab5uCmJ3Q5ivmyzylHUdAQAAUCWIPeV+kAeDxGwSPmRvD+taJhLELm4sjJvfjcopLr5fjdE51g0zya/8vpM/P1EJs2z1+u9vrxj//ZWtx/yQu3pM/L5ybWH9PKU6K9asn1nLujnWwfFmJ2Vqkun7egH4QGWM9brJMm8r/2ddSwAAgKKmAdneygQPBod1zQblfmVz61omovnaN0j85oCHXXy/GqI9lEXWDTPJr1xR6s9DRosx5704KtEbVcJ84eK4EMReQZ1s+he5mIZrmq+fKC2D/P6JZHjhsJ51LQEAAIpSEHsmRD6/tm+acqJ1HZMJYm8MmJZgvkcFDi7IqBnaXBlm3SyT/MsZz4xItF2SHOWVIbNq228fd3T8uT3J9MOfgxzlYhpR0Lydo8y1XkdZJHzDyr7WdQQAACgqGoD9UlnhwWCwLgl/3vGMspV1HZMJ5y2I/TUvft7D54Ts42IaaoQetG6USX6mUbPB33qwHxdtxs1ePjjFOjrBxTEiSP5cpdnK3i6mEYUg9rPJfH4m1CLleOs6AgAAFAUNvEo8GADWNTOU06xrmIrmsVuS+b/AxferATrbukkm+Z0g9vMu6/25KLNk1bpPU6yfiS6OEyFN76Mk8zFR2cHVdKKg+bsoyO+7DH9jXUMAAICCFuT3a2A7KNtY1zAVzePfksx/Kxffr+Znd2WhdYNM8jtr1gdfebBPF2XWrg+mpbGOHnJxvND06gebvsGpOm+6mEaUNI+7Kr2t11kdE55r77OuIQAAQMHRIOunSicPBnx1Sfizjkuta5gOzecvkizDCBffX5/nbhBHWbRy7VgP9u2izPpgY7KHjNbMBuVwF8cNTfPMWubnry6mETXN523Kaut1V8eE594trGsIAABQEDSw2k75wINBXl3SR9nduobpCGJvpFmSYBnCCzR7uZiGGp6m1o0xKYxMmLtiqAf7d1FmQ7BxXprrabSL40ZI022WZH7WK8e5mk6UNJ8HBbGHNJuvwzrkfWVr6xoCAADktSB2cWO0B4O7TLNc+ZN1/dKled02iP2mPdGyXOhiGmp2zrJuiknhpNvo2QM92M+LMms3BLMyWFe3ujh+hDTtZOt8nrKrq+lESfO5uXKfss56PdYhw5XtrGsIAACQlzSQ2iHIz4sbIwNHbxrJFc3vu0mW5WkX368mZ1cl3b/6EpIyf31t/Mce7OtFmeWr10/KYF0tVZxcfNC0d1eSPXulv4tp5Irm9+gg8Wu4fU94TuYiBwAAQCY0gNpF+cyDwVymaWZdu0xpnh9OsiwTlC1dTEMNTm/rhpgUVk5sOWyOB/t7UebrJas/yXB9dXBxHAlp+gcHyR86+k9X08kFze82Qezh0+brNMOEFzm8foMNAACANzRw2k2Z4sEgLpPMUk61rl2mNM/nBonfSrNKOcjFNNTc3GDdDJPCzIbgh+fDWO/7RZcRMxbX5UHBJ7s4noQ0D2clOW6FP/s4wtV0ckXzfGWwMe+25c+VXaxrBwAA4DUNmPZRZngweMsk7ZTtrWuXKc3zAbUMqn/rYhpqavZRVlg3wqQwM3vp6nz8CVvep/3Ir4fXYX194uKYUk3z0TTJ/H2pbOtyWrkQxF6HO8B63WaYL5Q9rWsHAADgpSB26/FcDwZt6SacVycP4My1IHZr9Lgky9XW1XTU1Ay0boJJ4abr6NmDPDgOFF3u6D7x0zqusz+4OraENC/J3qTT2uV0cimIvU52lfU6ziDhc0T2s64bAACAVzRAOkJZ6MFgLd20UepZ162uNO9lSZZrduDobhQ1M3+zboBJYefqNp9M8OBYUHT5+RPDFtZxnc1RnL1qVPOyn7ImyXxe7mo6uaZ531fpb72eM8g3SkPrugEAAHhBA6PjlWUeDNLSydfKL6xrlg3N/x9qWb6zXUyjfuynKausG2BS+Any66/deZ/1QbAoy3X2iItjTDXN09+TzGv487vdXE4r1zT/f8qj7XuB0si6ZgAAAKY0IDpZWeHB4Cyd9Ary+K6NUBD7i2eyAXM7V9NRE/O+deNLiiNTF1aO8ODYUDSZtXjVmCzX2RrF6Wu0NV8Dk8xvhcvpWNAyNFTGW6/3NPOtcrR1zQAAAExoIHSaUunBoCyd3G1dLxe0HB8kWb7wzhRXP025w7rpJcWTxu98wQWOHKbLqG+GOlhvr7k41lTTfO2trEwyz3n7U5VqWoatg9jDrM3XfxoJX+F7nHXNAAAAckoDoF8GyX877VPCCzB5+SDReFqOy2pZzjNdTEONy97KauumlxRPDnjow9VB7PWg1seKosgVpWPmOlp3Z7g45lTTvN2UZJ7DZzvt5HJaVrQcv1FWW28DaWS5crx1vQAAAHJCA59zgvy4uBE+OO1I63q5omWZkmQ5X3I1DTUtfawbXlJ8mTRvRbK3aRCHWR8ElQ7X2+eujjvVguQP5uzhelpWtCxHB/nxtrHwIseJ1vUCAACIVBC7uLHWg8FXqoxUdrGulytaln8kWc5ZylYupqGG5WrrRpcUZy595eNJHhwzCj7j5ywf53jd/cXFsaea5nH/IPn55Zcup2VJy7KbMtp6e0gj4c+GuMgBAAAKkwY6V3gw4Eonzu5o8IGWZydlSYLl/E45zcU01Khso8y2bnRJ8WZx5brPPTh2FHQe6PXFNMfrbamyu4tjUDXN571J5n+ispnLaVkL8uO5HOHPPE+3rhUAAIBTGuBc7sFAK5382bpWrmmZXkyyrM+7moaalMesG1xS3PnnGxM/8uD4UdA5pOmgKNZdN1fHoWqa1wlJluE219OypmW603q7SCPhc0OcXEwHAAAwp4HNGR4MsFIlfPK704fe+UDLdGgQu1MjfnlnK1u7mIYalL2U9dYNLiGV6zZM9eBYUpAZPWvpJxGuO6evFtX8HqsECZYjvJOtIB44WpOW6dzA/9etLwsK6JlWAACgSAWxB6Kt8mBwVVsWKI2saxUFLdfAJMt8jqtpqDnpbN3YEhLmnrcmjfTgeFKQuaL1GNc/T6mZvq6OR9U0zy2TLMuzrqflAy3XUcpS6+0kReYrB1rXCgAAoE40kDlY+daDQVVt+UrZ37pWUdByXZRkmTu7moYak4Otm1pCambl2vVfenBcKagsWLE2yrs3qnO+q+NSNc379CTL1MD1tHyg5WoUxC7Ym28zteRrZR/rWgEAAGQkiD3Nfp4Hg6naEj50bi/rWkVFyzY+wTKHtzH/zNU01JR0tW5oCamZGzqP/cyDY0tB5aaunw/Nwbqb7uq4VE3zfn6SZerielq+0LIdGMTejmW+3dSSacqe1rUCAABIiwYuu1QNYKwHUbVlhLKjda2iomW7Icly3+FqGmpIjrduZglJlFmLV/FTFUdZtnr96Byuu3tcHZ+qaRneTLJsh7qeli+0bHsovr9VKLzTqmBexQ4AAAqUBizbKWM9GDzVlncDRw/Y9FWQ+C94411OQ81ImXUjS0iinP70iK88OM4URK5oPebjHK674S6PUSEtwz5Jlq2n62n5RMu3gzLUevtJkU+Uba1rBQAAkJQGKx96MGiqLW2taxQ1LePfkiz7L11NQ43I3tZNLCG15bmBMwZ7cLzJ63y5YOWQHK+3J8PjS0VF6cGujlUhLUuTJMt4gsvp+ChIfgeLL+lnXSMAAIBNaJCymfK6B4Ol2vKwdZ2ipmXcMkj87JPXXU5HjUgz6waWkFSZ+S0/Vckiq45rMXR+LtfX3a+UXVhRUfqp8r3i7NWxWpb/C2IPlI5fxj6upuGrIHZubufB9lRbKqzrBAAA8CMaoDzlwSCpttxmXaNc0HLemWT593U1DTUi9ZQV1s0rIanS8OGBlavXbZjhwfEn79Jl1DfDcrmuTmveu1NFRenyqosbYTq6OmaFtExXJ1nWE11Ox1dazkett6kUaW5dIwAAgB9oYHKHB4OjZPlO+YN1jXJBy/kTZU6CGrzgcjpqRu6wblwJSTe/eHrEVxuCH94eZH0sypusXLt+Wi7X0X6N359VXlE6pcbFjTArXB63QkHsmQ/xy/uW6+n4Ssv6uPW2lSJ/sa4RAAAochqQ3OjBoChZiubiRkjL+qckddjD5XTUkEy2bloJySTXtPtk/IaNGys9OCZ5nw3BxuWntxoxJ5fr54VO7d+Iu7hRnXNcHru0fKcmWe5DXE7HZ4HfFznCc/a11jUCAABFKkh+y68v+ZN1jXIpiL12L74Gz7qejhqSd60bVkIyzfUdPwtfm7nKg+OS1/lz2bjxuVwv57Xo+VaSixthnnR9/Apib9GKX+72rqfjMy1vY+vtLEUusq4RAAAoMhqAnKys82AglCjhX4F+Z12jXNLyXp6gDquVPV1PS03HH2994bU3GjTub960EpJJbuwy9tOAixxJ89SA6YNzvE5WdStvPa6WCxzDXB+/gsR3cWxUDnI9LZ9peW+rOleab3dJzl1HWdcIAAAUiXAgqCz1YBCULNdY1yjXtMxDE9ThOdfTUcNxb3XzUVZeuuZ3T/dYb920EpJJrij9eNKGYOMyD45TXuWtz+fl/M6se14p61nLxY0wo1wfw0Ja3v4JatAuimn5TMt8rfV2V0vmK3tb1wgAABQ4DTh2UqZ6MPhJlsusa5RrWuYTE9RBPZzbuzfUbByWqAm5plWP1dZNKyGZ5LwXR01ZHwTfenC88iJDpy1+Pdfr4Limfb5McXEjzPkuj2HVtMznJKjDWmXnKKbnsyDx3X++ZKyyrXWNAABAgdJA46fKCA8GPYkS3tLq9IF0+ULLXZagHm1dT0fNRv9kjcjFT7y93LppJSST/PyJYXNX8QrZjWUfz25vUf/WXdoOT3FxY6TrY1hNWvaPE9TjwSin6Sst96+C2AUe6+0xUcK7bTa3rhEAAChAGmR082Cwkyjhb+pPt66PBS337kHsbo2a9Qh/V+30rQBqNnZM9dfW81r0XGLdtBKSSRo+PLByztLViRrdYsjq+3pO7mNR9wtbvv1BGndvRPqgSS3/bxLUZJ7ykyin6yst99nKGg+2y0R52ro+AACgwGiA0dSDQU6iFO3FjZCW/YEENentejpqNnZJ1ZCUV5SuPfvxXkutm1ZCMs074+cP9OBYlrOsWR8suuSV0dOM6r2iW3nrKSmOJ5+5PobFUx02V75JUJ8rop62rwK/L3L82bo+AACgQGhgcYsHg5tECX+WcrZ1fSxp+RPdYn9WFNNS09EqjYsca059tPcy64aVkExzXYfPxq/bEMz14LgWaWZ8W/nVkc2HmNX5P692657G3RtXRnEMi6d63JWgRm/mYtq+0vJfYL2N1pKivfgEAAAc0YDiMg8GNYkS/pXpTOv6WNLyn5KgLp9HOU01HjNSNSdl5a2XHvlwX+7kIHmXQ5sOWjVuzvJhHhzfnGfDxo2rn/lwxmTL+jZ66L3wlbArUxxDJkZ5DKtJddk+2PS1wevD/z9X8+AjLf+F1ttrLTnNuj4AACBPaSBxqrLOgwFNfMI7N061ro811eClBLX5Q5TTVPNxWRp/ff2+S1nrmQc26b/CumElpC75bbtPx69cu36KB8c6Jxk2bfGXJ7YcZl7XFzu1fyeN40dJlMeweKrP8wlqdnMu58FHQexODh/P/+Er6p0+YwoAABQBDSAOV1Z6MJiJT3jnxhnW9bGmGmyhLImrzYIgBw/IUwPyZjoXOTp2azNp/8b9zZsqQuqa5wfNHLRuQzDPg+NenTJr8apJ5784youfjJ3Q9N2haRw3voz6+BVPdTogiD2YuWbtBuR6PnykOlxkvQ0nSfhTsr2t6wMAAPKEBg7bKV95MIiJz0blMuv6+EB1OD9BfZrkYtpVDxxdmM5FjjZd2060bqwIySb7Nv7g+1YfTB+8dn0w04NjYDoJxs1ZPvbK1mO+tq5dzehYMDiNY8avc3EMi6ea9Y6vobKzxbz4Jkj8thkf8qnyf9b1AQAAeSDBYM+X3GRdG1+oFp3iarMhlwNyNSIXpHOBI8xTHTqOsG6uCHGRJr2/HLpgxZpPPDgWbpK1G4IVr38yZ7IPP0WJz7kteo5J41gR+ZtTkgkSP1jzdqv58Y1q8S/r7TtJKqxrAwAAPKcBw30eDFoS5R7r2vhCtdgq2PTnQ51yPR9qSFqke5Hjby9V9LNusghxldNajZj13sQFg9Z4cFfHjG8rJ/+j+4TZ1jWpLZ3K2kxK4zhxXa6PYTWplvHPXBlsOT++UT2est7Wk+Re69oAAABPBbE3psT/FtmH3GldG58Eid9sc4rFvKgpGZbuRY6Ln3ibixyk4HLiE8MmPzlg+jtTFq7so/1wbNTHw1XrNkwdOm3xkNtfG//JgQ8NNF/+VLn26TfSOUaY3b1RLdj0LoXwXPgz6/nyierxpAfjgfiE6+lC69oAAADPaIBwhFLpwWAlPn+xro1vVJM2cTWaZDUvakz2VpaneZFjyfFN+4y2brgIiTiDftvu0zdLh83qNm1hZbivdlMGKTMzPPbNX7shmLZs9foJn32zbGSzvlM+OvqxIQs9WL60c0Dj/ivLK0oXpDguzA+PI1bHsGrhxYwE6+B66/nyjWrSxINxQXxWKIda1wYAAHhCA4N6ynQPBinxucW6Nj5SXRbF1ekflvOj5uR36d7FUVZeOqNhk35fWTdehOQwlcoopavS9KjHhjx27vMftfptu09fvK1ifJu7ekzs8McuY1tf8NKo8uNbDO1b9dlvPJjvrPNYu06D0jgu/NLy+FWTjqVvxB1bu1nPk49Ul0c8GB/EZ5qynXVtAACAMQ0INlcGeDA4ic+/rGvjI9WlYVyd1iv1rOdLTUrHdC9ydCxr83FV02fegBFCoslJzd79Mo3jwcPWx66agk1fi7pU2cx6vnykujzrwTghPr1ZXwAAFDkNBh7yYFASn0et6+Ir1eaauFp58RR5NSrbKtPTvcjxXKcOfa0bMEJIdGnfrc3YFMeB6dbHrUR0TJ0fd4w90nqefKXatPdgvBAfHkgOAECx0kDgJGWjBwOSmulgXRefqT6PxdXrAut5qqaG5Zh0L3CE+dcrZRXWTRghxH1uf7EinZ+mnGV9zEpEx9SWccdYnsORhGqzhdLTg3FDzWzgohQAAEVIA4DtlBkeDEZq5jXruvhONXq3Rr2WWM9PPDUtd2RykeM3rXq8Zd2MEULc5bimfWZq316TYt/39liv42qjuPPSk9bz5LMg9trywR6MH2rmi3C+rGsDAABySCf/Mg8GITXTx7om+SCIPUitumbtrecnETUvPTK4yLHm7Md7DbRuygghbtKhW5vxKfb5tcqe1sep2ujY+lmN42xP6/nxnWq0jYcXOV6yrgsAAMgRnfhv8mDwUTNDrGuSL+LqdpH1/CRS9TyOSRlc5Fjy82bvjrVuzAgh2eXG57oPTWN/v8/6GJWKjq131TjOfm49P/mg6iLHMA/GEzVzlXVdAABAxHTCP0pZ68HAozqTlZ2s65IPVKf9atRtqfX81EZNzIHK8nQvcpRXlM494uH3Zlg3aISQuuXAJv2Xaz/+NsW+Ptn62JQOHV/3rnGsXW49P/kiPJcrUzwYV1RnhXKQdV0AAEBEgthzN6YZDDKSZUHYtFvXJV+oVifXqF076/lJRc3MhZk8j6NbeeupapKWWjdqhJDM80T7joPT2M9/YX1cSpeOsSNrHG95nkOaVKsDlG89GF9UZxzrDwCAAqWT/NseDDZq/mXlCOua5BPV64oa9fPy5ynx1NA8lMlFjg7d2nxu3agRQjLLeS16fprG/l1qfTzKhI6x/65xvOVCfAZUr+OU1R6MM6rT2romAADAMZ3gb/NgkFGd8DVuZ1vXJN+oZn+sql9e3TKtxqZvJhc5Xurc/iPrho0Qkl4aPtjv2/KK0vkp9us5ynbWx6JM6Di7f41z1jHW85NvwovwSuDBeKM6v7auCQAAcEQn9sM9GFzUzLXWNclHqtutVfUrs56XTKix2VGZmclFjlYdOg5U8/SddfNGCKk9r3RuNyKNffoC6+NQXehYO6nqmHuK9bzko8CvB5qHd402sK4JAADIUhB7srlPD/2637om+Uq1uz1f/xKlBucoZU0mFzkeadOlj3XzRghJnt+06pHOxY021sefutKxtlnVMfdM63nJV6pdSw/GHdUZbV0PAACQJZ3Q23gwqKiO9w/G9FkQu4NjsfV81JUaneszucAR5l+vlPWwbuIIIZvm4Af7LS6vKF2cYh/+Jt9+mlKTjreHVJ27fmk9L/lM9XvLg/FHdZpb1wMAANSRTuSXejCYqM4byubWNclnQewZHM9az0c21Oy8nOlFjr+9WMGdHIR4ltIu7T5OY/890/qYk63wr/7KCdbzkc9Uvy2VgR6MQ8JsVE61rgkAAMiQTuA/U5Z4MJgIM0L5qXVN8l04yFb2tp6PbKnpSee29h/l5udfH2Xd0BFCYrm/tOvANPbb56yPNS7omHu+Us96PvJdEHtN/UQPxiNhvlK2ta4JAADIgE7efT0YRISZoexkXQ/4Q43PzsrUTC9y3PBs93HWjR0hxZ4rn3rzozT21wnK1tbHGvgliL2ZZpEH45Iw7a3rAQAA0hT8720b1lmqNLSuB/yj5qeBsiTDixzfXfN0jynWDR4hxZpjHun7lfbDyhT76TJlH+tjDPykMcEpyhoPxidhLrWuBwAASKHqLySrPBg4hDnXuh7wl5qgUyoyfLNKmCufenOGdaNHSLFl/8b9V3Utbz09jX2U4z5qpbHB5R6MT8KEd5PsYl0PAABQC52sh3swaAhzh3Ut4D81Q7/N9AJHmEueePsr64aPkCLKxtIu7UalsW/eaH1MQX7QGOFuD8YpYd60rgUAAEhCJ+r/eDBYCNPVuhbIH2qKHq/LRY6LWr4924PGj5CCzyNtOqfzUNF7rY8lyC8aK3T3YLwSpsS6FgAAII5O0IcqGzwYKIRPSd/Kuh7IL2qO3q3LRY7zW/ScZ938EVLIuen514elsS++YH0MQf7RWGF7ZaYH45blCs+NAQDAJzo5j/VgkFAZXmixrgXyjxqkHZTJdbnIcc7jvRZYN4GEFGIubPn2mDT2wdesjx/IXxozHOPB2CXMUOtaAACAKjoxN/NgcPCdcqF1LZC/1CjVV+bU4SLH2rMe78UzOQhxmGOb9pmpfWtFin1vqLKl9bED+U1jh+s8GMOE+Y91LQAAKHo6IR/vwaAgzH3WtUD+U7N0aEXsNZOZXuRYfc7jvSZaN4WEFEIaPfTegrLy1t+k2OcmhndeWR8zUBg0hnjKg3FMmGOtawEAQFHTyXiyBwOCLtZ1QOFQ0/RzpbIuFzkufuLtMdbNISH5nIYP9lvctbz1zBT72iJlb+tjBQqLxhJ9PRjPTLKuAwAARUsn4ic9GAxMVbaxrgUKi5qnXykb63CRY8O1z7wx3LpJJCQfs+8D76/tVNZmUqoLicoJ1scIFB6NJXZS5nkwrmlhXQsAAIqOTsCnejAICNPIuhYoTGqi/lKXh46G+efLZYOsm0VC8i3Pd2o/PI396yLrYwMKl8YUv/BgXBPmJOtaAABQVHTynebBAOBW6zqgsKmZeqquFzlatO80eK/7B2y0bhoJyYc82aHjkBT7VHhH1RXWxwQUvsCPB6dPtq4DAABFQyfeJzw4+Q+wrgOKg5qqirpe5Hilc7tRDRq/v8q6eSTE5zRr23lQGvvTDdbHAhQHjS9+onziwTinmXUtAAAoeDrhHufBSX+lwgPmkBNqrH6i9KvrRY4uZa2nHvHwe3Osm0hCfMt+D7y/5qXO7UemsR/9xfo4gOKiMcb+SqUH450jrGsBAEDB0ol2C2WiByf8m6xrgeKiBmsbJZ1GLGHKK0oXn9ui11jrhpIQX3Lwg/0Wd+zWZkIa+8+D1vs/ipPGGrd4MN75VNnMuhYAABQknWT/48HJ/i3rOqA4qdGqp3xc14scYW56/vUh1o0lIdY5oem708vKW89OY595xnq/R3HTmKO3B+Oev1vXAQCAgqMTbANlnfFJ/gtlO+taoHip4dpRGZPNRY5H23bmDSukaPOrFj3HlleULk9jX3nBen8HNOaop3xlPPZZHfCzXAAA3NLJdbDxCX6Dcqh1HYCqixwjsrnI8WqXdqN5+Cgptlz7dI90f+b1svV+DlTT2OPnSmA8BnrPug4AABQMnVhvND6xh7nPug5ANTVgWyvvZnORo0t562nHNu0zy7rpJCQXufuVsnTelBKmvfX+DcTTGKS5B+Ogq63rAABA3tMJdXdlifFJ/RPrOgCJqBnrmM1FDqXy+mfeGG7dfBISYTY807HD4DT3hy7W+zSQjMYiU4zHQnOVetZ1AAAgr+lk2t2Dv1ocZV0HIBk1ZY9meZHj+xbtOw32oBElxGkaNum3pH23NmPT3A/aWe/LQG00FjnVg/EQ+wkAAHWlE+nFHpzM77WuA5CKmrO/ZHuRo3NZ68lHPtx3tnVTSoiLnNjs3RlpviklTGPrfRhIh8YkT3kwLjrDug4AAOSdIPbk8AXGJ/EPA97/jjyhJu2XytJsLnKEb5e44sm3xlg3p4RkE23D4euUV6a53d9gve8C6dKYZEvlM+Ox0Uxla+taAACQV3TyfMX4BL5M2d26DkAm1Kw1UMZnezfHo207D1SjuNa6USUkw2xo0rprug8TrVTOs95ngUxpbHKI8fgozGPWdQAAIG/oxHm8Byfvm6zrANSFmrbtlL7ZXuToUtb6y+Ob9pnhQdNKSMoc8fB7czp0azMuze17sXKC9b4K1JXGKI09GCcdaF0HAADygk6aHxuftN+3rgGQLTVwL2V7kSPM31+qGGTdvBJSW37/bPfh5RWly9Lcpucph1nvn0C2NFb5gLESAACe0wnzZg/+KnGIdR0AF9TI/dXFRY52Xdt+xgNIiW85qEm/ZS92aj8ig215hrKf9X4JuKCxyuEejJcut64DAADe0olyV2WJ8cm6lXUdAJfU0B2rzHRwoWPFn557fah1U0tImHMe7/V5WXnp3Ay23yHKrtb7I+CSxizPG4+Zvg544CgAAInpJNnB+ES9SNneug6Aa2rstld6urib45Uu7T46+MF+i60bXFK8ub807QeJVqfUeh8EoqAxy04e/GGohXUdAADwjk6QpxufoMPcaF0HIEpq9Fq6uMhRXlG6iLs5SK5zevPekzuXtf4yw+31Fuv9DoiSxi63eTB+4qe9AABU04lxC+UL45PzZ9Z1AHJBDd9NLi5yhFGz+UX4UwHrxpcUdho0fn/1Q226ZHrXxgTlUOv9DYha1RhqqvEYaph1HQAA8IZOjPd48NeHk6zrAOSKGr8Tqx646ORCx3OdOgw75MF+C6wbYVJ4ufbpHiMzfNZGmFet9zEglzSGudCDcdR11nUAAMCcToh7KWuMT8rdresA5JqawG2Vdq4ucpRXlC6/5fnXhlg3xKQwckLTPtPDt/dkuB1WKtda71uABY1l3jceS81VtrOuAwAApnQy7GR8Ql6r7GNdB8CKGsLzlNmuLnR0Kmsz/uRH3/3SukEmeZt195Z2G1iHbe8rpZH1/gRY0VjmAGW98ZjqKes6AABgRifCRsp3xifjptZ1AKxV3c3xrKuLHGEea9dp6AGN+6/0oGEmeZIzH3tnfNfy1tPrsL0NUHa03o8AaxrTtDQeU4UXWA6yrgMAACZ0EnzX+EQc3k65jXUdAF+oSTxZmerqIkdZeem8Xz/11sfWjTPxO40eem/uMx07DKvDNrZK+bf1fgP4IhzTKAuNx1bvWNcBAICc0wnwVOMTcJjrresA+EhN46Mu7+Z4uXO7kYc99N4860aa+JUGjftXPlDaNXw7ypo6bFflym7W+wrgG41tbvBgfPVz6zoAAJBTOvmNND75fmRdA8Bnah6PVsY6vNBR+XCbLoMOfrDft9aNNbHNXvcP+O7GZ7sPKysvnV+H7Wihcpn1/gH4TGOcj43HWIOtawAAQM7oxHeZB39dOMq6DkA+UDP5gMu7OZTVD7XpMuiAJjyfoxhzzuO9xnUqazO5jtvOi0o9630C8J3GOCd7MM4637oOAABETie8zZUvjE+67a3rAOQTNZUNlH4uL3SUV5Quu+Ol8oFqetdaN90k+hzftM/Ulzq3H1HH7SV8iOih1vsBkE801ulmPNYaa10DAAAipxPetcYn3BXKrtZ1APKRmsxrlTkuL3SEP1P443OvD7NuwEk0OfqRvl8/27HDkDpuH/PCbc56uwfykcY69ZW1xmOuy63rAABAZILY3RvTjU+2d1nXAchnaji3UZo7/tnK993KW8/6ywuvDWnQ+P3V1k05cXJh45tWHToOzWKbeFLZ3np7B/KZxjwPGI+5PrWuAQAAkdGJ7nrjE23405gtrOsAFAI1nwcr/V1f6CivKF0RvlnjwCb9l1s36aRuFzae7tAhmwsbvZQDrbdvoBBozPNTD/6wxF0cAIDCpJPcFOOT7GnWNQCSKTly758pHZW8au7UjP5WmeX6QoeyMrzQ0fDBfoutm3aSOic2e3daq+wubIxXzrXenjOhfbWxcp31fAC10djnfOOx1yfWNQAAwDmd4K4yPsFWWNcASEZN0v7KLOV7Je9u6VVjupXySHhRIoILHWuatu088MiH+862buLJjxP+nOjG57oP7dCtzYQs1m/4qtjbrLfhTGk/vaxqfw3T1Hp+gNpoDPSO8RjsV9Y1AADAKZ3cJhieWAOlgXUNkP/UyDylrHTZ0Oi7tlLG1WiWwjR29f25pEZ1V+W5CC5y/JC2Xdt+dt0zb4zgOR22Oeyh9+Y/0qbzIAcXtMJnuWxrvd1mSvvnbsrCuH32Bofff5wyUFmqNHT1vSheGgMdrGw0HIcNtK4BAADO6MR2gfFfDl60rgEKg5qNeTUamtHhz0ocfGfzuEapOnu7mGcLalr3VcqiutChVD7VoePQcx7vNc662S+m/PKxdya06tBxmIP111nZz3o7rSvtm20T7K+VLvZZfccf4773Ly7mGdBYqK3xWOwE6xoAAOCETmojDE+oq5XdrGuAwqBmY1Vc8zFfOSmL79sxycWNMC+7nHcLamJPVD6K8ELH913LW0+//cWKwTyUNJoc8mC/RXe+XD44rLOD9VWuHGK9XWZD++VBteyzz2b53e0SfOf9ruYdxU1joT2rxkRW47Fe1jUAACBrOqGda/wXg3usa4DCoWZjRYIGJLzocXYdv++2WpqlvL6LoyY1tVcqE6O80BEmfMjl6c17T7a+KFAIubDl25++1Lm9q4tTfZRG1tuhC9onX61lf11Ux+8Mf6bWL8l35uXP1eAnjYn+YzwmO866BgAAZEUns5GGJ9Lw1Wg/ta4BCoeajTlJmpDwIsfJdfi+gSkucLSJYjmsqMn9g/Jl1Bc6upa3nnl/addBF7Ts+dl+PK8j7fzysXcmNm3beVBZeekCR+tiuHKO9XbnivbHPVLsr9/X5WKn/k3vWr7vjiiWBcUpiL02dqrhuKyndQ0AAKizwP7ujfOta4DComZjQi2NyDIl7b9O6bPbp9EshTkiymWyoKb3kqrmN9ILHdVp3bXtx7e98Nrgox7u+431RQSfsn/j/pXXtOox8pmOHYaVV5R+67DmvZSML/j5Tvti+zT215YZfudbKb7v+qiWB8VJY6NLjcdmx1jXAACAOtFJbKDhCXSQ9fKj8KjZ6JuiGVmc7kUOfe6iNC9w9Il6uaxUXejI5hWjdbq7o3m7ToNueLb78NOa9/7C+iJDrnPqo72n3PrCa4Ne6dxudAT17a0cab1dRUH74TFp7q+jM/jOrml83y+iXC4UJ42RhhuOz16zXn4AADKmE9hxhifP75SC+L03NqV1e6xyZi05Kqppl9T++/vqhK92PDqN73ogzYYpzK+jWiYfqCm+Opd3dCS46DHrZTX895d2Hfi7p3uM/Hmzd6dbX4jINg2b9Pv2vBY9x97+YsWgJ9p3HNqxW5vxEdawvBDv2KhJ++CodPfXNL/v5TS/b68olkfHyS1THEfDHBrFtGHPeIwWvq62gXUNAADIiE5ePQ1Pnu2tlx/R0fodlmL9vxPVtNVs3JVmUxLeyVHr2yL037tncIEjfFvLzlEtly/UJJ+gdLO60BGfLmWtpzzXscPw/7za7cObnnt96CVPvD36lEd7TznIgze2HPJgvyVnPd7r86tbvTnq5udfH/qvV8oGhhcy2ndrM668onRJDuqzUGmu7GG93URN+949GeyrYWp9Hab+e6s0v6cyqmXScXL3NM6lraOaPuxp/ZYbjtNKrZcfAIC06cTVyPCkGWZP6xogOlq/g1Ks/zeimrYajgszaHJmK/vW8l3TMmyauka1XL5R07yX8oSy1PoiRy1Z0aWs9dS2Xdt+Utql3ZCXOrfv+1ynDj2e6tCxU8v2nbo+2rZz94fbdOnVuHXXfveWdht4x0vlg8MLEdc988aIy5986+Pw7oqauaBlz0+vadXjo5v0mX++XD74vtJug6rTpHWXgU926Dj05c7tRnWIXcBYYbjcnyt/tN5GckX73cEZ7qdhbq3l+x7O4HtGRbVcOk7uksa59IWopg97Wr/7GY/VfmZdAwAA0qKTVmfDE+YT1suPaAWpn+1SHtW01XDsnmGjE955cXiC79mtDk1TmKuiWjZfqZm+THnXgwsaxZ73lF9Zbw+5pn3u0zrsp+2SfNdzGX5PZG9R0nFyhzTOp09HNX34Qev4JcPxWkYP5AUAwIROWPWVDUYny+XhoM26BoiW1vEHKbaDzlFOX03HzAyblCXK8XHf8fc6XuBYrjSIcvl8VRG7q+MRZZ4HzX6xJKx1C+Ug6/VvQfvaM3XcT5cm+K5OLu8EyZaOk1vTgCKI/VRpjdGYbYWyvXUNAAColU5Wzxv+NeA/1suP6Gk9902xHUT2V8+Qmo4udWx6bq7xHVPq+B1hPopy+fKBGu6blE88uABQiJmrtFHOtl7PlrSfXZzFPhrmhqrv2U8ZXMfvSPmw4rrScXLzNM6pTaOaPvyh9dzMcNz2b+vlBwAgqSD2m97VRifJr62XH7mhdf1uim3h5Sinr6bj91k0PROUN7NsnMK0jXIZ84Wa8J8pJcprFbl5sGYhZrnSS7lD2eTnVMWoJPbcjWVZ7qPhz9PSeQ1sssyLejnTOK8+GPU8wJ7W8zbKPKOx20Lr5QcAIKnwrz2GfwX4nfXyIze0rnul2BaeiXL6JZk/h8NV5sX977ujXM58pAb9KOV+ZawHFw58zjDlX8qR1uvMN9qvdlJmxO1rCw3298jfBqZj5boUx9L7o54H+EHr+gbD8dvt1ssPAMAmgtjveRcbnRzHWC8/ckfr+80U28PjUc+Dmo8RBg3PLcp1yqwa/1/RPXQ0XWred1EurYg9t6NvRey1ptYXFiwyTulUEbtD4wxlO+t14zPtU0Nq7F+dlUOViQb7+yVRL6uOlStTHEvviXoe4A+t70+MxnDfWC87AACb0AnqTsOr/+dZLz9yR+u7e4rtoVnU86Dm458GDU+YvylbKc1q/H9nRb28hULN/b7KlcqjygBlmQcXIFxltTJCeb4i9oyS46zrnW9K/vfzsfCnZKcpe5bU7S0q2WZlLpZXx8olKY6ld+ZiPuAHre+LDMdxt1gvPwAAPxJegTc6KY63XnbkltZ5eYptoknU86AGZF+jCxxh2lbNw2HK6LAZUhpGvcyFqqKi9FDlBqWlUl4R+/nGSg8uWCTLCmVo1bw+rdyiRPYwymKhfej5qv3rgar/fUpJ7DkaFvt4p1wss46V81McS/npQJHROp9kNJabZb3sAAD8V2D7280brZcfuaV13iXFNpGTt+moCRloeJFjnHJS1Xw8VhK7hX7rDOf/cOXMqpyu8Lq+GioqSg9Uzqu6+PFv5Umlo/KuMlKZqVQ6vHCxSJmkDFbeVEorYnea3FkRe5DqOcq+1nXxjbbbzZRDamzLZyj1MvyOa5XpypFV//tBw307TE7eYKNj5dcpjqU3p/4WFBKt89sMx3O/t15+AADCk+FmyhSjk+FCZUvrGiC3tM47pNgu7srFfKgJud64CQrzcknsJytnKRenmN/w4Yn3Kv2VpQm+a6NSqjTIRf0KSUXspy/HK2emyOlVd4zsbD3P+U7b6RbKNcrkJPtGeNHvVeWcFN+zTdV+sYNyatWFDst9elquaqhj5fQUx9IbcjUv8EMQe6OK1fPUvgjHlNY1AAAUOZ2MrjC82n+f9fIj97TeW6fYLv6ai/mourCQ7askXWSq8ss05nfvkvQelhgof8pFDYG60Pa5mzI8zf0j5YMy9ZltS2J3Qlnvy2Fydl4LUv8c4bpczQv8ofXe3HBcF/nDdQEAqJVORsOMToJrlB2tlx+5p/X+Sopt48+5mhc1I0970BBVp7tyYIr5DRu5F0tid2uk+r5Wyua5qiWQjpLYT6u+TmP7nVKS4u6Nqu+7TVnkwf5bnd1yUceQjpWfpziWXp2reYE/tN73MLzA8aH18gMAiphORI0MT4LPWi8/bGjdv5Bi2/hjruZFzcj+SZqUC0tiPxuxeANDeAGj1p9AVM13+HOUNSm+63Vli1zVE6iNtsXjSxL/vKpmxiu/T3VxTv/9EuULg/3zUaW+8kGC/5aTh4tW07FyTIpj6RW5nB/4I0j9U9Aoc7j18gMAipROQm2NTn4blfrWyw8bWvdPp9g+SnI5P2pK3kjQqGxb478/btBELVbuLknx4NGS2GswO5XEfpaS7LtKo68iUDtthwcpS2rZTmcpv0nje45V3jPYJ8O7To6pMR8tEnzm+Gir+GM6Vo5IcSy9KJfzA39o3R9meIHjJevlBwAUIZ2AdlJWG538yqyXH3a0/p9IsX1ck8v5UVNyXIJG5bS4z1ymrDJoqr5V/pXGhY7wmQb3K18l+Z60nm6vz91S9fkVyonZ1BWFS9tGh6rt5Etl1zQ+v2VJ4ufHfKf0VC5Qan04of77ycoAg30wTPhg3x3j5qd/3Gfez7aumdKxckiKY+l5uZ4n+EPr/z2jMd5yZRvr5QcAFBmdfO42vLp/nPXyw47Wf4sU28eVuZ6nqiarZrPSLcFnTlKWGzVYYYZWXYBI+jpY/bfNlfOV55V1Nf7tQ2nWYX6Nf3NVNjVF4dK2MarGdpLyrUf6zO5xF9/GKLcr+6T4dyeUxH6Klc4zO6LK6wnmq2GCz52STU3rQsfKD1IcS8/K9TzBH1r/FxiO826zXn4AQBHRiWdzZbbRSW+o9fLDlraBR1NsI5fmep5KEj+LY5M3m+j/O6YkdldFbQ3RmqoLETcp70TUdPVS/hg2jrUsU/jazDOVgzKowyfJlh2oqWobDLeVtB5kWRK7i+MM5agUnzutJPazsCkR7DczS2IPFg6fsfNuGp/vkmQe+8Z9rl1dapitIPVf6E+3mC/4I0j9pp2oEr7CmFfGAgByQyedqwyv6vPQsyKnbeDhFNvIBRbzpSbl33FNS/gX550SfC58lsCMWpqipnGf3yv8/6qaqygudnxW1RCe6aAGpVXfmfY60GfvUc7OdtqwpXX4gtIgg8+PrNpWsnqekv79HiWxuzneVFZGtI+E331J3HS3Vypr+Tctk8zv7XGfm1sS9/OVXNGx8p0Ux9KTLOYL/tA2cKvheO986+UHABQJnXSGG53svlF4bWWR0zbQJMV2YtYsq1HpF9e8vJfkc2FTNj5JY3RELd9/esmmP4dxmanKAyV1fNih/t31Vd/zaQb/Zl5J7PkkJ9RlmrCndVdWtd7/mubnL676/LQ6Tm8X5ZqSxA/4dZXwwsMdSr1a5qM8yb+9M8nnT0/wWbOfgehY2SPFsZSfgxY5bQPbBLFnYliM+fpZLz8AoAiEAx7Dq/n3WS8/7Gk7+E+K7eS01N8SDTUr25Zs+mrYJ5N8dueS//2kozrz05zOkUrXCJu7MOEbKyqU3ynbpTlfe9T493en8fkda3x+obJfOtOBP7TOHquxDl9M4/P1lOlVn2+bwXQOVxoroyPe7mcqt6Y5Tzck+Pc3JfnsvsqiuM/m9IHI8XSsLEtxLOV1nQi3k2cNx32HWS8/AKDA6WTTxfBEl/Jp+yh82g7uSbGd/Nxy/qqa/FlxjUzCB6ZVXRBpV+Nzr2Y4rfA1r48ocyJu+sK8VZLGg0NLfnxnSq23GJds+uySYZksP2xpfZ0Vt/4q0vg3Nd8eUusrnfXf6ysPlsTethL19h2+Ojajn0Dq87vW+PfhHR8J7x4riV3I+yJuegnv8sglHSs7pTiWHmI9j7Cn7eAgw3Efr4wFAERHJ5qdlQ1GJ7mO1ssPP2hbuDPFtnKM9Tyqedm7ZNM7OZI+/FT/7fKqixS1PkAxxTTPK4nd1bEm4kZwXlXTuUuS+bi/xmfDeUn60xP9t0YJvr9JXWuA3NF62qlk09cK90nxb7rFfX6HJJ87p+R/DyGNMhOqtte9sqjD6yWxi5QJ306k/39rZVjcdL14Q4SOlW1SHEsPsJ5H+EHbQn+jsd+qgFfGAgCiEqR+9kGUMW9a4QdtC39Nsa00sp7HkJqYbZTucY1N5Lekl8TuCrlO6R1xcxg+N6NZgunvFfe58EGMyW7bPy7Jd/866johO1pHgxOstwFJPhve1fRe3Gc7JPjcycrHEW+34c9jwp/VHJ2DGm0fV6fwJypmP6GLF/51PMWxtM4XflBYtC1cbjj++7v18gMACpROMnONTm4jrZcd/ghSP9X9QOt5rCm8CBDXYN2Sw2mHf2X/s9KjZNPf/7vKWOWQuOl2SfC58E0UO8Z97pxaLp7wBgdPlSR//svoBJ8N705anOCzh8V97uEIL2qMUFrkcpuq2vfG1JiHz5V9cjX9dOhY+UyKY+lu1vMIf2h7+NpoDPiF9bIDAAqQTjDXGF69v9F6+eEPbQ83p9he9rWex3hqbK4o+fErLB8wmo/wLQ5tlMkRNJElNaaT6KcnYcK7OcJXyTaq+tyfavm+8CGnSd8oAxtaJy/Vss7m1vjcLcpHST73Ro3PhXd3jKzlO+uS+cqHyq0lSX46EnGNwruYJtWYn3dK0nxQby7pWPlUimPpJq+5RvEKUj/gO8qca738APD/2TsPMCmqpQ3/6r1XBQEFVFBYEROiKOasgAKKGQzgmBCzKKgEEQNJEAMKKooBEMSAKLiSkbiw5JzZhSUveYHZWbzX1vm/Y/fiMHQ4Hatntt7n+Z57XTqcOl1dfaqm+xwmzcDDZRrRQ00sT3Y0tf1MeIA/NLfwmZOp26iHlvTnJCQ9vUPQpisi6nwaK1wkk4l6NeHYH1ps+wM022Kb7RB/nhYScC0+lvCBXhHzSW/FvCxVtOPVsNjWjoQ/iWWKTyTuI2HTpoR2vUPZHjMQK3tYxNLAi0NMeFHUedh+JxoLDqe2n2EYhkkj8GCpSVi1t1x2kClZwCcetvCZ0P7qiGSnLDQiIfkZFZZfdtGOiyLq5zTLXCaabbTjHQet8yBxFW++mK7GwvgL+v8Y6BePChHPaseslFQIsKuiiPrZU7MQ3UP1oX1a+8T/hnouGcTKThax9BjqNjLhAj7xJdFY8E+oErX9DMMwTJqAh8qnhAWOi6ntZ8IFfCJi4TOhSHbM0H5pLp6XQCyrehp1mxKJqMu3tonoTyQpowe141ykJaJeJMZtqPulJIJ+rwYt9OgaZmrHFBPwznewv3ijR7xFcqtRe3OqVyKZgwdteimhnaIYVJmiHXZArOxoFkup28eED/jFpYTjwS7U9jMMwzBpAB4opRR1mS6Kh9kSavuZ8AG/uN/Cb/5D3UYZkACdFPnnV/Fd0NXUbdID7ToTeieiP1GkmRpp+18D7fcoQRaTpZam7pOSAvr6JmivR9dueMJxR9vcdzzURKbNOdUrnQn9AgVW6ETbBibcxw8GdV63IFa2NYmjCnX7mHAC31hJNCYUE90fSW0/wzAMk+LgYfIkYbW+JbX9TPiAXzRJhwJHMUiI6kb+mQND/DpdlrpNekTUT05e1ZI42cS0qbavKJJ4tfyn6KtTqPsj3UEfP+/R9RJqrx1TfKI1zcZ+ogB4kd2251Sv9CP0G1TK+575B7Tthsg/8+r0jBBMaOoG8Yw1iaMHqNvHhBP4RmvCceEd1PYzDMMwKQ4eJvMJH2THW7eQKWnAL+6y8JuK1G10ApKjlhF19YdcyJfX7JHwZUDvuzkG2nYs1AJaIJmkNknY16ulQDdGkpYZZbwDfdvdo+skPr+6WDum+CwlW2If8bZPHzfXFz5+ORSHlkO+TDqM9nXQ2vsddLYf5/AbxfxtuH3U7WPCCXyjAuG48Fdq+xmGYZgUBg+SiwkfYkOo7WfCCXzjGgvfKUfdRqcgUToeusqPYyPR61Kc9Hl1zIj6+ckQiaT1oYR9zoUmepA8F0R4hRXPQZ9+7cG1EUWKtgnHLB+xXgp2Q0R9a8STty7g56M0f98CXeDFMRNBOytHUnwZY8TKu03i6P+gf1O3kQkn8I0ficaGYrLR0M9vwzAMw4QUPEQ+Iyxw1KO2nwkn8I0LLHzH19fSUw0kd3dAa7RkT6ib1+dAolcF+gAqNElgWyftczM0z2UivTtVfz0PI+jLTz0oboj5Wk5IOGbVyKHLIydLTGDaFPL023r4+e0JPi/0pJfHTwcQK2+ziKW8RDujC3zjFsLx4WvU9jMMwzApCB4gx0JRoofXWmr7mfAC/zjXwn/+Rd3GMICE7kTo56QkT+hMv86JJLUC9Hbkn6Uyk9VXZ587oDFJb2aIFSnqQPdAky0SarHUaFW/bCopaNfNrJ9jUA/oRk2JE4Wu0vY/NemY10XUz670jjcdusVPm+Drc5N8X0w+2trvuTlSBcTKBmaxlLp9TLiBj2whGiOuo7adYRiGSUEU65UquDrPkAD/OJMH5eYggbsL2q1T3JgYxPkj6nwLj0FZOomt+DzlRJvHexI6YJJ8r4HK+2VPuoO+a2tR3Jhpt4iE7R/VOY5YkUXMrxHI8t/w94jOPSC0FKoWRBvCDOJlXZNY+id1+5hwAx95i3CcWJfafoZhGCbFwMNjBNFD6y+IV0hgDIF/nGbiP79Tt48aJG79DJI6oUeCbg+S2ZrizY2kRFe84WGrLdj+PGi9SRI+xScT0pqIuhSsWXGjNyT9VpQoXkXU5XwTj7FCK3gd46ctesDntxncCwVQKJdmDgrFfD4jXkWFMQU+Up2wwPENtf0MwzBMCoEHRxnCh9Zv1PYz4UYUwEz8Zz91+6hAsnYClG1S3DgAHUfVPiS3J0fUZWYT591oZPMY5bVPG4yS8Zf9an86ol0Ts2V/bRfEIuqcGsXzowwSBRQ/2i4LfL6rxT1xI2X7KEG8vIxjKeMG+MlMorHiAYjsecYwDMOkGHhoNCMscDxIbT8TbuAjJ5r4zy7q9lEgChfQfJNETuhn6nZ6BZLmoSZJ+Q3U7UsV0FfjDPpwP3VhwivEnDMW90WRH6uspAKIlxeaxNLd1O1jwg/85BnC8eK91PYzDMMwKYJCt/yXmNT0WGr7mXADHznBxIe2UrePAiRofSySOKHm1O30CiTfR0ADDZLzjRDHEQvE2xkG/Sfe6KhF3T4vge8vtLg3NpbEiUcRL2uYxNJ86vYx4Qd+cjxhgeNbavsZhmGYFEBRV08pInpYDaK2nwk/8JPSJj5U4lbgQWJWVqK4IZR2c9sgEe9ukKR3p25bmEH/nGDwaYpYkca3VXaogO+/LnF/dKFuZ9Ao5vMZbaRuH5MawFd+IRozirHqf6jtZxiGYUIOHhaNCavxDantZ8KPGNCY+NBK6vYFDRKzhyWSt83U7fQLJOTtDYoc51C3Laygb77Q6a88qAp12/xATCYqcY/EoDLUbQ0SxMvKJrE0h7p9TGoAX7mPcNxoax4nhmEYpgSCh8U3RA+p7dS2M6mDiR8toG5b0CAp+0YiefuFup1+gsT8eZ2EfRh1u8II+uVcnb7KhdLuDZ9EcA9EJe6T56jbGSSK+ecFS6nbx6QGivrm736isePn1PYzDMMwIQcPi71ED6kPqW1nUgf4y38N/GgmdduCBknZVInE7SPqdvoNEvSWSUn7X1BN2f1jBXlVoe+hlPkVH229G3rYzj46E7TmQJX8amNYwD0wS+I+GUjdziDRElMuFjOugb8MIho77qC2nWEYhgkxeFA0JHpACV1JbT+TOijqhLR6fjSZum1Bg6RsmpfzCyBhvgV63M82+4VOkeNjO/vD7plQPnSuX230CrTxcigOXSi7D/qjYlL/rEzV4gbsvszO9rgHvpe4T370q71hxeSZXOKKxYxz4C+NCMeP11DbzzAMw4QUPCQ+I3o4baC2nUkt4DO7DXxpDHXbggZJ2XcSiZtloo+E8URoqpY0C70XRPu9Bgn7vdABLYGfa2df2Nxas30TVNGvNroFbaugtdHWr5foj0YJxY1JUDm/2ugnsPtj7Tqthi6W2Qf3wHiJ++Rtv9seNhAzfzeIpVOo28akFvCZPURjyHeobWcYhmFCCh4SW4keTj2obWdSC/jMFgNf+pm6bUGDpKyTROI2yuwYSBLPhDYkFDeKVS8oO7wEifvpUCfoVjv7wd5TEmwP7dtAaNsvWhs/s7Mf+qMU9AaUsksGw+ZHdfz0Cav9cA/kStwnDwRhQ5hAzCwwiKXjqNvGpBbwmS+IxpAlbnJxhmEYRgI8IGoTPZiELqC2n0kt4DN5Br40hLptQYOk7C6JxG2f0f5IDmtDu3WSRqGtUNkg7aEG9mYn2P8ydXuSQZuaJbSvMXV7ggT2ngpFDXzVsFAO/68gcY8InRGkPWHApFic1hMTM94Dn6lHOI6sRm0/wzAMEzLwcHiN6KG0htp2JvWA36wy8KcvqdsWNEjKKkomb4cVEpEUngHtNUgYizWYwi4qYG+7JPtPN9iulHibwONzHwc9ZPLvlaGChLal5CcmToG9Ey18tavefvD9phL3x6ag7QkDiJnrDGLpUOq2MamHQveZSktq2xmGYZiQgYfDHKKHUon75plxD/xmgYE/9aFuGwVIztZIJHAdE/dBMlgaWmGRMBbrJirbgga2Vkuy/VuD7fpr//6Uh+fuqx3zBYN/H5PQrklenTcVgL3NJX31/uR9Jeep+ZrCLmoQM5cZxNKB1G1jUg/4TX+iseRYatsZhmGYEIEHQwWiB5KQrZnwGUYAv5lp4E8pOZ9LpFaVqm72R3L2mUQCNy9xHySC30kmjEJr3VmYWsDeWUn2X5f078cl/Ntyj85Z1uyY+NvDSW0qMb9YwtZKEm8aFasIOvi2Evz+GGi/xP3xoNP24f4tCx3njbXBgpg51yCWfkrdNib1gN/cRjSWFJPllqa2n2EYhgkJeCg8RvRAyqe2nUlN4DuTDHyqo/Xe4QPJ0ZvQB073R3LWRPIzlfPE9uIzCBvFjdDOR+EXsLVNku05Sf/eIOnfq3hwzluMjon/XxHal/TvJ7o9Z6oAW3+w6au50LFiX8nPU4QcrZqjTWibB6VkcoWYOdUglvaibhuTesBv/gMVEY0p76C2n2EYhgkJeCj8RPQw6k1tO5OawHdGGfhUK+q2OQHJURVt6c7WTva3MYni30UUJH/bHBQ4RIJd3lvLwwnsPE3H/k4J/94l6d90Pymxec5Pk475WMK/fZ70byVmOWTYWs+Brwp1EfvD58dJ3BeLnbRNe3MjF7JchjmsmMTSbtRtY1IT+M5QojElv3XEMAzD/P0gOgqKET2M6lLbz6Qm8J1hBj6VsstfIknqqBU5bnSyP5K0qRKJ3O9bWrWo5TBhFCoxc+bA1iwd++uKNwN0CkQLXZ6rTOzwlWxWaf9WTqcdJenzlMUOfXUa/P0aycKfo0/bcK/+BuVDZby2OygQM783iKUdqNvGpCbwnQjRmHIDte0MwzBMCMAD4XqiB9E+UVyhtp9JTeA7Xxv41T3UbXMDEqWV0B7I9nKVSNKaSyZzPyP56+Ywafwdqu6H7WEDdj6nY/8BaIJB39zr4lzJb4QcfFMjpn5ukfz3ah6aGloMroGs7oOvL5W8J2zPBYV79H2tIHmXH7YHBWLmFwaxNCXfhmPoge+UgxSiseXZ1PYzDMMwxOBh8BbRQ2gAte1M6gL/+dTAr+pTt80OSI7uhI5N+O9LtaRphd1JC5GklYH+J5nQNUQCONth4jgkps1vkM7E1Ikt/7LRL1uhsg7Oczb0XxvnWeKHvWFC6xNha6FDHx0FH+8geS+ss9s+3Jv3a/fpkKS/Xw9V9q4n/Acx832DWPo4dduY1AX+M4FobFli3m5jGIZhDMDDYBHRQ6gJte1M6gL/ec/Ary6hbpsdkAw9qb3ifmPC397Tkqfhdo+HZG2UZFK3qWDqrxfEDp+40o7EahXiM44+0PNQfehMb3uIFtgzyWaffGfz+MdAi2yeo71f9gYNbKkMXQu1gHrG1DdWdrrwSaEVmx5uXBs+/l/Je+E1O23GfXkhVATthE5K+PvX0HrPO8lnEDPfMIilhy23yzCyiEID0dhyFLXtDMMwDCF4EFQkegCJVxdLUdvPpC7wn84GvpVyCTaSoiVaQePxhL+N1v5mK/lCstZCMqkTEm9iNHSZTFppOfQ99DrUHKoTS6G3P9DWFxzY/J6N449ycPzT/LTZa2LqhK0PQG9BA7UixnKtQOa1v+3bmz32fPj2Ahv3QTVZW3A/VhBFDO3evEH7WyVodqp+roKY+YJBLL2Num1M6gL/qUw0vhTLxR5NbT/DMAxDBB4CDxM9gCZQ286kNvChNga+dQJ12+yCpKiOlhwdXEVF/DIMbdP+dqvssZCsHW/jMxWhd5EURnwucuhpYkydByTUS52ifRkO7TMtcsTUNzeGOTjusqBsdwraWBv6BMqOuXtDyLYKt626AT49xob/T7FjG+7Fydo9+Zb232L1oxztb+N96VCfUYwnhLyBum1MagMfyiYaY95EbTvDMAxDBB4CXxE9fF6ktp1JbeBDT+n41V/QEdRtcwKSo48SihzdtL9drv13IVRD9lhI2r63keAJdURy+CxBkUOoAKrlX8+6B+2b49C2n6DDVtfA306FZjk8Zk+KPpAF7XuYyI+EboEvD7Xp+w/K2pZwj/6q/fd5CUVIMTFwFf961j8QM282eE7Xpm4bk9rAh9oRjTFDHScZhmEYH8FDYA3Rw+d8atuZ1AY+dJ+OX22mbpcbkCDNTyhyfKv9rb3232ugcjLHQdJ2s80kT6gHEsQ7Y84ndXQjW/NWBA3a196FbeuhyxOO1Vgr6jg93uVmbaUG7VtF4D9bo+sXXwkfHm3T5/dBUq+y495rrt2HYr6cE6BroH0J92tKTW6cCOLmxQbP6QzqtjGpDXzoAqIxpqtluxmGYZgUBQ+AE4kePCmdhDLhAH7UUMe35lG3yw1IkqpD0YSkSbwOXzbhtfjsxBVXzEDitsNBkWPovgWTr0TCuC7gBHVcQrsfgQZAoXmrA+2r4YGN02LOV605WCyh7otEcI0qQ59pvtNG/A1t3Biw78zI7/TyBTj/dAf+LvUrL+652xPuyXpQA22S0eK/9fO3p/1FMZ4rwfaKQAyTDPwon2isWYHadoZhGCZgEPybED10+lPbzqQ+8KPLdXzL9qojYQPJ0n0JiVNcm7ywuvYGh/jvkTLHQfLWy0HCJ5SzoUnDK5A4/hhgktpHa3PnpLZ8C53qb4/LIVH0EautuHkzY23MejWV3tT9UAyuS9eka1UEZcTsrzrjVGL53rdzz6vWAOfd6dDXT7ayE/fbdQn3oljxqEnS/bkSSukJsxE3j4T+SIqlf1K3i0kP4EuDiMaaKTfhL8MwDOMSBP/eRA+dptS2M6kP/Kiajm+9T90uLxArpyQlUbOgRsmfr5iB5K2Gw6RP6AAkJh59DIoGkKzWx/meM2jLbujqIPrdDLTxQ5P2z9W2udtFH5wDVYiZL5FK/hmEKDhBcw2ulShutA3AXzZD9XC+N134eF8rW3GfXZbwRlUmdE/SfbkJOj2IfvcbxM51SbF0C3WbmPQAvvQQ0VgzLcYDDMMwjA0Q/BcSPXTKU9vOpD7wo2N0fOsJ6nZ5hZhoNCmZWgV9nfDfw6yOgSQu00UCKPRNfrf2FyOZHOFjspqD8zwo0ZY3guh3I9DOm0xsuDphu2kO+uDDhP2NJnstorH8H3ANLsqx+PRpfcNrO6GtB3z0l77rb697Nc411aVvVzOzFffX1dB+7V4TE4m+l3Q/bhZvVgXU9b6D2DkhKZbOpW4Tkx7AlyoRjTXnUNvOMAzDBAgC/3HQnwQPnJSeI4EJF/CngiT/qkndJi9BAvVsUlKVrHFmr8cjiavpMgksVo99C6dchuRypNcJ667v+r1vox0/BNn/yYgig44NU5O2uchmH+yHKiQdY4vOdqODtfZQ0PfVof0y12nvjNGDfShs9N/x+fuX4PhDPPDnj81sxT1VF4qZ3HdzoVOC6vsgQOx8KymW/kLdJiZ9gD8tIxhvijHuMdS2MwzDMAGBoH8rUUW9O7XtTPoAf1qQ4Fv7qdvjB9ovyXtMkq2pZhOPIpnr7VGRYzN0LxJNMT/HAGify4Q1tnf2+K9y1Lkb7LSD7E0OtHmcjh136mw3wEY/tNfZ/xWd7V4Ixkp9bL4xUbRv0RQv5uLYBL27d9Z4MYmo+ISp0AM/FkWak4zsxL10s0VRcWCA3R4YiJ8Nkp7VvajbxKQP8KcPiMacN1LbzjAMwwQEgn4PoofN9dS2M+kD/OnbBN9K218ctUlGf9VelddLuqZDx+nti2SuNLTSoyKHkFhacwD0+M5v+rYq3LK8A5LQz6EJ0BQLfQt12Ttj9PtrL64x2OH5M4Pu/2LQ9jeSEvCowXaVoD0SCfwyg/3P0Nn2Qn+tMwZ9fr2Ta5V345Wjdo8Y9CDaLnzkFwn/GAP1iq5b+NL2D7s+i2O8AP2Uo84J45X/Pm1kJ+6hO0wKG3Og54Ps9yBB/DxCOXTZ+LT53I+hB/50C9GY801q2xmGYZiAQNCfTvCgKYSOoradSR/gT48n+Fcj6vYEAZKslw0SsJlGn6sgqTvLo1+/zX4VXwfNhKaYaJ4H53ot6D4vBsl3o6Sig+GqPTrbJmsbdLbJ/nlJ25fxxypr0OcPubxmy5P8YBj0LtQpQWK52cnQdh/9NMvIRtw7t5l8jkJWXAoSxNCXE+Jpber2MOkD/Olo5fCVeoLQOOvWMQzDMGkBUSU95ZfwZMKFok40ugpaAh1B3Z6gQML1gUEyNhHS/eYYyV0THxPHoCQ+Z6kYdH8XEyvIq5hUdDD9XAb/XhlqCXVKUjOotMW+wxPOM81bS+yBPr84BNferbZBlfXswz1zk8mbG4afs6QbiKHHQ/ugMdRtYdIP5fCJbINQWn66yjAMwySBgH8NUYEjbV/vZeiAX50iRN2OIEHS1dQkIRtltB8SvD4hSDTdqFmQ/axHrCDvk4TCw2M+nidxWdp6fp1HFvT9phBcf6f6H3S5nl24X641uZfygu5nahBLz4HKUreDST/gVx2Jxp7nUdvOMAzD+AyCfRuih0xarXDBMFQg8epoMRFif6N9kehlhyDhdKJng+xjI2IFeSdA47XCQ8TH83TVztHZr3PYAf3fIAQ+4FQt9GzCfXIutNfiXjKcwJdhGHkwBryKaOzpWyGaYRiGCQkI9kMJHjDbqe1mmHQACVc1iaRMSDcxRrJ3PLQsBEmnrP6EQjdAjRXk9YZu8PH4z0NP+XV8J+A6NIR2hcAn7Kivni24P06FtkrcR7r7MwxjD4wD/wUdIBh/fkptO8MwDOMzCPbrCR4w31HbzTCpDBKtstArUEwiKSvW/XrHQtJ3MpQXguTTSmLCSV55KUTgelSD5ofAN2RkOHcJ7o2FNu4jsRTzdUH2M8OkIxgLjiUYf86ntpthGIbxEQT6kwgeLkK85BzjOfCrJtCL1O3wCyRVZ0N3Q4OhQhsJWbFEMUT30zAkf1WhjSFIQo20CqoSdJ8zcuDavBYCHzGTWLFHd+lk3BMDHdxLca0o8hp0FUQ22a3fIKZ2hh6gbgeTfsCvOlCMQantZhiGYXwEgf5OogLHOdS2M+kH/GqO5l93UrfFLkiQqkBPQp9AY6ApmsSvxWsdJmB6yjWaRwAJ4OlQfgiS0WR9C5UL+pow9sA1qpUTzjeBFkDl9dqMeyHi4b21H5qdcO8K/QB1gm4M+np4AWLpq1pMXULdFib9UOgmub+K2naGYRjGJxDk3yZ4sPD8G4wvwLf2aD42krotMiDpuQL6EFrjYZIlo/eN2iTekoCWhCApFdoJ3RXkNWHcId6SgH4Ige8UawpURq+tuA9OhvYFeN8d0IqXT0MpUbBDLF2nxdTd1G1h0g+Fbh6OtH3Tk2EYpsSDID+N4MHyDbXdTHqS4GM7qNtiBBKbS6Gu0PKAixrJqmvURi1JHU2cmA6GKgR5bRjvyFFXWZlD7EMfmbUR98BvxPfgL1CzsBY7EEdLJ8TUIur2MOkJfOs3gnHoD9R2MwzDMD6BIB8jeLCEbgUEJj1I8rMTqNtTDBKY26HPoc3ECVWiFlu1GwliF4KkNAeqE8BlYQIA17IFVBCwD+3NsXjzB/5/VwjuwUSJz1naQtUCujSWIIZeywUOxm/gW68TjEPXUdvNMAzD+AAC/HkEDxUh3UkOGcYNivqqa6Kfka62gUSlOtQxIrf0JJUutrIDieLNOeqnIkEkpt2CuDZMsOC6VoS+zFGX+PXbh8RktGdYtSmifipCff8ZaQREPo8QYuhzCfF0L3V7mPQEvnUT0Vi0FLXtDMMwjMcguD9I8EApoLabSV+SfO3JoM+PpKQ0dH9EnWiQOkmykpgQsbqMXUgYy0CdoG0+JKT7oPegqn5fH4YWXOOa0I8+FTaKND/SXSklmYjzlVOCvkf7Quf5fW30QAztmxBPt1K0gUl/4FtliQocvOQ4wzBMuoHg/gHBA2UKtd1M+gL/+j3B1z4I8txIQlpAq0OQFMlIrOxQ24mdOepKK3dBnXPUySTnQwdsJKJ7oNnQEOiFHIMJIJn0Bde8HPSoVjQTmgntsOFDYlUUMXnoeK2o0Vi2sJEI7oFWkeAn+HWqIdCpflwPI8TzOiGergny3EzJAv61lGA82oraboZhGMZjENynEjxQPqa2m0lf4F8FCb42mqINSEJOgG6OqJ+nfAvNhwqJkyMx98fPUGtId7lMtyDBPBW6BqpjoPOh0n6cm5pYQd5x0PXQi1AnTS9D9aDD5oKJZmacAg2HhkHlko71b+1/z4fqaKoNHRGUPSUN3BM3RNTVjMLw5tVGaAL0AfSE00KkFyCGbk2Ip/Oo2sGkP/CvfgTj0YHUdjMMwzAegsB+JFRE8EB5htp2Jn2Bf21I8LVc6vYkgkSlClQHeghqD/WBfoKyoU0eJEa7oaURdW4BMaHpK1BD6ERq29ORWEFeBagLtASKW2gO1AqqKPaNZmbMhOKaMrXjnQ69Ce01OMYe6GvoAegkWuvTG9wzF0KPQD2g76HpUJ4H96hYknYFND6ifiLTDXoOujuirq50DLXtxSB+Hpv07J5I3SYmfYF/tSQYjy6ltpthGIbxEAT2GgQPE6FrqG1n0hf414IkfzuKuk12QIJzCnQZdKtWCBGv0L8BdUqQWGnhUa14IZIinrsiYGIFeTdD2wwKEQegLKiXeJOjcGWfgYWznxxfmP3wlOj4K6dFMzN2JRQ3irUhOvnmLLFN4eynx4l9tLdAPoHmQYrOeQZDfO0DJqK+oVUDuh66F3oWej3pHhXFxSehe6C62vYpNaGhcvgk5JnUbWLSF/hXHaIx6bHUtjMMwzAegaDejOhhwt/bM74B/xqf5G/nUreJSR9iBXn/gXobFDbWQy2hv3+Fj2ZmXAmt0ClmyGopdKl23vJQd2hf0jn/gD6DAp2bgUl/EDsbJ8XSb6nbxKQv8K+TiMakV1DbzjAMw3gEgno3ggfJJmq7mfQGPjY4yecaU7eJSQ9iBXn/gsYYFDdGQ0cXbxvNzKgLFbkobhQrCl2d0IZToOU65y+ArtZvOcPYB7GzY1Is7UvdJia9gY/tIRiXPkttN8MwDOMRCOo/EzxIfqO2m0lv4GMfJflcN+o2MelBrCBvoEFx433oyOLtxFsX0O8eFDcSixw1E9pRFpqi045CqBZN7zDpBmLniKRY2oW6TUx6Ax/LJhiXfkVtN8MwDOMRCOorCB4kvIIK4yvwsc5JPjeKuk1M6hMryHvGoLjRMnG7aGZGFWinh8WNYm2ETkhoz1HQNzrt2SwmPw2+h5h0A7EzPymWtrTei2GcAx8bSDAuXUhtN8MwDOMRBA8RoReo7WbSG/jYc0k+t5e6TUxqEyvIawj9qVNMeC5xu2hmxr+gOaaFilFnxwtzB8ULZzY/+LfCBe3jhav6yhQ5pkJHJLXtM512jQm2h5h0A3Gzis7z+x7qdjHpjXL4Z1GBiNpuhmEYxgMQ0GsTFTgaUdvOpDdiEK7jd2dQtytoIrWqnA5dBd0FPQG9mrTKQ6Le0La5CTqbuu2JoD1XQMdTnT9WkFdZZ2JPoR7J20YzM961Km7ENvx68BjRifXihTMiB/+7MGeATJGjfVL7joR+0mnf88H10uHgmtWCKlO2IRG05SRtdSKxqsnLJveC0ItQRLsfLiiJyywbxFGe44XxFfhYU6KxaYkbIzAMw6QdCt0KKmdS286kN/Cxa3T8rjl1u/wGSVg9qBe0GIp7oO3QLOgn6F2otbZ07UVimUyfbCgNXQO1gUZDi7S2kM0rYTCp6ODk7aKZGddYFScKl/U89DgbRsZjW6cf8rfCuc9bFTj+gM5LauPRUHZSG2OUK6vgmg3Rrt0UqLe2nGp1H89XDbpBWz5ZFOz6QxOg1VCRB/dDFPoVeqEkLMuMmPmhThzNoG4Xk97Axy4lGpveSm07wzAM4xIE87cIHiAKdBS17Ux6IwbhOr43iLpdfoBE6xSoC5TvUVHDjvZAE7WiivjFu6mWYJ4NlTJpcwVtG/F2yYPQW9AvUK7BeWYF2aeJxArybtcpbohCwr8Tt4tmZhwDrTctTEyqrzd/x+HauTQeHXOBVZFjgc6nKhWhjUnHGxpsj/0Drltdk0JBFtRPK5rdrBXNTIsG+PfK0CVQI+hx6DWtiLKQwPfjWvHkzqD6M2gQM+clx1HqNjHpD/zsBKICRxtq2xmGYRiXIJgPJ3iA5FLbzZQMdHxvP3WbvCSivv7/HVFiF7Qeoehj7dOPVUkFg/3ik5XkbaOZGR9Zvb0R2zJJrsAh/6lKK502Xw79lXQ8sl8mI+rbE9T+47c2QC9Bx1L1s9cgXp7Oz2+GCvjaPoLx6RfUdjMMwzAuQTBfRfAAGU1tN1MygK9t1PG/lP9MBUlUVWhYCJK6oEQ2WWasIO8BneLDU8nbSX2asrCDdHHjYJEj+2GrAkcRdJpOu/slHWsrVC6YXjuUiDp/CrUPBaUd0HPWvRJ+ECvf14mfE6jbxZQM4GuzCcan06jtZhiGYVyAQH6Uon4uEvQDpDe17UzJAL42Vcf/llO3yw1InppBhSFI5ILSbOg4ir6OFeQdAS3TKTxUTN42mpmRZ1qIGFs7Htu90naBI7Z9Xjw68kyrIsdEnbZfr3O8d4LpucOJqJPcUvtSkJoGnUTV325BnCwPFerEz37UbWNKBvC1IQTj03xquxmGYRgXIJCfTfDwEEqLX7eY8ANfG2Dgg3dTt80JSJjujKhzFwyNHLraQ3foe2h+CBI7LzUJInnrQBAryKuhUyQYkbxdNDOjo+XbG6u/sF/cKH6LY9HrMp+q3JXU9n/pfFrzB1QtsA5MIqJOMBoNgV95pf3QeOizpPuxJzQXWkTV125BjOxiEDvbUreNKRnA194kGqOSFNQZhmEYD0AQv53o4dGA2namZABfe93AB1M28bACSVUZ6D5oTggSQKcSb6i0pu7LaGbGsdDNhVn3Dimc3nRMdHLDt6Njah02+MU2e0yLD+MudVzcUN/iWCBT4DjMp9HuE6JTb+9TOOOB8YWznx5XuKL3QByvbjC9p09EXbZ4Wgh8zKnESix9odqU/egniI/HQ1GD2NmYun1MyQC+9iDRGDVt722GYZi0B0H8JaKHx2HfizOMH8DX7jHxw3up2+c3SMKeDkFCaLew8TZUnrrvopkZt0NRnULCm0nb3W/59sbSt90VOMRbHLNayBQ5LkpqW67ONluhmsH25uFE1OWMs0Lgc3aUDZEtuRsUiI3vmsTNs6nbx5QM4GuXE41R76G2nWEYhnEIgvgnBA+O36ntZlIfRf286kyJ7WqY+OL6AJpKDhKySAgSQyuthd4MQ2FDEM3MOAc6YFBE+CBp2yFWhYfYjgXuCxxrh8gUON5IaNeZJtuJ+UIMl/ANElzzm6CfoQMh8EMzraTuqyBAXDzLJGYWSh7jUihl5x9hwgF8qCxRgeMVatsZhmEYhyCIjyV4cCyltptJXeA/pZR/ZvbfCVWy2P5IKGbij+2CajslEXXODuoEsVhboOnQYOgVqBZ1/ySD5P9Xk+LA/KRtt5gWHcZf6bq4YeMzld8S2nWnxbY9g+9ZY+AHpSPqHB29oDHQCigWAn8t1qXUfRQEiImZJvFyksT+9bVt90MkSzsz6YP2nA96nMpLxTIMw6QqCOI5BA+OwyboYxgZ4Du1oNwkf+oksd9IE3/cB4XirQE/QXJWOaJOiOg0udsOLYKmaJoM/QR9AnWOHDrBYrE6Qk9G1NUzroQyqPtBBiT+V0kUEu7Stj3O8vOU6fd5U+CAoqPOtmrXhgQ7hknYcQpdT8sBvykPnR9R3/R4EHrJwN+EeiT8/94RtbA3NcFvl0K7HPj/R9T9EASIhVdaPL+7SBxjTNI+omBSNoj2M+mHQrNUrGUhj2EYhgkhCt0SsR9Yt45hDkVRJ8TVW7Jwh8S+EQuf7BOEDdRoRYb1CUmbWH51okjetISwvfYL+qWRFF7e0i1I+idLFAY2QsdAFS0LHHOe9a7AMf5yq3bt1Gw4W8IGoQ+p+5sK+PhZ0I3QU5r/d9H+V6xGtC3hPvmMuq1BgDh4BLTYIlZeYnEMo89bVio89xbjAPjNUIJx6iZquxmGYRgHIIBXJ3hoCD1PbTuTWsBnnoH+MvGpBy32Pxraa7K/KPSRT7rI0IOEv41kYUDoHW0f8wLHgle8K3BMrGPVpmVam7Js2FGftteZMIAY+LTFs3u5xDF6m+y/Q+HVKRibwGd6Eo1Vj6a2nWEYhrGJ8s93skGrEbXtTGoAX/kP9LmET82SONZ7bo/BBEukVpVy0G3Q6+ITBTfHQhJ/EdQO6pSkF6F6UMRGQSBRD0OzTAsci9/0rsAxqb5Ve76Aeti0oRDqBt0mih0G/dQKOsPl9WwBvQhdZL01EySIf5WgPRYx8iGLY4j5kfZbHEPMh/RoQGYxaQD85Smisep51LYzDMMwNiF8aJxLbTsTfuAnx0PZNvzqcovjVZY4Rueg7GP+QStkNIBaQu9D46CNOvMgPGfnuFF1FZFR0H6HxQtZ7TYtcCzpGmSBI8dnW7dDgyDpeWu0+V/m6FxP8bdvoNegZpEQTjZbUkDs+8kiNuZIHKOljXjdPwi7mNQHvlKXaKx6G7XtDMMwjE0QvLsTPTSOpbadCTfwkZMU9ZttO371o8Rx+1kc40/osiBsLKkgiS0LNYK6QkOgeTYne5R6kwMJ+INR42VeA1Xhkm4eFjhuJLdH0w7oeslrPsjG9d0JjYyok9e+AF3ozuMYKxDzmknE18ctjiFWq1pnM2b/qvBnAIwF8JFTicaqLaltZxiGYWyC4P0NwQNjJ7XdTLiBj1SD1jr0L9NJ7MS/SxxjdVC2lgSQoFbSJi4VE5kudrB6RbK+sTqneLsAmpKg2aQFjsWdPZyD4wbqwsb0hH4dJnH9Mzy45gVa0aMDdLU3nskIFPXTlAKLmLhB4jiNHcbsqVCZIGxlUhf4yO8E49V3qe1mGIZhbKINLIJ+YMymtpsJL/CPGoo6EZ1T/3pP4hyfShyHV/pxAZLQ47XPTeZ7kNzqqbLdNiEZvwAaSFLgWPSGdwWOCVdRFDXEHB3vQLaX+cW16uPD9S+E+kHX2G0PcyiIdRMk4qHp3BvacSa6iNsLlRKwVDfjHPjHfILx6g/UdjMMwzA2QfDO4wcGExbgG2dC+S79ax9UyuI8J0MHJI5VJyDT0wIkm6Whu7TPTvwoahRrP1TXaTuRpF8PbQ20wLGwg3cFjnGXBF3cWAyd5cIvfoKm+OgPK6C2EM/tZBPEuNYScXA5dITFcc7wYGwglqctF5TtTGoB3xhGMF7lH+QYhmFSCUVd7/4PggfG29S2M+FDUZcs3uyRj1kuQ4xtukgcZzt0UhD2pzJILMtAPaAil4lqFBoDvQ11gtpD90B1oOuhql61GQn7idDMwAoc89t4V+AYUyvI4sYQyLM5EnANL9Gu543a/94eUVdV+SrizedLkyGeQ0cCxLaLof9JxMEbJI71kUexexZ0XBD2M6mFYr0Kmh/Kp7abYRiGsYEit6KEH3qC2nYmXCjqN+DrPfSxXIlzloa2SRxrZhB9kKogmbwS2uBBYtop6LYjcf83NCKQAse81t4VOEadE1Rx47Wgrwn8oCa0zAN/EhOUHhN0+1MFRZ3EWaagPFLiWOUVuTfiZDUtiD5gUgvF3go9nonaboZhGMYGCNyXEBU4bqK2nQkP8IejoTk++FlziXM3lzwWz8ehAxLIdh5+YkD2qy0S+S99L3DMeda7AkdmtSCKG09TXQ/4wkMe+ZUolNSgsiPMKPLzb9WWOFYvH+L3wAC6gUkh4BO3EY1ZOYYwDMOkCgjaDYgeFmdS286EB8W/lXzEr5OWv+Bim2zJ490ZRH+kAhF1mdfRHiWhiZoTUedqmBBRlxXtrn2+IBLeBhH1kwYjXeXUHiTzR0Bf+VrgmNXCmwLHnjV+Fzb+gh5z4RsnW1ynulAT6Cmoo/amxQhoqXbtN3vsUzHoHqf2pCOIZT0kY95XEseq5uNY4bkg+oNJDeAP5xONWRtR284wDMNIgqB9P8XDgtpuJjwo8m9QOFUbiTbUkDxWFKoeRL+EGSSLZ0FrfShuOJFIhr+FnoFcLTPpd5GjcEbEmwLHziWhLW4k+Eht6F1oagh8pFhd3NqVDiCG3SIZ78Tne5YTfmKbIT7H8IuC6Bcm/CjqZ6UUBY6nqG1nGIZhJBFBm+BBsYXabiYcwBfKKO6Wg5XRXjEokmjL25LHWwJ5NuFiqoEk8VRoE3GiWtTp9irj5n1YtS+S8QlQvk6ivgUaD70EXSxrn1bkGORL8WDa3R4VOBb7WeCQnh8J214B9YRGQrk6x9oMTdoxNGPQ8PZVh7W4tMqqEBQ53nTm+ekBYleGFhNlYt2DEserFcCYYU4QfcOkBvCHPQTj1sDnImIYhmEcgqD9OsGDYha13Uw4sFFUcKs3JNpSSpGf5PTbIPonbCA5PD7ibPLHcVAp7Ri3QYU2918PDYVe1xLnSQ4S993Q/TJ2YrsjfSlyTLrJowLHUr+KGy0l+6c8NNzJOTZ9k/EgrmMkon6WMsmBLw2Hymu+VNdhkeNx53dB6qLFuCWSMe43yWP+GlAMf8jv/mFSA/jCMoJxax9quxmGYRhJELQ/JHhQDKW2m6FHG2zHAvK5Qqi8RJuusXHM1kH0U5iIqPNiOEkoeycdpxG00WBb8feREXXujUehC2XahuS5CnQJdDfUHRoF7dRJsr+HpCYz1bb1roAw7jKPChzL/ChuWBYBtT65Lqr/xsy4qPo2xwNR9c2O6jL9jOtbWvOHNtAAaK6JH40oLpRp+1Z0UCwrVgMZe9MJxKxhkrFtP3SqxPGuDnDcsDqIPmLCD3xhLMG49RtquxmGYRhJFP+/ndVTb+uWMekO/ODpgP3uQ8l2yU6+J9TY734KC0gIP3CYSCb+8n5N0jFPgW6IqBNPiv89wet2I8muCj0NbUxIxldClgkctjlKS9y9KSKMPt+bAseORV4XNz6V7Ms2Sfv9At0JHev+Sh0KfOHiyD+Tkl6c9G8ZEXWC0q0u/HEfdLbX7Q4riFXv2YhrUhOyYru5AcfwS/3uJyb8wA8GEoxbx1DbzTAMw0ii0FTCX6G2m6EHfpAVsN/9AZ3vQ9uu9LuvqEEieIvL4obeL/GXB20HEvEnoT1acr4eOl1in2OgLJ2iwFrbhYSRZ3hT4Ng2y2khY43O3wZL9t3ghH3mQrXcXxF7wGdehdZ46IdLgraBAsSoZ2zEM6kfILDdYwRjh25+9xUTfpTgPm1NFM8DwzAMkyqIoE3woOBvaUs4ijq5aNB+JzRTsn2VoV2SxxTbVfO5y8hAEnhcxL9JRXsFbY94cwNaqCXq4hMWy1+FxacW0MykwsCzUKHdIoMnBY4tk50UN0RB5s2kvw2RsL0MNCVhn6Gi6OPN1ZADfnIRlOOTD7YP0pagQWy61UZ8nC15zJOhAoL4zfN3McL/WhH4Xg613QzDMIwkCNq5BA+Km6jtZmiBD1xL4HfFelqyjTfbOOYKqKzf/UYBEsCuPiWWxZoCWS5F6SVa0p6tJewxyHI+Bq3IkZ2Q6P8AtbBd4Ni1wn2BY+MYJwWOK6HVCf89SMLmCtDihH0+8OYKyAPfuM9n/yuCTgzariBATLpAUecfkolh+6DTJI/7PVX89rvPmPADP2hK4Hu7qO1mGIZhJFFoltuqSW03Q4vN4oHXEgP+KpLt/MDGcbMhz+cioASJX/mI80kc7WhhxIf5N8xAsn48tCwhebecTwXblI4euoJLTehHWwWO7QtcFzgK836yW9xoB92T8N+Wc25gm5Oj6lwlxftITULqJRF1tZU/A/C/wAs3fiNiHLTNRvy6T/K4dt4I8UPVfO46JuTAB+pQ+B613QzDMIwkCNp/EjwoTqK2m6EFPnAJ8SB5uo22LrRx3NF+9lvQIPHrGUByWawFUJkg7UPSXg6alpDEN5fcr7io8S1UCloiXeDYOt19gSN3sJ3ixjCtzQu0/+4k2S8rEo4R+IpB8IUmARU3hP4bdIHNTxCHToDW2Ihbn0ketwK0gzh2n+d3/zHhBj5Qi8j3Slm3jmEYhiEFwbos0UPiCGrbGVrgA6WJB8lC3SXbWk1Rl02UPe7QdPFxJH3RAAscQlOhQN+C0d7KmJeQzLeV3G+Qtr1YnvZS6QLHpnHuCxyrPpMtbuyFKkI3av/9rIRd4vOd+cRvbng9qa2MOgRtpx8g9hyj2Jtba5HYR/LYw0MQt9PyU0BGHvjAKUS+V5nadoZhGMYCBOsMggfEbmq7mXCg0Kzgk6wbJNt6j83jfux3//kNEr7zCZJMoRlQoEmMVgTIs/vGArb7Dnpb+/+DZYoOheuHuy9wLH9PtsDxtNa2MTI2RdU5NxKLG5+761n74NrfTeR3o4K21Q8Qe8bYiFNR6CzJ4z4Rgng90u/+Y1IDIv87h9puhmEYxgJFnYAs6AfEGmq7mXAAX3gwBANm8bp1Vcn2fmbz2N9A//a7H/0kos6NQZFsis9VTg7SViTzNaADCcn9S5L7tYaOhapJFThyB7kvcCzuJFPcWKW1T7TrFgk7ThL7JOwvJiQNerWUJ4j8TahpkLZ6DWJNOWiWzRglO+/GZdD/QhCvr/e7H5nUAL5QROB/gS9tzjAMw9gEwfo6ggdENrXdTDiALxyr0ExymyzxirblZxGK+ur3fJvH/k3m2GEHyV9t6FHoDaiThXpq//s5NCmirpKy3UHCuRE6P0g7kdC/kFQkeMrm/qMsCxyrPnVf4Jj/skyBQ6pAo7U7ecLVP6BA+x7X+l0XxYklmp9NhAZAnSX8tE1E/RSmDiRV5AwrivrK/gqbsekTyWNXhXaGIE7P8bsfmdQB/rCJwAdvpLabYRiGsQDB+jaCB8RYaruZ8AB/6BaCgbPQd5LtrazYn2RvBnSc330ZdpBE1oBGOUheXw2ynUjsJycVCprZ2Pc2ywLHsp7uCxyzHrcqbvwOSX3mI97SgGYn7R/YvBu4vudC0x34RYtIwPO1hBFF/dR0g82YJAq1Um+XKfaLun6pvt99yaQOiv2CnhdqQm03wzAMYwGC9QMED4gfqO1mwgP84USF5lVTPbWUbPNlDo4tJv3jyfH+7++Edo6DZHZ5UG9zILk/TadgIJ1cYdstpgWOhR3dFziy7rUqcHxjo71jk/Zd7qzn7INr2tHhGxv3BNXGMIOYcg601WYs2qXIf5Y3JARxWWim333JpBbwidkEfii1yhbDMAxDCIL10wQPiMAnrWPCDXzi3RAMoItVR7LN9zo49mKogs/dGXqQnN7p4lOEJ4NoI5L8bklJfyF0seS+fUwLHHOecV3giE6sZ1XgkHrrBNsN0NnX9+/McR0rQFkOfWCZ3+1LBRR1Dq1dNmPQ79Clksd/PgTxuFhX+d2fTGoBn5hA4IetqO1mGIZhLECwbkfwgHif2m4mXMAnKkKxEAyihcRysOdJtrujg+OvhAKdPDOMIEnd4qLI0dHv9iHJLwVtTEr8d0HnSuxb17TAkdXEfYFj9PlmxY2/oHIS7Wyjs29fb3rQGFy/U6EcF9ffcqnbdAcx5AqowEH8aSx5/LtDEIuLNdzv/mRSD/jFCAJfTIulpBmGYdIahWb+gy7UdjPhA37xRggG0sXarEiud4/tPnZw/LXQqX73aZiJqJNAOk1whXxf8QLJfiOdAsBW8QmLxX5HQfsMCxATrnVX4Ni1wurtDcvJGKP6c4XshI73rgf10T43cnPtT/C7jWEGseNKqNBB3HlU8vhXQQdCEIeLdbrPXcqkIIq6SlnQvtiD2m6GYRjGAgTr3gQPiHbUdjPhA35xNLQuBIPpYonPSUpLtn2wg+Ovh870u1/DCpLUStBiF0lu9yDaiYR/hE4hYJnVBJ5iDgzjAkS1eKxgrfMCx4aRVgUO0yIy/v0iKKaz3zPe9t7haNfdyYo6xXrR7zaGGcSMhoqzOYuk+k3EJCUcK1sV622/+5RJTeAb/Qj8sQ+13QzDMIwFCNb9CR4QUhM5MiUP+Ea9EAyoEzVOst1HQcMdHH83VNvvfg0z4k2MiPVynsV6JKIu6Wn6BoWXIOk/z6CIMMpiv6fMihCxTeOdTzC6/H2rAsctJu2qAuXr7LPB+94zR7uWr0he+3bQ2UG3MUwgVkQgxUGceUXy+OJTwTAVmcVqVTwxM6MLfKMPgU8OoLabYRiGsQDBeijBA4JnoWYMUcIza3+x+tto+88Oji9eNb/dzz5l3IHkf5BBIcHwV3H8W03TeTiWdnde4Jje1KrAoZsURtV5RRYb7POEfz3IuAUxoqvD+NVJ8vjHQXNDEG8T9bDP3cqkMPCPngQ+OZTaboZhGMYCBOvRBA8I37+dZ1IX+EclaF8IBteJ6mej/U7e5BDiyctCivbWw/90igLib9ea7LfLsAgx/op4bI+Dz1TyZ8ajv1Y3K27kmbTnM4N91kFH+dN7jBsQF8oozidTlJrvSjsHxZKbZhrvd98yqQ18pDOBX5q+uccwDMOEAATr6QQPiLup7WbCDXzk1hAMsJP1FXSEZPszHZ5DJBk1/e5fxj7RzIwPDYoD2yHdSS8N5u/45y2OJV3sv70xo5nV2xu6vzBG9SdMLdaD/vYe4wRF/WRvg8NYIlvcKAvNCUF8TdQ2hZfTZiyAj7xG4JuTqe1mGIZhLECwXkTwgGhEbTcTfuAn74VgoJ2sjyTb/h9ojMNz/A494Hf/MvaIZmZUhA4YFAh6G+zTwbQY8Wu1eGHOAPnixpJuVsUNobYGbdGbd0Nohb89x9gF9/8RUCfoT4cxRGqlB2x3DDQjBHE1WQ397mMm9YGftCPwTcsVqhiGYRhiEKxzCB4Q9ajtZsKPohYJVoZgsJ2s12zY8IuL83wHnehnHzP2MHmLQ6iizvYNJAoS8cJlPa2LG/NelCluCF2v044bTLa/P5jeY2TAPV8dynIRNzpKnudf0LgQxNNkSc95xJRs4CutCPxzKbXdDMMwjAUI1lsIHhDXUdvNpAbwlQugAyEYdCfrKRs2fO3iPLsU/qQrNEQzM06B/jAoFBz21g3+VlayKBGPTrklXrjig3hs04R4bNeKeGzH4nhs46h44ZKu8eiEa2SLG39Cx+i04z2D7ZcF03OMDLjX27qMS9LL/CpqAZU6jiZrjcKrpjCSwFeeI/DRtdR2MwzDMBYgWO8neEBcRW03kzrAXx4MwcA7WX9B0qtOYNu3XJ5vMA/8w0E0M+Nzg2KB7i/P4hMQ6SKHe803aMNyg+15wucQgHs7A5rmIj7EFMmVmLDdkdA3IYihyRITS5foZYAZe8Bfnibw023UdjMMwzAWEA1kLqG2m0kt4DN9QzAA11MrGzY85PJc+dDNfvYzY000MyPD4C0O3dVL8PevAyxwfKJz/ioG2+ZAR/rfY4wZivqafcxFXNgBXWzjfG7eKPNTt/jZz0z6AZ9pQeCne6ntZhiGYUxAoD6aaCBTm9p2JvWA30wKwSBcT6/YsOEiaKPL8w2ESvvZ14w50cyMfgZFg2o62z4XYIEjonP+Rwy2fTiQzmJ0wT1cVXE/wecCqLKNcw4KQbzUU9fEdma9UOewz6wYJhn4zWMEvvo/arsZhmEYExCoTyAazNSitp1JPTR/pZgUV0ZSSzJqdpSHJrg8Xy50np/9zRgTzcw4zeAtjod0tr0wwALHKTrn1yvGrIf+FUxvMcng3r0L2usyBnwJHW3jnGGcc0NoQmI7s16o8zrU3vteZ9IN+M6jRD7LsZNhGCasIEhXIXo4nEttOxNuMMA9G9oIbYCeLP47fOcMaHcIBuV6elvWPkVdBrKLos7l4fR8/9WOIZ3kMN4RzcwYoFM46Gew7f4AihtzDc69RGfblv72DqMH7tUToe9dxhnby0hj+x9DEB/1tAmqUNxOxPq7oTgUg6p7fwWYdEJx/9mnU5Whtp1hGIYxAEH6LKKHw5nUtjPhBoPbldpAt1gjob8n2YT/XBWCgbmR+tqxE9vfprj/JXedwksvB040M+NcncLBEoNtRwdQ4Dhs+WL8rYzOdqLYcpz/PcQkgnv0GcX9pN7iXr/IxjlLKeFcClZIrI518HNVxPfzoaKEmD/GnyvBpAvwnweIfJeXb2cYhgkrCNIXEj0czqC2nQkvGNi+m1TcKNac4m3gQ00Ud28/+Kmhio1XWLFtJeg3D847ADrBn6vC6BHNzBiXVDwQy7Qeq7NdhwAKHDV1zttAZ7s+wfQOI8A9eS4014P7W0y0XMrGeY+HZocgHupJxO47ituK2F4aWqsT8xv4c1WYdAA+1IzIf6tR284wDMMYgCB9BdHDgV89ZXTBgLa+QXGjWA2Lt4UftQ3BQN1IYo4NW8u6KuqM8G7f5hCf77wE/cf7q8MkY1BAuE5nu6t8Lm5sMGhfJ50CzGn+9wyjqHMGfQT94fKeXg/VtXnuatCKEMRBIx2y+hTi+pcG8V58pshvGzG6KHQFDp7/imEYJqwgSF9L9HCoRm07E04wmM2zKHB8nbg9fKlfCAbrRhITotr6HEtR3+YY48G5xUotLby9Oowe0cyM+UlFhBcNtvNzHg7d+V/w91FJ233rb28wuO+OhdpBBR7cx73E8Wye/zqPzu2XBia2FzH9GYuY38PTC8SkDfClpkQ+fBm17QzDMIwBCNL1iB4OGdS2M+FDmz3fbKBbrBsT94M/DQvBoN1I4o2MG+z2haK+heHF+cVqK7d7d5WYZKKZGXcmFREGG2w33McCRw2Dc+5M2o5/efQR3GvPQjs8uG93Qbc4OP/jIYh5Zpqe2F7xCYpkzOel5ZnDUOgKHNdT284wDMMYgCDdkOjhUIXadiZcYABbJWmCOTNthg7OYg5/+g+UFYLBu5HEqge32e0T7FMbWuRRG36CKnt71ZhiopkZ8xKKCKsNtnnYp+KG0eopVZO2G+dvL5RccG/VhLI9ulfFcq4nO2jDGyGIdWZapRy6Ysq5UKFkzM+B/u3tVWNSHYWuwGG7+MgwDMMEBIL0rUQPBy5wMIeAwesPkgPdYn2XuD986jhofggG8WZq7qRvsN8LUNSD8++DXoHKeXPVmGKih8/FcZLONsdBB3wocDxr0KbGSdvxSjseg3upKvSpR/FBzLVR32E7+oQgvplpa+JzH/G7osTniMlq592VY9IBha7AcSe17QzDMIwBCNJ3Ez0cTqW2nQkPGLjWsTnQLVa/xOPArypAq0MwmDfTO9BRdvtIJAfQKI/aIIolb0PlvbuKTDQzIzuhmNDYYJsfPS5u/A863uBcPRO2m+mv9SULRZ3Es7+HcaGnYnOuDa0d5aDRIYhrZtqgJH2Witid7SDe74d0fZ0pmSh0BY77qG1nGIZhDECQvp/o4cBzcDAHwaB1vsMCh1DHxGPBt06B1oVgUG+mKdBhv/DLoA3odnnUDjE/yKuKg8SKOZyktzg+NdjmDo8LHMNM2jMlYTtHbwYwhyLuW8W7NzaElkOO5pfAfhcp6mTC1PHMTGugU4rbjHh9JPSri3j/vndXk0l14Fv3Evn1g9S2MwzDMAYgSD9M9HA4i9p2JhxgwNrMxWC3WIf8Wq6obzvkhWBwb6Yt0PlO+kxRl5/8xsO2bIee8eaKlmyi/6xaortsq7bNKg8LHA1MzlOkbTPbH2tLDto91x064OF953h1EEVN7Lxsix9aqyTNJYJYPcCDeM9vgDJ/o9C9hfwYte0MwzCMAQjSTxA9HBwldkz6gcHqBplB7aqvO89c2vflWQb/HoOuTDyuor7JsSYEg3wzxaA7nPYd9m0AbfKwPXnQI4qDT2gYlWhmxukJxYcLDLa52aPixlKTdpyTsN3V/lmc3ijq3D6vK+rbTl7dZ0sUh29taG3qGoLYZaWVUKXEdiNG9zWJ8eLflkgWOL50f2WZdAA+dhuRfz9NbTvDMAxjAIJ0S6KHwyXUtjP0YKD6rOyvdoVbVq4q2rG2YH73R3IMttkNnZN4fEV9nXxxCAb7ZvoL6gX9x0kfYr/S0Fset0nMY/KUN1e55BHNzHhRKywY/kKPf2sOrXFZ4HjI5PjNtG0G+GNlegP/P1FRVyXx6nMwof1QKxdtqgT9FoKYZSURcyskth2xubdJfB9WtGPdHVun/fiLjbc4zjHqJ6bkAD+7mcjHX6C2nWEYhjEAQfoloocD/6LIiEHvDpnB7JKPWy/CADguFNuWs3FGm4a7DLbdCh3ydhB8rSw0MwSDfpmkoJrTvsS+GYq6vKSXbdqpqL8WV3R9sUsY0cyMD6F5Ftvc76K4sdXi2D207ap6a1l6A1+vAQ3w4f7+RHExqa+iLunu5VskfkkslVs2se0Wb26sieWv+bg4vs/v8cgfkgWO791fbSbVga/VI/Lzl6htZxiGYQxQ1CUjKR4O11HbztCCAeqTsr/W7VkxfUbxAFhof96i6SbbF0DXJJ5LUd9ymBGCwb+VCqA6bvoV+9eCRnrcLrG87GuiH11ddOYQopkZz7kocLS1OPYYqHtQtqQ6irrc6wDoTw/vGwUaqLicVBv7Px6C2CSj8VCpxLabFTdmtGm4u3DziumJsX3HvLGbJJ8Lf0E13V11JtWBv9Ul8nXT+MswDMMQoqjfFlM8HK6ntp2hBYPTXNkCR9H2tXsTB8FCOxdOGG6yTxF0iI8p6rf0qfAmh0iKukD/ctO/2P8axfvPc8RkpC9Cx7i7+owgmplxnsPiRhQqa3HsoUHZkcoo6qcoH/pwH4ulW119RqGohVkvl6L1Uz9B/05sP2Lw+0YxenqrevH965fMT47r0F8zO9wh+5nKj+6uPpPqwOduIvL3V6ltZxiGYQxAkO5M9HC4gdp2ho4sGyunrBrUJVtnEPy31o/6YpjJvoU6b3KUg2aFIBmQkZiI8EY3/Yz9j4BaKGphwsu2ieOJt7/KuPMEJpqZMdNBgaOnxHG5CGUCfPdkqDdU5PG9IeavudWD9j2khH8J2GJ9ktx+xN43zOL67uVZhnE95/t3CmWfD9C5bvuaSV0UdaJtCp9/ndp2hmEYxgDF+8kJZVWH2naGDjtvb+xZMX260UAYii3u/fxIk/2jWYevriJ+FZ0QgqRAVuJzE1eDeM1mUZDY6XHbxKSJn0EXu/OIkks0M+NpBwWOytTtTkUUteB3I/QD9F+P74VcqLnicgUirX3LQhB3ZNUt2QbE3BfMYnr+jOHrTGJ6fPeyqZttFDgGu+lvJrVR6CYZ7UxtO8MwDGMAgnRPoodDXWrbGRqybMy9Af0PA96o2WAY2j2n0/3LTI5xALoluR3wwR9DkBzY0VfQyW76HvsfC7VVvF0ZolgLoMfctK8kEs3MKAXtslHc+Iy6zamGok40LPx+rQ9+LwobD3vQRjG56egQxBk7OmwlCcTaN81i+oax/TdaxPO/NeOl+rLPCKEz3PY/k5rABxsR+f5hhT2GYRgmJCBIv0/0cOACRwkFg9ENsgPXlf1fny0zGI7lr1mK7XdaHK9FYjsU9ddcKv93KvHGxMuK+/k5SkFtFH8KHTvE4A861Z2nlByimRntJIsbf0CuJqwsScAHa0JfQAd88PM1kOEyvTbaWAbqo6hz71DHF1mJ/rwt2RbE2D5mMXjNkO4FMvFcaHHv5+18ptLP7XVgUhP44e1E98Bb1LYzDMMwBij+TK4mI1dzCzCpCQaiD9kYtMZ3zB83VXZAvH/94qlZrerGLI7ZJblN8MVnQ5Aw2NVKqL7b66GoydWbilo48bqNImEbAd0CHeG2relONDNjrUSBgxM5C+BrR0MPQ9N9uvc2QI8pLj9F0doqjuP1Z2N+S7T3smRbEFs/NYu9yz9/5YBsLBfa9Ns3S+08KyAuqJZA4It3Ed0HvEIVwzBMWFHUSdYoHg43UdvOBA8GoavsDFpj+Wvy7AyK96yYPkLiuL2S2wV/vA36PQTJg13Nhu5UXBYQsH9F6D0o5lM710NvKPxWhyHRzIy6EgWOU6jbGVYU9W0N8SbEPp98WEys29KDdh4DPQflhSB+2NUW6KxkmxBTB5jF3MUfPCsdw4u1b93CNTYLHIfFdSb9gT82IboXuMDBMAwTVhS6AkcDatuZYMEA9HY7A9bZr9+zwe6gWCh/xvBBEsc/bB4D+OS10N4QJBFOJCYlvMPtNcIxyivqykp+fLpSLDHPwN1u25qORDMzvjUpbnAClwT86ATocWiOj/4q3th40qP2isKG1ysaBaU8qFqiPYijZaEpZrF2wdvN47Ftuf91EMv/sDkPh1ga/AQvrhOTOsAn7yO6H7jAwTAME1YU9RcviofDzdS2M8GCwedUOwWOvF8+kf48JVm5Q98z/UVR06DkNsIvz1b8mYgwKIklcK9we60UdTLS1tAmH9sahb6H7oFKuW1zOhDNzKgEFeoUN/ZDFajbFwbgKydBT0HjoT989E9RNBRLtbqd7+YI7Th5IYgPTiUKSIf4H+LnadBKsxg7581744VbVxU5jeNL+ryw1uZbHK+58y4m1YBfNiO6J7jAwTAME1YUujc4DlvVgklfMPC8zOZANb5n1cxspwNj6MCSj1pnSpxnAnRMYlsV9S0Gv77fD0qZUE231w3H+Bd0LzTZ5/YWKeqqNuJcx1i3LH2JZma8qlPg6EDdLkoU9RMqMVfOFOhPH/1QFEx+VjyY30Zrt1jhYUkI4oEbHbYMK2JmDWiLWWyd0aah+Mxkr4sYHt88ccgMm8+NHV5cNyZ1gH9GiO4LnmSUYRgmrCh0k4zeSm07ExzibQm7BY6i7Wt3uBkcQ3vn93hkusS5ZkLlk9usqHNSUCcXbvW1kvRauVNwnHMVddUZPz9fERLFjm+h271od6oRzcz4D5STUNzYAh1N3a6gwfUvp6hvakwM4D5ZB70GeTLHCY5zjZL6RVKhw+YcQayslWW9YlV858IJ+S7jd3xf3sKFdp8b0BNeXEMmNYCPPkJ0bxw2YTnDMAwTEhS6ZTLvpLadCYYs9Tvt3+0MUhf0fGy128Hx39q+duvs15uYvkatKReqktx2+Okdij8rjAQpsZrJEKiWV9dUUSd2GxFA2/dAn2jnO9Gr9oedaGbGhQkFjhJTDMY1PlNRVxb5OQDfKoS+hK73sP0NFPUtE+p73q3EvCMXJduHGHkFtN8qnm6d9uNWT+L3jnUHpreuZ7fAscar68mEH0Wdg4fiHnmD2naGYRjGAATpnkQPh8bUtjPBgAHn83Z/hdsw5qvJHg2Q47FtOWtmtr9tvcR5t0I1ktsPX60GzQ1B0uGFJkC3eXVtFXWSxyeh7IDavwoaADWHzvbKjjASzcx4HPqcuh1+gmt4gaJOvCnmYtkRkA+NUdSJCT37FEpR59hYEIL72wuJ4tLxyTYiNjbKUifyNI2j64Z/tNmr2C20qNcztlbe0uR6wmUmNYCvPkN0n5TozwYZhmFCDYL0W0QPh/uobWeCAYPN5XYHqHtWzJjh5SC5cOvqRTNeqr9D4ty7oAv07FDo3nbyQyug5l5eZxzvdKgTlBugHWJCWDGP0E3Qv720h/EeXKPSUGOoP7QtQD8Rk+8+Dx32KZoLW8pCbaDNIbifvdJzerYiJkagP63i54ovO273Mm4LbRjb39bk1JqmeHWdmXCj3dcU90obatsZhmEYAxCk3yR6ODSjtp3xHww06zgYnMZj+WvWej1Qjm5cJgbKeyTOL17BvkrPHvjtLVBBCBIRr7QTegUq6+V1x/Gugj5T1E9MgrJFfEo0HHoCOtVLexjn4FrUhF6GfoP+G6A/iHk1ukCne2xPJUWdn6cwBPevV1oN6RZ2EQs7ysTsBT1b7CrasdbJcrCmKlgzZ6aTZwh0oZfXnQkn8NsXie6Zw+anYRiGYUKCoiY3FA+HR6htZ/wHg8yf7A5Ms9vevN/rQXKx9uctmjG99Y0y7TgA6a70A9+tDE0NQVLipUSyJj5Xq+q1DyjqyihjCWxaCr0D1fPaJsYY9Pdx0N1QP0WdyyHIay4mqBVvh9zgg12iUPNVCO5VryWuk+7nOoiBX8jE7NmvNd4b25a705e4vX3tLocFji+99gEmfCh0Y9gW1LYzDMMwBih0r/c9Tm074y8YYFZxMjBd3q/dXL8KHEL71s6fbaM9rfRsg/8eCb2hqBN4UicoXkrY85Pi4cSLCX12KvQqtJDALpH4ZilqwUMk35W8tq+koqiJv5gT5SOiaysk3g4Rkw0e57FtRylqgW5aCO5NrxVVDD4VRdw7BvpVqiDdrtH+wi2rcv2M2XM7Nd3ssMhRzkt/YMKHoj6HKe6fptS2MwzDMAYgSLcgejg8TW074y8YXHZ3MijdOv2nyX4OlrUix5zprev9Idmmz6Ej9WyEH1+rBP8rdVBarKgTuB3rtW8o6sSt7aH5hPatV9TlaJ+GzvXaxnRFUT8/EtduJLSb8PqJ1UpaQhV9sPEkqCO0KQT3oR8SkwLrfrqDWFcemisTG2e83HBfdPOKpX7H65zvejr9TEV3ThEmfYAfdyO6hzybrJthGIbxGATppkQPhxeobWf8BYPLnU4GpdGNyxb7PWAWKlg1M9tGu8ZDZfTsVNRX8geGIGnxS3sVdSLPs/zwE0UtdrRV6H8lF6t4DFXUZUor+GFrKqKok8e2VtTVRw4QXh9x7lGKumqP50UNzdbroO+UYOcKCVL/U9S3qHQLtohxp2epS2bLxMTY/g1LZwYRq3cu/C3LYYFjiR9+woQHhW7y7zrUtjMMwzAGIEjfSvRwaEdtO+MfWeqs+7YHpDNeql+EAe0fQQyahbbPHjnZzmAZqmxkM3z6dmhXCJIYPzURagL9yw+/wXHLKWrRVRSMglo21EhroEHQC4r61oKnnz+EEdh4sqIm+aLg9KNC/waDWO2nD3SrjzaXUdSlapeG4P7yuy9rGfUDYlttaLtsPCxYPdv3N+2KVbh19RqHBQ6hy/3yHYYe+PSnRPfTRdS2MwzDMAYgSF9N9HB4jdp2xj8wqPzNyWB02WdtPZt/Y8eC8bOz295iud36UZ/bKXJsgmoa2a2k5wSketqqqCtUeD4paVJ/XqioK3CItweKQmD3dkX9NOILqJ2irqpzqaK+5RD67/3RxvLQWdAV0J2K+hmGKOKITxaiIehf8cmLKKyIz4ZO87kvLtOuYywEdvutvmZ9gZh2dZa6epRUHNwxf9zooIobxUIsdzrZ6Od++hFDi0L39mQGte0MwzCMAQjS5xI9HHpQ2874Q5b6mrOjX9u2Tvtxkie/+G1ZtSa73a17Vw54U2r71YO72vlcZS9kuEqDkr4TkOrpL0VN+MVcPrqf8HiJor5d0BmaHgLbjSTe4smB5kIToGGKurLHB1rbO/kkUXASE31+DY1Q1LdtFkB5ivqZEXW/6Ems3jNaUYtYFwfgP1WhDtDyENgehMR1v8usTxDLGkAx2fi3YWz/XyTfuhATjxZ6VeBY8eWrdmJ0ogqh0n77FkODosZXinvL9+cdwzAM4xBFfSWZ4uHwIbXtjD9gMNnZaYFj//rFC9wNhNfu3zRh8BRxLPH2RnTzigOy+y7+sOUSm+3VXYGgGEVNxvNDkOQEqe8h3eV1vQbnKa2on9i9p6T/5wXpJLGajSgAXhuQn5RS1HlVSsKbVYmapVj8yowY1sROzFs54I2RsvF008Qhk8Q+q795K1sUnN0WOPKzf7Hzpl2yHg3C15jgUdS3+wK/v6jtZhiGYSwgGnzxa6NpCgaTTpf0EwPZIqcD4D0rZ2TP6nj3wW/Idy2eVGDrGNvX7p3bpdl6m202naUffn4C9EMIkp2gtRl6CzozKL/DuU6EHoL6KuoKMNR9wFI/KxJv24jleW+DAvslXVELjOLNmcIQ9EPQsvwEFLHrZTuxbsE7LaYiTkbtFJsXf/Dc0uL9l/V9eUHB6lnZTuN7dOOypTZjc6KmBOByDAEKzeTUG6ntZhiGYSxQ1O/Kg35AfEdtN+M9GEg2dDoIXdLnhUVOBr778hbOX9TrmWWJx9oy5Ye9To4Vy8/ZMKvDHXa/9X7bql/g73cotEtqUmqeon6CcEoQPpjQ58dCNyjqqhFi9Y2CEPRFukvMzSIKemJiVt8/OdG55uKTy+6K+lkOdV9QaBl0nlU/IWb1tRPjZnW8a0HR9rUbHMTUouWfv3LIkrMz29+6d/OkbyeLgrLd44lJqF0UOXyd04WhQaEpZs+ltpthGIaxAMF6IcED4ldquxnvwSDyR6cD0PzsEZPtDHb35y1asKTP84uTj5M79H1HxY1iFW5ZtTq7XaN9Ntv/tVXfwOdPgkaGIAmilJgToidUNwh/1LkGtaCnoMGK+llLSZhg0i+JSUnFPCOfQ49AZxNcT/H5SSPoY0VdJYS6TyjVzaq/EKdKQ6PtxLYZLzdYGduWs9BNTF38YcvD4vSMNjcXrh/Zb2psW26+7HGWf9FhlosCB09snobA79cR3GuZ1HYzDMMwFig0SddkarsZb8EAsoKLwacoLKySGeTuWTFjxvwej+boHWNBz8f+62YgfrB4sn7xAgc2TITKWvWToi6zujUECRG19ivqnB1iWVjLfvMLnPsURf2coZWizsjPn7ccrvmKWsh4FroSOpHweolPkUSRSkxO+nsI+oZaSxST5V+LQWw6CZpvM6blF25eOc5tPI1tz91uVDSe8XKDoq1ZP4nJpS0/T9w+Z9REF8+Y3CD8kwkWhWZp9k+p7WYYhmEsUNRv1oN+QCyitpvxFgwgWzsdfM7qcMdO87cqVq7cOGHQ1Dlv3Gs4v0d2m5vFpKKmx7GjnYsmTnVgi/hO3PJTDPh/OaL7LswSK460hk4Pwl+tQDuqQzcq6goxXRX1rQ8xQeamEPSV19qk2SaWjBUrvTSH6kDVqK+DAO24WFGXtJ0Zgr4Kk9rL9B9i0jmQ3fmFYntz54/wKp4WrJppugpKdrtG+zeOHTAFMXyFYaEkf41dG5IVyMS2TDDA/49Q1JW8gr7vXqe2nWEYhrEAwboNwQNiPbXdjLdg8Ljc6cBzzbdvT9cb0O7NnTdnxZcd58kcY8f8cbleDcaLtWFs/8kO7NkC1ZDpM0X9NTwnBIlS2LQSeh+6G6rgt+86Ae06E7oJekJRJ1QVc0+I+UbCONeH+BRH/NL/s6J+IvQ01BA6i7of9VDU4tKD0JcKzRxRYZeYWFFqAl/Eosug3Xbj2LaZmV96HU83jhsgFU8XvN18zd6cObP1jrHwncdXuihwDPDbd5ngUNRJvCnuv+bUtjMMwzAWIFg3JnhAFFLbzXgHBo613fyytmvplKn/fB6yZOGmCYOmzHr1zp2y++cOfU/6O267wrGnObBJtP1C2f5T1DcEqJOmMCtXUd8uEG9TnOynL3uBor6hc7Wizk3xJtQH+hr6BZqsqJ/BbFTUeSzs9IP4rGe9os5l8hv0o6J+OvI21AF6BmoG3QJdAZ0h2kLdH1agjTUU9RMhUYDZFgJ/O0Q7d+6K936/V3zunLnUbRH+8qxsvyIG1YcK7cavlQPf7O5XPF3U6xnp1VBmv9Y4f9usX6cUbV978M28DWP7T3HxrBGTlAa2kg/jL7gXziK6D+tT284wDMNYgGB9IcVDgtpuxjswaOztpsCx5OPWi1Z81XFOdttbonb3XfD2Y7/7NRgvlnjDxIFdBdDlsn2Ie+J8RU1cqZOoVJDoJ7Faxg1++nVQKOoEtCLJF0WROgm6FqqppEBRxw6KWgC6HfpUoZkkUFrr1q6LX3nhxfHrL7uKui1izpFTZfsYsaexk1g85417uiHmrfcrlsby1+TNeKm+7XbN7dx0Y+6wXlnzukby3DxroEf89G0mOHA/XEV0L0q9ockwDMMQoqjLKVI8JKpQ2854AwaNdpdW9UTTW9eLRzcu2+x4wL19bXz9yH7xPSumW20bm9v1AScDa/Hrqa1fe3BfvEKZSG3fvoM6kXOi6dA7ipo0SyeBTDDgmpyjqJPJfqaon8pQ+4uUFi9cFK99ds149ZNPjS9ZtJiqHWJ56Yid/kbMaQoptuPpizdNRqzLNouF+TN+FpN9uipybJ872s1bGG411i8/Z4JFUT9hpLgnj6a2nWEYhpEAAXsHwUPiEmq7GfdgwHg71WB186Qh81z8khhf0vv5v48zo03D+N6cuabbi+VjXbS1qZ0+VdSEkGRCRVHguO2mhvEeXbrFN23aRJXUudVORZ209F3ofqi6X/7PHAr6+gJFnZdEfJYzS0nBpXj37NkTb9vqxfipx1f8W7/8PJyqLUOhinb6H7GmucMYJVZM+dosBu5aPCk+vVW9eFaruvGN4792VeRY1OvpZYRFjvJ++T8THIq6qlPQ92Q+td0MwzCMJNpANOgHxa3UdjPuwWDxB4pB6pKPWollZf9yOsDO+eHdQ4634otXLffZPPn7yS7a3M5u3+IeaUuRWE2flnUwuXu6eYv4hvUbqBI8LyUm/xRFD7F6zYtQI6iqH/dESQB9dzZ0J9ReUScDFRNfFoXgOrvSpN8mxi8657yD/v/xB70p2iGWvrzL7jVBjOnuND7lZX5qOe/GgrebH7LPjnljA/9UxSM94cc9wQSLQjN31XRquxmGYRhJELS/JXhQPEltN+MODBTLUAxQZ3a4I1q0fW2B48H1tpx4dttbDjmm+GVyf94iy33ndm62wUXbu9vtY9wn50Lzg74/B/UfeDDJE+ry+pvx7du3UyR7fktMavmrok4GKlbuEN91n+TH/ZKKoC+qKup8II9BPSAxueneEFw3TyUKG5Em9x3i86+1e4WiLSOgE+1eJ8SW71zE0wmIbaYTNResmnV4kbn3824/VXFTMHajiX7cK0yw4D4ZSHB/DqS2m2EYhpFEG9wH/aDoRG034w4MFJtRDFD3rJqpu4SgrLZmDdM9rsxr1/vyFkktW2uiD530Ne6XLkHfoy+1fOGQhE+ow0tt/554kSBeBC2xYsUiaJiiJvaPQ9dDp3h9H1GjqMuy1odaQr0UteCzMgTXwHd9/dWA+HWXXnmYnwvfD7gt+yDbE2AinpSD3MxpcSC6ecVvVnFvw+gvdffft26hqyLH0r4vzycqcvBcPSkO7pffCGLGK9R2MwzDMJIgaD9A8KD4ktpuxh0YJI4IemC6alDXOW4G1EIrvnpN99grvuoou/8sl3b0c9LfirrKxsYg79OH7mt2WPIn9PD9zeITxo4LOmaERaL4MRcaDL0BPamon2uIpVlDN3ky2nQ6dB10r6IWMcQKND9By0PQl4ErWlgYH/hl//hVtS/R9e1nWzwRdJvEJ6LV7F5XxJGTIOllV/W0YfSXo2Vi3vJ+7fX3H9vfVSyObc/dNrP9rXsJChxtfLjVmADBPbOaIH40prabYRiGkQRB+1KCB8UYarsZ52QRfJ6S3fbmqBgQmw2Y969fsnDpxy8uWvV15+zopuWL9baZ/XoT3ePP7/6I3KA8f806D+wZ6KTfcd8cD/0c5L163x136yaCQnWuuDqeOXxE0LEjFSQKUWJ1lymaflHU+T86+SDxds/n0KiE882G8kPQD6HR1q1b46+37xA/65QMQ38Wn6kE3C7bn61p8fdUKNdVPG1363bEs70yMW9etwd1j4FY66rAIbQ3d95sggLHQif9zoQHhWbOn/Oo7WYYhmEkQdAuS/CgWEFtN+OcLILPU3bMGzvFarA8u+Pd+cXb78tbtECnAGJ4/BkvN5AelOdl9vViqcOvnfY/7p8Wivomge/36r79++MNrq9rmBQKiX//aeiwoGMIi2WpUb+OPGx+DT3Vv65OfH80GlS7NkA3OIy9x2W5fHNDaPvcMWNk493fq6foFUna3Gy637ZZv2bFtuVutTr+uhEfTyUocpzrNP4ytODeOYkonvASsQzDMKkEAvf2gB8Uf0BHUNvNOAODw1+CHIwu6vXMUqtBcuHW1Qd/0RSTgeptkz9juOl5ohuXyr3FsS3HzWSjiRro9Brg/qkMjQzifs3Pz49fdt4FlkniBWfWiPfo3PXv5WaJBqAs1t9avmx5/N7b77L0WaGLa5wf37JlSxDtUqD3oGMdxt1S0DS3cWfWq3fuln7DImeu6bHEBKR6++1enjX373N1vGsH/rvI4jyxOW/etyngAkdXp7GXoUVRP9cMOqaspbabYRiGsQmC91SCBwYv05iCZKkT2wX6a1ssf81aq4F47o+9Dg78t88dM1H3l8LhH5meZ8/KGdJvcazs/7rbuTiK1dfN9cB91BTa4/f9umzpsvgZlapIJYxiO6IlNlklXHv27Il3eLmdlJ8KnV/9rPja3LVBtE1M3Hqpy9g7zouYs3X6T9mycW7noonmx8oaprtfwZrZ04u32bVo0lSr8+zfsHRRwM8VTlhTFNxHDxHEllHUdjMMwzA2QfD+kuCBUYfabsY+GBhGghyI5s8YPknijYrNxdvPevXOXUbbLfusnem5di6cIF3g8GBFlUS1dXNNcC+dCH3v9z07fNhP0omj0G03Nohv2LAx6LjCKqESk4fWrHaGLR+dOnmK3+36H9QZ+rfLuOt4KdhkFW1fu082zm2bPdL0WGt/+tBo36IZL9UvENvIvIEntGHMV5MDLnJc5uaaMDQoBKuKQb2o7WYYhmFsguD9MsEDowW13Yx9sgJcPUUsIygzMF49uNuM4n22Zg0zLIjM7dzU9Hw75o+TLnAIzXr1zh0e2ut66ULcU40VdclJ3+7bzq+9YSuBPPe0M+K/jRsfdGxhlSCtz1sfv7VefVt+KfTZx339btsaqJYHMfd2r+LMii86LLMT47bNzDQ93rJP2xjum/PDuwffONm3doHUCljzukbyAixw9HB7bZjgwT31LUGceZzaboZhGMYmCN63EjwwPqS2m7FHljrBXSCDz1kd79pWtH2t4dsYxdq7dv6c4n1mvNQgZrRPdPOKeFaruqbn3L1smq0CR17mp5M9tPkCL64R7qtTFXXpSd/u3aZ3NbGdTL7zVo+g4wurBGjyxEnxc6qebtsf27V+ye+29YeO8eKeRmxo6VWc2bV40iw7MW77nNGmx5vzxj2G+yLmzi/ebm7nZuvxtwNW54tuWu56AlUbyvXi+jDBoqgrVAUda66htpthGIaxCYJ3dYIHxhRquxl7YEDYJKjBp/gmW2YAPrdz04MTfm4cOyDL8JfIWb9anlMUQewM/j38TCXi9bVS1KVDfbl3CwoK4lfVvsR2UikmfeQJSFleacigwbZ9UOiBxvf63bZXvL6fESO6ehFr7HyeIrRnZbZ1rF6/xHD/xR88m1W83aYJgyZLFlW8WKVKVryaSoqB+2sdQbwpTW03wzAM4wAE8AMBPzD2U9vM2AODwa+CGHTKLAkrtH7UF5MT94ttyzV842PdiI9NzznnzftsFTc0FXlg76N+XS/cYw9ARX7cv6tWrorXyKhuO7kUK1aIFS4IBqisNFLHtq84Km6IJY19XA52J1TXr/sZseJ9N7Fmfo9HdVeXstLMV243PW7+jJ8N9y1YPeuQVV8KN69cIXPOVYO6ZAdU4HjJr+vF+ANBvMmntplhGIZxCIL4IoIHh+t5B5jgwGDQyzkndLV6cDfDtzAStTd33iFvT6z5tsdcs+1XD+5qet5NEwY5KXDEF73/1HIX9s71+5rhHrsEKvDj/p2RNT1+2omVbSeZZ1epFp83dx5ZcsxKXcWKiuKRe+53VNw47/Qz/VwONkfxeWWwLPUTwV1O4826ER/PcBLjRGw0O+6GMV+Z7f/n7NebbDxYZOn+yGr87Q+J8x5Y0vv5JQEUOCb6ec0Yb8E9djpB3JlEbTfDMAzjECWAVRh0dBO13f/P3ntAR3Fk/dvf7r77/te79vq112SwweScg8nBJJODbcA2GLABE2xyzhiMyTmbbHLOJglplIUyyjlLSEJZGFt2f7cGiW319Mz0zHT3bY3uc87vHND0VFdX9b116053FSENCATbKR1seq8bGwmBbYG54Dc/OSzKdV6/PP538xNDQkwmRMI92aKlLCHxSv7bpnGR5zax99KtSm4wCZ8isVAd1eg7sLPGoFwlbPjCmXNWTTbZVrL37vyCNlEmlT2x15vYzjzW3G9Mrs4uStUtDPSOGrYMPuNba/1NZqCjVQkOpjSv2yyJzHZEKeVDQw4vY+tmmPzuU++7pba3jTizwVniefN91o8PUyHJ8YYafUfYThHOenG7sa+bIAiCsBJw4isQBo4Z2NdNSAOCwB+VDDI9lo9MKkiNTDIb9KZFpXuu+DiR/92gAwvdrA3cbVWGv4Ojldd8Uc3+A1vrrpQdL5oz3+pJ59lTp1WfKJPKnvx8fbmW9RtbfZ8dOfiTUnXLBL2npi2D74i1xufkJ4aEIvnJQrdFg+P5dYm+vMNJyncL0iJTPZaNSFI4wTFGzf4jrAdsbR6C/5mGfd0EQRCElYAT/xhh4KDMeBkBgsAopQJMz5WfxBakRsRLSG5ksac8hN/PSwwOwEpw5MUH+ll53TZvH2kpYG+LlLDjX3/9lfuwczerJ587Nm9FmziTtC8PN3euXrX3rL6/VixaomT9eqltx+A7vrbG57BEA5afTHW/fl1Yn6iL2xylfDc/OSzSfdHgdAUTHOfU7kPCOsDejiL4IMXW1SEIgiAUBpx4E4SBwxH7ugnzQABYX6ngMmDHt/4scSHllzyx5EbQ/gVWP3Yti9KirHkn/jZGP4K9/a3o5eP0sttybEysfo0Dayehi+cuQJk8k7QtZycd936lalbfV+NGjVGyfj9j2DH4j3+AsizxOewJOVQ/+TQ6y3VevzhhvcJPrZf0ukpBcliU+5KhaQqNQ3kY/UhYDtjcYwQ/VBH7ugmCIAgrKXo5+SlSeeDIwL5uwjwQAM5QIrCMvrxD2i94SSEh7ouHiP6Cl5cYHIQcuLN6PLfw2vtj9SXY3KdK2bO7q5tVi46WaPzoz7nCwucoE2mS9nTrxk2uVsWqVt9P3dt35PILCpSs47tYdgw+5AdLfI7/tuloT7mVKMXl8gXRum2d6leYFpVpNsmRFpnqu/ErWxZ1NqUPsPqSkA7Y3AuV/VAm9jUTBEEQNgLOPAghkK2Afd2EaSD4M3i82Ba5LRqc+SzEVdK6Gem+952cZ30oWk7IkeXe2EE7k+fy0muCmFEkZl+Cvf0VlKCUPZ/5+ZTVE1KmAT17cxkZmSgTapJ2tH/3XpvuI/Y0UVxsnJJ1PINpx+BHaljic4MPLfbA9pOgDJe5/RLE6uexbERyblygpCRMsu6CgwIJjmWY/UmYB2yuNoIvol12CIIgyjrgzM8iDCA9sa+bMA0Ef/lyBZIhR5a7s9c6JASyuWEnvnc1VRZ7N1sDQTvns358iAVtMAe7P8Hmlitp0ysXL7VpctqldXulJ6ckDWv75i023T9MbAtjhevZDduOwZdclep3wk6ulbpziaJKcb16yVQ9Ex787CClnIKUiHi/Ld8EypjgcMLuT8I0YHNDEfzRduzrJgiCIGwEnPlKhAFkJvZ1E8aBwK+nHAGky9x++RkBDjopwWteYnCw54pPTD4VEX1l10PsYL1EXqtGx1jQFjWw+xRsro7Sdj203wCbJqjNatfnfH181PZFJGRt+XGjzcmNo4cOK13PJNBfsO0YfMlQqX4n+Kel7th+sli5bgsH+Ziqq//WaYGSdtQCJTmdd5AxyUHbxWqYIpyd/iZhXzdBEARhI0U4O6n8hH3dhHF0MmwP6712bERBSniMhIC1MOHe8UfO3/U0nSyZ0zebbRergWBdL/fFQ6QufueB3Z8lgN15KGnXKSkpXLM6DWyaqLKdM5weOartj0hI2vTDjzYnN+bPnK1GXTdg228J4FMypfiewF0zfbD9ZIlyorxvmKuv24KBWZlBzpIWkM6NC/Bjrz3KkOAYgt2fhHHA7i4i+KWO2NdNEARB2Ag480YIA4hmJn2EIRD0PbYlaAz/eR17NLrAbNAb7evtuULaWhapHjfuYAfpfFnQHt9i92cJYHezlbZtT3cPmyesTFcvXVbbJ5FUFtsq2Nb7ZFj/gWrVtxO2/ZYAPmWfxCRzOLaf5Cv4p6WS1nUK2PFtQH5SqNm6F6RFpvlvn27rKyvbsPuTMA7YXTiCb3od+7oJgiAIGUAYQJ5jXzMhDgR8b9gSMKa4XH4kITBNDTvxvZvUMr3XjWULi/5uS3CdFerO3knn3JcM42Ku77MpUGdPpljQJppZUBfsrrIa9s2SE7ZOXKu/VYE7ceSY2n6JpJJsXVCUqWX9xlxa2lM16ptRpIHXU0oAn9JFiu9hCzXbmpTICvPgoi5u41Jcr3AFqRG2lZcWlew6t5+0rW6/68HF3TrkAN/LM1Pub+Gn1jvaMGb5YfcnIQ7Y3D8QfFMc9nUTBEEQMgFO3Q9hIKmLfd2EIRDwDbQmUHSZ3ft5doSX2VX70/3uO7nO/yjHkrLzk0L9rA2qnz6+w7ZLhHJ6vCrPf9s0mwL17IjHnhLrfknQtm9h9WsJYHeuatj3D6vWyPIkx8Z169X2SySFJceaG7UrV+cC/PzVqvMRbLsV+g74f4QUH1SQGpFgi6/z2zLlVVngt7nwU+u53LhAq8tL97n3wBLf77F0eEpWuKfZtUSSnS48siHJQetwaBCwuw4I/ukO9nUTBEEQMsECOISBZAT2dROGQLC3zuLkxpw+z3Nj/U2+752fFBrqu2lSkKVlJzqcdrA0iC5IjeQS7p/k/DZPES3Ta/VomxIcSU7npf5iOIzXru1A2aB/YfYv2N1CtWx84ufjZElyLJozX23fRFJIS+YtlOWeuHLxkpr1Rl2nAXxGE9AzUGXe31ZJ8UHZEV6etvg6t4WDxJLZXOjx1dyzEFdryvzTf9t0yU/vlSjowEJPc4uQpvvdd+Ynsi1QP8z+JcQBu5uM4KM2Y183QRAEIRPg1GcgDCQrsa+bMASCvWuWBoi5cQG+RgPPtKjM6Cu7nKz5Zc1/+/QQSwPojIBH7N1zk+W6Lx5iU4IjaP98kzsCFItts/sPXruWfKczZv+C3TVRy8bzCwq43l26yzKh/WbCV9yvL16o7aNIMunXX3/lxo/+XJZ7QYUdU/h6AfpfTJsFnzGj2Hcc4f2tmRQfmnDvuJMtvo4lM0z66G3TuXTfe5YmoKNc5vZNt3Q8YHVJcjzLEt7PTfh/a8aaNZj9S4gDdrcHwVdNwL5ugiAIQibAqX+AMJBcxr5uwhAI9p5YEhxmBjoaC6Dzk50uOEAgW2BNcsN9ydCnEAinSE5s+D9ki9NJKttr9RibEhyu8/pLuaYzvDYdzPv7ZMz+ZYDtJahl54mJiVyLeo1kmdh+8clotX0USQaxRNfoYSNluQfWrVyjdv1vY9sr+IyfeP6jFu/vkeb8EPjEJzYlOOb2lZaM3jZdn1yWWm5WmIfZXVWMjg2Lh6am+z0wmriJv3vM0tdVzmH2LyEO2J4bgr9qj33dBEEQhEyAU/8n6A+VBxJazEmD6F4+Ci0pMIy+skt0QdFk54sObgsGSFtMTlz5eYnBQVIC5dwYPy7k8DKLyg//eZ3VAX9uXGCAxPMM5bUpP+Bej9m/DLC9fWrauo+3t37NBDkmuCMGDOZy8/LUDnpJViorK4sb2KuPLH0/e/q3GNcwDdtewWfwn0rYyvu7pNcJC9Oisq31d/5bp1nkW5kvZj5ZStlJj85K2g3GmNgOXBkBj3RiZQfsnOlnQVlOmP1LGAJ291fQbyrbOouB/4597QRBEISMgGN/ghA8oi+6SJRG8q9oS4alCoNK9quax9LhqbYErUzZkd6OZgPktCgu5toetv6HRWW7LRrM5UgMwEV/HfzlqJRHoHN47fmu4LPTmP3LALsboratX79yVb8zihwT3X7denHZ2dkYk12SBUpPz+B6dewiS59/NuIT7sVvv2FcRxVsewWfkcDzH095f28hxedlPnFysdbfPfX+hbN0XQvXuf3YUxSSyk9xvWL1kxwl8vlxQgiMGaXWGilIjZC0/XixvDH7lzAE7K4Rgq37Y183QRAEITPg3I8jDCg9sa+bKA0Ee5KevAg5vMxNH0imRMRBkPrIc/nHlgSUonKZ0ycxN9bf2VxQDMEs57flG4vLd1swgL1SY3Vyg8lr1ah4Cec6ymvP+YLPHiJ2rx6wu39hTHh3bN4qy2SX6cPO3bi0tDSMCS9JghISErgurdvL0tf9u/fiCgoLMa7jCbatMkT8y0DeZ2ZfUwk6sNDLFp/HkhXW+PPAXbPY+kxmy0/3e3DX1rGDyXfj1yH6JzrSop6xcj1XfCLFVzPdx+xfwhCwvc8R7P0n7OsmCIIgZAac+0yEAWU+9nUTpYFgz0tqQOmxfGSSHIEpEwSjNwtSI0zuxMKe2oi+sotzmW3ZUxv6ui4bwT0LcbEpuZEd+dhD4vlG8NpT+EpLAGb/lgC2p8OY+M78ZrpsSY5OLdtycbFxGBNfkgmFhYZyLes3lqWP2zdryT19mo51LVvNW5KygL94W8S/nOV9vk2KTypICY+1xfclPDjJOX/X02K/y3ZhSXW/brb83Fj/hy5z+8bIOJ5YknDfhdnHhCFge9sR7H0q9nUTBEEQMgPOvQvCgHLGfM0INYFgb5lcQaZE5cT/cnQPBLkmFxTNi39i1VMb7PHq0KMrufykEJuSG0x+m6eY/bW0WK8Xt6XYI+Tx2H3MANtbhTFpZDuhfDnqM9mSHGwizSbUSBNgkkBsvZUG774vS9+2atCEi4+Px7yegeYtSVnAX9Q24mP+Xfz5ACk+KfLCFg9b/R/bLUVs21gpCju+hiVZTJZfkBYVFrhnzgOVxx+mXtj9TJQGbM8Fwd7bYV83QRAEITNFLxcaVXtAicK+bqI0EOxVUSuw9FozZmNBaoToInHCwNpj+UiLy2fbwaZ53LA5scGUFebuKvG8Pry2/Enk81zM/i0BbK8r5kRYziQHm1B7uLljToRJoLu378jWp41r1eFCQ1ATV0Wgf2HbKfiL5kb8zOziz18DPZfimwpSwqNs9YM5UT5WJpq7c97rxum/L+FJuV9cZve2ZZFqSxSC3cdEaYpeLjD6XGV7pwVGCYIg7BVw8EEIgeQ72NdNlAaCvp0qBJbXIJg9ai7YTXQ4zTnPtPzR6Cd753F58YGyJDeYPJd/LHX3lMPFbVjZ2DHY/csAu/sfUD7mhHjcqDGyTYiZzp46jTkhLtdibS9XPzaqWZvz8/XFvqZH2DbKAH/R1ogfieEdIyn5GnJ42S1Z/GFaFBd784BVrwqyRZ6lbCeb6nHjgEoJjhGm2p9QH7C91gj2TgvNEgRB2Cvg5I8gDCwDsK+bKA0EfW+CUpQMLJ/sn/+F2eTGw1Oc7jsLV/Cf159LuH9StsTGyydI7l+zoA5ritvwoolj3sTuYwbY3g3MSeRvv//OTft6sqxJjjXLV3K/FxVhT47LlbZv3iJb/7Vr2oKLioxCvybQImz7ZICvaGfCjywuPuaKVP+UnxjiKZdfzA735Py3TbfY97Odr9juLGbKZ7tx3VI4uXEPu38JQ8D2piHY+x7s6yYIgiAUApz8ZISBZTv2dROGQPDXX6Gg8iioNQSwi0wFuElO5y1Obvhu+IrLjvCSNbkBynNbNCjGgnqwhUhXmjnm/7D7lwG2N08DE0lu2YJFsiY5vvhkNJebl4d+XeVBi+bMl63fenfprqWdcTpg2yfDTIKDaTJI8mLPATu/eyCzf+RSXC5xnha+QsiSHOl+D0yWm+x8aQIca/O24yZUG7t/CUPA9k4j2Pvn2NdNEARBKAQ4+aYIA0sY9nUT4kAAeEqmQDIPtB30XknZEMCGGH1iwuce5zyzl+TynWd9qN9dhT06LXfwnnDvxHUFAmutJDjaamAiqde2TfI9BcD0YaeuXGJiIvp12auys7O5EQMGy9ZfrKy8/Hz06ypWPrZtlgC+ooPc/ic70vuh3H4yPzmMCzvxPccWdZZaD7ZgaXbkY1PlHoTj3tFJ3CnGQi3D7ltCHLC/OASbfx/7ugmCIAgFAUefizC4VMe+bsIQCAIrgtJtCCLZu+HjQf/klwuBa31jQW1OtC/ntmCg5HP4bvyaexbiKntig6kgJYLtmlJoxwmOv4MKNTCh1Ovk0eOyJjla1GvEeXl4ol+XvSkmOobr2vYD2fpp6leT0K9JoPvYtlmCEgkOz5WfhCvhL5nSPG+xLVol18X7hy+5gtRIY+Wl89qBLabaU/fy6TgnG9vAD7NPCeOA7b2LYO+p2NdNEARBKAw4+3sIA8xY7OsmxIFg8AsLg0dn0GjQf4yVCYHrLGMBcuDu2ZLO47F0mH4BUqUCdaaAnTOdFUhuaCbBwQDbc9LAhPKVHty7zzV8r7Zsk+eaFatwRw7+hH5d9qLbN25x9arXlK1/Fs6ei35NIlqJbZclgK/4QAkflOR4Tp4FR8USw6mRXOyNA/r1kKTURf/0nfHyWppom3qgj3UWrEFSrGZq9iEhHbC9CQj2fgn7ugmCIAiFAWe/GmGAOY593YRxICBMlBA0ntTxXkExUs77oH4QtF4TC2ZTXK+YDU7ZqysRZzZw+UmhiiY3ngW7PFQoucH0mlp9Zw6wvfUamFCWEntCgL1iIufTHN9M+IrLyc1Fv7ayrBWLlsjaJ3u270S/JiMagm2XJYCvaK2QDyooSI2IVtKH5sT4cUH755utC1uPgz25Z6ScmXDMpzoTCfPidmLJDj8J131Trb4jLAds7wyCvc/Bvm6CIAhCYcDZ90cYYJ6C/oJ97YQ4EBSaW4ciDfQPM2W8AYoGxUHQmiMWzJpekb8HF3xoMZcV7qloYqNYma7zP1JsFxm1+k0KYHcDNDChNFBBYaH+1305J9QdmrfiXHTO6NdW1qRzdOL6dO0ha19cOn8R/bpM6F1suywB/EV9pfxQwM7vHFXwpWwXKs5vyxSTdYk4/aP40yDJ4beLj3kooa0mSbjuxWr0G2E5YHd/A2Uj2PsH2NdOEARBKAw4+zeRgso22NdOGAIBYReJAfMMM+X8wI7zWjkq0Vgg/GTPHMNf92b35sKOr+GywjzUSGzoFX1l12mlJhWgbLX6TgqI9i5JN65e4+rXqCXr5LpXxy76pwdSU1PRr0+rioqM4r5fsYpr36ylrG3fqkETztfHB/36TCgH2yb5gL+opqAv4p6Ful1Xy6+yrWGNvYIYeW6Tse/l8Y771ExbXZVwzaGgemr1HyEdsL2uGDaPfd0EQRCESoDTD0QYaJZiXzdRGguSG0xsq8J/GimnaslxYSfX+hoLgJ+FuHAey0boj2Nbvkae28zlxvipltjQ/2KYGqGD82cqOKlIULsfzQG2F6uBiaVRxcbEcgN69pZ1ol2iYf0HcgtmzeFOnThZrhMeYaGh3MG9+7iZ30zXb9eqRFsP7TeAS0lJQb9WM9LUKwzgL95UMsHhOrdfEPi9JDV97LNgZy702GrOa/UYfR18fpzA5SUEGT3eZ8PEhOL6Rplop0YWXHcWiBY21xhgez8g2Lsj9nUTBEEQKgFOfxfCQKPDvu7yBgR5dUE3i4O+MFBtwecnLAyYFxk5z56SY9K8brmrGUxbKu8fvryg5IQCFKxO70oHbO+KBiaWZrV62QpFJt58fdi5m/48Px87zrm7uqFfsxJia5E8vP+AO3zgIDd/5myudcOmircrexoE+7ol6ntsexSisD9i27sexPa7phR9ZZcnr77TjbSRpX57vuD73UDstcT84nHP5JofhPyA7fki2Psq7OsmCIIgVAKc/kik4PLf2NdeXtC93HYvQRD0bRIcE2Fh0Ogqch72C+TzkmPy4p+EYgfMxpTmdeuY0pMJkJN6vSwNsLuVGphYStK9O7/I/sqKKdWuXJ37eNBQbvnCxdxP+w/o16MoA08hvBJ7+uX+L3e5vTt3c3O/nckN6fuRam3HxPqKnR+7HSzQCGx7FAI+I1thn/Q8J8bvCrb/NaZ0vwduvLpGGmkjS6/5guD7jwSfa2ar4PIA2F1FJHvvjn3tBEEQhEqA0/8P0mAzCvvaywu6l9vrCYO+24JjLA0aDfaTh79N4x+DHSwbU35yWGDxr3dKJzjOqtfL0gC7G6KBiaVkhYeFcR1btFF1oi4U28qWvXLBkh8rFy/lNq5br9f2zVv0SZjsnBzF2yEjI1O/bevWDZtenZ89kcEWBB3Uux9Xr9p7qG3E+ig0JBT9frFQNbHtUQj4jBCl/ZLr/AERhWlRKdh+WNQ3J4YIE+09BO1Ty4prdhWUIZZEaqBuT5dfwO4mI9j67yCTi6MTBEEQdgY4/hCEAec09nWXFyB42yIS0HkIjrE0aEwWOY9zyed+W6ZEYAfLRpTrtWr0YxWSG0xb1OtlabBJnQYmlhaJTe4H9uqDOoE3J1a/qV9N4tavWctdvXSZi4uLt/p6oyKjuItnz3PrVq7Rb3nbr1sv9OszpXGjxnBZWVno94mF0tQCwCWAz1Byy+pXCto//xL4wj804I+F+sNldh9+XfcJ2qemFdcbKChD7Jjx6vZ0+QVs7zaCvdP6GwRBEOUNcP77EAYcTa1gb89A8OYkEtAFCI6xNGgMEny/Kv/z2Bv7XTQQLBso6uK2wyolN5jmqtvT0gDby9LABNMi5eXnc1998SX6ZN4S1a36LteldXv9kx/Tv56iT1gcPnBI/xrHjWvXuQN79nFrlq/kpk78mhv+0SD9UxDsNRnselsiVn/se8NKmd2KFAPwGafU8k8Z/g+PYvtjMflvn85/iiVd0D7WLMQawPv+P40cs0v93i5/gN29gWTvK7GvnSAIglAZcP6jkQadXtjXXh6A4C1HJKALFRxTaGHQeEPw/W/4n2cG6TywA2WhssLcz6uY3GAarW5PSwPs7pEGJphWac6M79An9aSXWjh7Lvr9YIM093QVA3zGRtX803c9kgtSwr2x/bJQcbcOOQvq2knQRmLjmSn5Cb4vdowmE172Btjdx0j23sN87QiCIAi7Apx/VaRBZzv2tds7ELjVMRLQJQqOy7MwaNwi+P41/uf5yWEJ2IEyXwWpkd7Os3rFq5zgaKNub0sD7G6HBiaYVuvDTl3RJ/flXWxNEuz7wEaNxbZDMcBnfK2mj/JcPtIJ/ONTbP/MV2aQzlVQz9WCNvK08Dq9eN993cgxz9Tv7fIH2N1JBFun9TcIgiDKKzAABCMMPDHY123vQOA2wkhAlyE4LtPCoPEzwfdfLdrpOrcfepAsUKLH0uG3VE5uMP1T3d6WBtjdRA1MMK3Wvl170Cf45V2ODo/Q7wMb1QzbDsUAn9FObT8V/NPSHRrw0a+UnxwWLqijm6CNjlh4jc6871YycVxl9Xu8fFGE83ok7ZJDEARRXoFBYBtSoNkU+9rtGfbrl7GATnBchoVBYwPedzvxPwvYOTMEO0jmqejJvvk7rQ3+3ZcMs3biEKV+b0sDbK6dBiaYVmv/7r3oE/zyLjcXV/T7wAb9Aforth2KoTP+hIFZhRxZIXzyQbLSvG5v14CvLtEfzrN6ZQnq+Dqvjb6z8Poced9tauK43ji9Xj4Am+uFZO/zsK+dIAiCQAIGgf5Ig88y7Gu3Z3SCV0cEqso7zpI1OPIE51jI/5y9Q62BIFmvJMez+60N+oP2L2AL8Vmb4Limfm9LA2zudQ1MMq3WgllzrJ6Ysy1VRwwYrNdHPT5E315VTdWrXpP7ZPAw7odVa7hNP/yoX9zU2rIO7t2Hfh/YoEDzVoIH+I5IS/2N16rRj5i/e7JvXpCV/iorNzbgOra/LpHf5skegvr157VPJwuvzYP33X4mjpuD0+PlA7C73Uj2Tj+iEQRBlFdgEPgn0uDzGPva7RkI2kytO9GFd5wlAaOD4BylkiiZgY467ABZn9xwOv+LtckN98VDuLyEIL2sLGOFsT6ButVRss+lAHYXq4GJplViu5JYOiGfNXUGFx4eLlpeREQEd/70WW7p/IXcgJ690RMRcql+jVrcmOEfc6uWLud0jk6i1+7v68d98cloi8tevnAx+n1gg1C3KAf7fwNU09jn4DtOW+pvnuyde4v5vILUyBRrfZ7L7N7PsyMf+2D7baboyzuFrxT+yGuf1yy8tie8735r4rgjCnd9uQbsLhnB1lOwr5sgCIJABgaDW0gBZxXsa7dHJASCM4qPq2FhwLhRcJ6n/M/zEoJcsQPkhHvH3a0N9JkSHU7ry8mJ9rW2jH7G+gXK9Va6780BNnddAxNNq8S2XpU6EW/XtAUXHBRs8Tm8PL30r8JM/WqS/mkPto1rp5Zt0ZMWJWpRrxHXvX1H/WKfEz8fx82fOZv7YfX3+m1o2Ra0AX7+Fl3vw/sPuGa160s+/6RxE9DvAxu0CNP2wP6HgW4Y+xx8xxxL/Y3/tmlOJb4v7vZPj2zxfZlPnAKw/Xe67/3bgno5CtrosQXXlMH73hETx6H7ZXsFbK49kq0fw752giAIAhkYDKYiDUIzsK/dHoGAraGZwM+t+DhTj+2K6VPeOd4Vfg4BaihWYJwb6+/js358oi0Bvt/mKa/KS3W/bm05/xHrEyjzCxD6r0pgc2s1MNG0SuzJBCmT8A7NW3FJSUmK1SMvP5+LjorWr0fh7KQT1Z2bt7nTJ3/m9mzfye3YvJU7e+o0d//uPaPHi8nV2YULehLEJSQkcLl5eYpdD3uSpcn7dSW1LUv6YN8HNugjTNsr9gHMv9QV+xx8RxdL/Y3rvP4Zr/xgWtRTl9l9CmzxgUEHFoYUJIdFIfrxh4I65QjaaKuF11S1+HtPTRzzXI3+L4+Aza1HsvXPsa+dIAiCQAYGgxpIg9A97Gu3RyBgGyoh8FsLsnRxulq8cwwWfJYIAWqa2gFxfnKoQ/BPS+/aEtSXiK27UVJu1IWt1pQRbaxPoEz2rnycOneAccDmPtXARNNiPX/+XNIEvHGtOlxMdAx6fcua2CsrtStXN9u+vTp2Qa+rDapq3kKUA+x/VLF/2Sz2uc7KhUbzE0NePXmR+ODnB3L4wuiruy8XpEU+Vt+fhzmL1Kcmr42M7Q5mTGdBpyQc10CsTwjbAJsLR7L1StjXThAEQWgAGBA8kQait7Gv3d6AYG2JHEGuQMLtZZcKPo+HADVcjSC4ICU8IsXt6gnPlZ+ehPPa9ItliQJ3zy51Dt8NX1lTziWx/oDyqoL+BAWrcwcYB+ytgQYmmhYrOTnZ7OS7xtsVORedM3pdy6pu37jFVX+rgsk2btOoGXo9rVSGeetQFrD/3sX+xWhdwIfEWOp3kh6duc/zXQVuCweaelrBEqX5bZ58ON3vwfmC1MhkVRIcicFi23oP4LVPBQXGNqah6twF5QewuUZItu5hvnYEQRBEuQAGhcVIg9Fk7Gu3NyBYO6pAAHhNcI4zwmOywtxPSghis0ARBWmRbL2Oa/lJIT8/C3E9kuH/8GhGwKPjWaFunvlJoQXs2LzE4Lxnwc5p8Fl2mufN9Jhre1O81437VYkANzNIx3tMOsDacpaL9QeUubC4bGd17gDjgL39DVSkgQmnRXoS+MRsgmPrhk3o9SzrWjJvock2Zk95YNfRSj3Ctj2w/4Y8PzhE7Bid6d2vROXz44RS23Onul27p4SP9NvyTX7cncNJsTcPxCbrLiSC307JTw77Ve+r459kwP+dMgIcjjFfnhXmcaIgJfxn+OwmyA0UDco1Nz7E3tj/s8i55wraKFyB66OdVGQGbG4Rkq0vwL52giAIQiPAoFAfaTB6iH3t9obO8ldPpGiB4BwBwmNcZvfOT3G96p8bG+CXG+PnlRXucSfN48aNmKt7Lvtvm3YHjvEFOYKsXvFfCT3ZO7dUkB1/95i1ZQ0W6w8o07u47HPq3AGmAZsL0sCE0yKx3UBMTbzZ1q/YdbQHsfVF2EKmptq6oLAQvZ5WaDe23TF4fkZ0RxfwIaut8T0FKeExvLLz3BYMkOspDrkUy3y/67z+usDds6+HHF1xNP6XI9tYUjsnxs8zN9bfP+7OEV8j3z0kaKNjCtRvjzp3QPkBbM4VydZrY187QRAEoSFgYAhDGpBQ3422NyBYy1MgAOwhOAd2wCyTenDPgp1LJTj8t06ztryawr6A8t7llb1WtZtAhDNn9rcBtQR7O6+BCadFunH1mslJ9/1f7qLX0V60deNmk22dmpqKXkcrNBXT9koAH/Ck2Bc8B70h/Bx8yChrfE/iw1OOfB+W7HxJuFhnWZZO0EbTFDjHffXuAvsH7K0akp0HYF87QRAEoTFgcPgRaVCix0NlAgK1txUKMl/jncNgB5WyKuHaG9kRXtaW9atYf0CZc3jlj1XvTigNS2yAOFAM2NtSDUw4LRLbkcTYhLtt4zK7LoQmxXZuMZXgiIyMRK+jpfLzc58O9/40LPsrAXzAKZ4/+FL4OfiRltb4H88Vn6QLXvfId53/UQ62f5VJSYI2aq/AOSJVuwnKAWBz85FsfTX2tRMEQRAaAwaHD5AGJR/sa7cXrA2QzShIcI6eGgh6ZVFGgEOpBEekdbunMHmJ9QeU6ckrv7k6d4EhMLnTFSc4uIAAr3nYE05LdXDvPqMT7rnfzkSvn73J1I4qAX7+6PWzVDdvnp0B934G6J9YNsgAHzCb5w8MnhoAP/Katb4sJ8YvjO/LEh787IDtX2XUPwTtJPs51LsL7B+wuRAkW2+Bfe0EQRCEBoEBIhlpYKJt2mQAArUhCgR/JwXnmKqBgNdm+W6aVHqRu7Qozn3xEGvLOyzsCyjzPX756t0FpYFJXZeS5AbT5cvHdmNPOC0VW0DU2ISbPd2BXT97U88POhttbzcXV/T6WagcuO+XFt//k7DskAF+oIvgSYvKwmPAl0RZ44OCDizyF/gzra3DYYuaCtooUIFzvKPenWC/gL01Q7LzGOxrJwiCIDQKDBJ7kQanH7Gv3R7QKfN+8mzBObZpIOA1qmtfdeJ616vOnR3XweRxKS6XSiU4Ut2u2XLexcK+ELyeIvqEhxrApO4SP8EBcgJ7y9TAxFOyvl+xyuiE28PNHb1+9qaxn4422t4P7t1Hr5+FcoZ7/ljxvY/6KgL4gX8KEhwGr82AL7lvrR8SLDbKRZzZoDN1/LEx7dK7vl/V69yXH2Rg+20zGipoo+MKnKOpsC8IywF724pk55uxr50gCILQKDBI9EEanJ6C/op9/WUdCNJWKRD4CRcYvaKBgNeoBjR8l2tc6R1uy9CWRo/xXPmpwRaFATu/s+W8nwv7onh7xJLyd6l3F/wXmNC9JUhuMD0HW3PQwMRTshbPXWB0wh0fH49eP3vTrKkzjLb3jWvX0etnofbAPe/Cu/+7YdhiCbxdlZgchJ+DL9lnrR+Ku/2TA9+n5SUEGex2xVfvetUTG1Z8p6hltYrB2H7bjGYK2mi2Aufoqt5dYJ+Arf0dlI1k552wr58gCILQKDBI/A2UgzRA9ce+/rIOBGmbFQj83hScw9h2fujaOLiFPrnBtAH+bey42Ov7Sy8uGunNsR1VbDh3X34bQZk1BAkUlAVGYTI3ViTBwaVnpB3RwMRTsmZN+9bohDs3Lw+9fvamVUuXG23vn4+fQK+fhZoE93wq7/4X3aJVLcAX7BD4hkr8z22ZvLstGJAlTNz6bJgYauz4Lu9XTWEJDqa1A5q5Y/tvE9oiaCMl1oH6TN07wf4AWxuGZOPsicS/YF8/QRAEoWFgoDiGNEidxb72sg4EaQdkDvoiRM6h2Xe7e9Sp9irBsXN4K9FjXOb0Yb9slpoEhJ9ab+u5G/PbSLCYIFMd9e6C/wKTuatiCY7AJ94bNDDxlKypE782OuHGrps9ytRWsXt27EKvnyXKyn7WSXD//wZ6HcMeGeALRgl8w7f8z9lE2xZflBHo6MQvPyPAwcnYsb3qVkssSXC0qlYxHNt/m9B1QRv9nwLnmPn/ETYB9nYdyc5RnpAkCIIgyhAwWAxCGqR+A9FCXzYAQdpVmYO+cyLnwA52RbV7ZOtXyQ2mE5+3Fz0u5Mhyg9dT3JcMs/X8b/PbCMoM4ZWfrN4d8F9gEvcP9jqKWILj7r3Lq7AnnpZo4ufjRCfb9WvUQq+bPcrUrjU/rP4evX6WCO73RiI28DWGTTLAH7wl8D/u/M/Bl/SzxRc92TffU1B+oevcfqJbxn7cvGZsSYKDad/HbdKw/bgRhQvbEf4WLfM5vlfvLrA/wNYqg/5AsnN6vYggCIIwDQwW/wvKRRqo5mNff1lGJ//rI0sE5dfUQLArqnFta5dKcDyc1lX0OOHWsE8f37H53Pw2gjJbCCYY29W9C14Ck7i+YskNpnPnDq4teplQRJ+AStEXn4gvetmsTgP0utmjThw5ZjTBsXLJMvT6WSA/uN+Hi9jAAwybLAF8wj2Bj2hZ8hn4kw9t9UeFaVGlXlWJub7vkdhxc7o3jOMnOIY1rfkY249L8bHF7XRN5nMY7IRFSAdsDStpnlpEr6cQBEEQUijCe03F4JUIQjoQpGXKHPQNEJTfHTvQFdPDad24ltUqvkpu9KpbTfS4x99/bvD0RtiJ7+WowxslbQRlbhKco4dhTykPTOLWGUtwgI6DrfloYAIqSZ8OGS462W5ZvzF63exRZ0+dNprgWDp/IXr9LNBPcK8vFLn//wQZbNGqFuATvhH4iOMln4EvGW6rP8oIeFTqNZW8xOAnYsft/6TNM36Co3GlCunYvtyEKvLbEP6/Vuby76p/J9gPYGvJSDa+DfvaCYIgiDJCEd5uKkw9sa+/LMIm2QoEle8KzjFeA4GugbYNa1nq6Y2xbWqLHhd9eYfI6ylD5aiD/p6F8l4DZfDKf4pzN+gTHDoTCY6HYGcHNDABlaRh/QeKTrZb1GuEXjd71JWLl4wmOBbNmY9ePws0Be71g0ZsYDKWbYJfqCD0Q6Dq7DPwJett9UdBBxcJX1NhO0clCY+7P7Urx09wMO39uHUItj83ovb8NoT/j5a5/DCcu6HsA3Y2BNHG22BfP0EQBFFGgEHjL6A0pAHrAvb1l0UgQGsmc8D3TOQc32sg0DXQ563fL5XgWNq7iehx2ZGPSwX9aV635apDBGg4lPmdYGJxCONegMnb/4B+N5HgiAQ7+1IDE1BJGvhhX3pFRUWxrWCNJTjmz5yNXj8L1MREou8mhm2WAL7BQ+ArtoAPqQ3KksMnFaZFZfPLT7h33EHsuFbVKobxExzDm9V0xPbnRjSK337w/8ZynwPrXijrgJ39gmTfIdjXThAEQZQxYPDYiDRosYWqKpmvIcEHArQRMgd8j0TOcVYDgW4psV8hm1WpUCrBcfDTtgbHPV77hcHTGyGHl8lWD7Y7S25c4G+CcwxGuBVYgkO4c4SBwMZqa2ACKkkDevYWnWw3rlUHvW72qDs3bxtNcMz7bhZ6/SQqo9gWnpmwg9cw7JMBvmG5wZau68fvlcsfsd1T+GXnJ4YEix03rGlNV36Co0nlConYPt2IFgvbUIFzVMW4F8oyYGfvI9r4AuzrJwiCIMoYMHg0Qxy4aEVzC4HgbJHMwd4BkXPIvYipzdo4uEWp5AbTvamGC4xGXdhaOsGRFsW5zusvWz1iru/LFkxY8jDuAwZM3GaaS3CAKoKdpWhgImpWfbv2FJ1sN3m/Lnrd7FH3794zmuCY++1M9PpJ1EW4x6uZsYEPsWwU/ENjYYIjNy7AQS5/FHxoifAJEfaaSpzwuHUDmvkIX1M5NqZdDLZfF9FPwjaEv8m9tW1njHuhLAN2thPRxikhRRAEQVgODCDhSANXJuj/YV9/WQKCs4MyB3tzRM6Rq4FAt5TGtCr9ekqfetVFj8sMdCy9e4r3L7LVwX3xEIOnQ0CnMe4DBkzcTkhIcHQEGzupgYmoWX3YuZvoZLtRzdrodbNHPbz/wB6e4JgK9/gQMzbwA5aNMsBHRAv9RuzNg7fl8Ekuc/sWQHm/8suO/+WIg/C4W5M7ZwkTHOPb1dFh+3UROQrbD/52U+ZzjMW4D8oqYGNvgAqQ7NsJ+/oJgiCIMkoR3tZfTF9gX39ZAoIzN5mDvaGC8mtoIMgtJYfp3bhmVSqWSnBM6VjP4DjPFR8bJCAizm6UrR6RF7YEiiQ4RhnrK6WBiVughATH52Bj4zUwETWrDzt1pSc4VJTTI0d7SHDUhXt8jRkbcMeyUQZbd0PEbzx/vPaLeDn8Uk6M3+NST4jEB/qJHde0coVYfoKjdfVKgdi+XURpwvaDv22U+RzrMe6DsgrY2LeI9j0V+/oJgiCIMgoMIk0QBzAf7OsvS0BwlidzsNdMUH4/DQS5pbR7ZGuD11PYKyvC48KOrzFIcHivGytbPTICHwkfB38BesNYXymNhOQGE1tjp6oGJqJmRQkOdeXspCvri4xGFduBkwQ7+BeWnYKP6CqS4ODyk8MiXGb3KbDVL8XdOewgLNttwQCDrcR716uuEz7FcWdKF1kWO5VZb/HbD/7/mczlX8e6F8oaRS8Xoo9Csu8/QW+ZryVBEARBGAEGkiDEQJXeiZUABGaVFQgm/y04xywNBLilxJ7WECY4rkzsZHBcsvPF0u+6xwbIcn7fjV9zocdWcnnxT54IJhJogTJM2JpLTHB4sePBxnQamJCaFL2ioq5cdM5lfZtY9uRGRYl20BvLVhngK9LFkhy5MX4+LrN72+SfvH/4MkxYbuS5TU7C4+Z0b+goTHAs/rCxC7Z/F1FHftvB/9vIXH481n1Q1gAbG4xo33ewr58gCIIo48BgMhtxIDuPff1lAQjMPpA50Hsqco59GghwS6lTzSqlkhuda1URPS4vIahUkJ/qds3mc0ee26wvK+jAQq4gJTxKMJFAe5cbJmyfSZzYMc0BG+urgQmpSVGCQ125u7oZTXAsmbcQvX4S9B7c20ck2sASLFtlgK84wPcdMVd3OxamRWWxf+dE+z621U9BWRn88jOfOBmsr3FmbIdwYYKje+1q7tj+XURf8tsO/v+2Aud4G+lWKFOAjT1EtG+01z8JgiAIOwEGE7bbQhHSQMa2jK2B3QZaB4Kyr2UO8gzeTYe/Gfzyh6kz4zoYPL3xZds6Bse5LRps8Oto1KXtNp07/s4RfTnZkd76/8O/C3nlFyG/nrLSggQH00SwsXsamJQaVZ+uPegVFRXl4eZuNMGxYtES9PqZ0Ra4p7dYcP+jJtHBV/QpvTbQJqfw0+t1Jf/PCvewaW2lrDB3F375BamRyWLHNar4Tio/wQH/z8H28SIyWBQW/iZ3PempUTOAjTVEtO980D+w24AgCIKwA2BAuY44oG3Avn6tA0HZDpmDvJ9FzpGtgQD3lZb0bmKQ4Pj+o2YGxwXsnGmQ4PDfNs2qczrP+pBLcbn8qpyQIys4j+UjEwXloz4+CxO2kxYmOLiAAK9RGpiYGpWxbWLpCQ5l5OnuYTTBsWrpcvT6mdLVqye/tPD+j8C0Vwb4jBze7k6PmK/JSwwOLvlbdrhnsMucPlb5rLhbhwzW4Xj8/ecRwuM61qziLHyKY+fwVlpbbNTg1T/4m7fM55iMcQ+UJcDODiPa+D7s6ycIgiDsBBhUhiIOaLmg17DbQMtAUCb3tn7fC8p/TwPBbSkNavyuQYLj5y/aGxwXc22PQYLDZW5fi8/nMqcvl+Z161UZOdG++r+HnfjeVVD+JKz7gAETNldLExwgB7CxAOzJqTH1796LnuBQUU8CnxhNcKxdsRq9fsb0/Nfnx+BeTrLi/n8d02bZltL8BUaZXwnY8a0f36/kRPmEW5Pk8Ns8Wbg+EBd76+Aj4XHfdKx3V5jg+Lh5LU09tQeKFbYd/O2izOfYi3ALlBnAziqAfke08y7YbUAQBEHYCTCo/BWUjjiozcRuAy0DQVm+zEHeeEH5H2kguH2lO1O6GCQ3WlStKHps5hPHUsF9RsAji8/nOv8jLt3vQalyQo+v1n/21OeuI+/vf4L+g3UfMGCylmjFBI/z8HTcjz1BNaYBPXtTgkNFRUdFG01w/Pj9OvT6GdGfV6+dtPjppWK1x7RZ8BlD+b7Fc/nHCcy35ER5l9qdKS/+SZD74iEW75YF331eKlkS7eslPObsuA7+wgRH8yoVDZ700IBKJaPg/5tkLt8V6z4oC4Cd/YBo4wnY108QBEHYGTC4rEUc2OKwr1+rQEBWT4EgsofgHAs0ENi+0rZhLQ0SHEOavGdwnMfS4QZPb8TdOmTRuTyWDmML85UqIzNI9+pz9osr7zNnrPugBCsneExpL357kaKBiaqBBvXuJzrZrle9pn5LU5K8unH1mtEEx9aNm9HvBzGlPU12sOHeH2/espQFfEcGz0c5MN/itWpUnNB/FaREZHj/8KVFrwvmxT/xF5bjOn+AQRmNK1WIFSY5rkzsmITt7wVqx283+P8MmcsvxLoHtA7Y2WugLEQ7X43dBgRBEISdAYPLu0Uv9x/HGtxo5WwRICAbqUAQ+b7gHKc1ENi+0qQP6hokOGZ3b2hwXNjJtQYJDrbridTz+G2ezOXGBRiUEbhnjv5z98VDhFs8zsK6DxgwUatiwySPc3N7eA17oiqmYf0HGp1wk9TVnu070e8HMV29evKhDfe+weKVagO+Y3+JHwGf41vig5J1Fx4K/U9hWlR+wM6ZIVL9WJrHTYN1OKIubXcUHtenfnV3YYJjVreGDtj+XqBv+e0G/x+owDlqIt0GmgbsbCaijbMF5ythtwFBEARhh8AAcxNxgPPGvn4tAsHYarkDPJFzBGsgsH0lth2sMMFxYcFnXPDBxaWOEz55oX/8e+Wnks7BXkExmFiwLWbdr786JuLMBp3g82oY90AJMFFrbkuC4+zZA+wJjnzsyapQnwwehj6xJ73U4QMH0e8HoTIyngbYct+DTmLaLQN8R2++L3FbMDCzxM8UpEYYPMmhT1Jc3OYnxZeJ+CkuN8bPYHHOpX2aRAsTHJ1qVnHG9vcCXeC3G/y/qQLnGIh1H2gZsLUkRDu/gn39BEEQhJ0Cg8wg5GC2O3YbaA0Ixn6RObiLFpT/GugPDQS2ep3/8gOD5AZT/INTXOT5za+O8/lxgsGEIC/+iaRzJD74WTS58fL9+JGvjnsW7MLfghE9AQcTtd42TvQ4Pz93B+wJq1Cjh41En9iTXurEkWPo94NQt26d09l43zth2y4DfEgeL3nx6gkL/+3T/Yz5o6ePb4ea82ds1xSx77ovGpzBP+702A45wgQHKMdxRrcCbL9vYnx6XYFzrMC6B7QK2NkYZDvvh90GBEEQhJ1S9HKx0WTEQe42dhtoDQjGsmQO7u4Kyv9AA0HtK63o29QguTG4eR19wB5zbe9/kxQOpw2fvnC7ZrJsj2Uj9IuQGptMsFde+McXPo3K5X2+HOseKAEmaqNtTXCcO3cwGnvCKtQXn4w2OuFevWwF+poV9qYRAwYbbe+zp06j3w985eblPLX1ngdFYdsuA3zI+f8uBOrjyfc1qe7XDV9VKUncJgSFeq0eHWvKt/GTJ6/W+rj9k0PJ554rP43PCnW72rDiO1nCJMe2YS09sP2+QG/y2w3+nypz+dew7gGtArYWiGjn8aC/YLcBQRAEYcfAQLMCOahtht0GWgECsfcVCB73Cs4xTQMB7St93LyWQYJj75wvSwL2l4mKpcNEJwKRF7YaLZe93pKXGGw0ucF/NYUp6OAiT8ExLbDugxJgojZNhskeFxcf5Yc9ceVrwmdjjU64fz52HL1+9qZJ4yYYbe8rFy+h148vnfNdRxnu+Txs22WADxknWAi0VPIa/FOQMf9U+HJxUoPtX0uUG+vvLTy+IC0y1WVuP/0OXJmBjk7sb5M+GeYiTHAMb1rzAbbfF6grv93g/64ylx+PdQ9oEbCzfsh2vgC7DQiCIAg7BwabKkUvF3zCGuyOY7eBVoBAbKgCweMcwTkOaiCg1eveN125ppUrGCQ4/K4f1Qfs8XeP6Y9LuH9SdALgv22aQZluCwZySU7njU4aXv6a6ssWFC31vYyAR068Y5Kw7gE+MFFbJEeC4+bNs27YE1e+poyfSAkOFTX5S+PtffvGLfT6lej3oqI/z549kCbHPQ/6K7b9gh+pUGqNjQtbnfg+x33JsLSC1MgUU74qO9Lb02PJsGShn0txvWKw0OjLV1zu6JMieQlBgez/J3ZtuiFMcDSpXMHk0yEIEi40elKBc1TGug+0BtjaQ0Q7/x30NnYbEARBEOUAGHDOIwe3VbHbQAtAELZQgcBuqOAcmnk8eetQw+1hmbJj/PTBOls7w2f9eKPBv/uiwaXKC9w1k/2yaTK5kZ8Ywt5hL/U95+96stdT+I987xXpm89Aw9S7G/QJjnUyTfa4/II8zO0AS2nGpG8owaGiTD3B8fD+A/T6lSgyMuSxXPc7SBM7NIAv8TD2mgqT74avQuCzfFM+C1SYcO+4A/97T/bN8zJ2vMfykYn5yWFh7N+PH944K7IOR9GZsR3CsP0/T/v5bQb/X6nAOQZh3QNaAuysNbKd0w9aBEEQhDrAoNMZedDbid0GWgCCsI6gIaAeoDiZArsmgnNoZoG5cW1rGyQ3BnVo/SpQT3I8x6V53DCaqCgp5/Gaz/TrcZiZJHAQ9Ou3ihXWI2j/AuFkob+gzSYXH/upmvcDTNK2yDXhc3V94Iw9gS3R7OnfUoJDRZlKcLjonNHrV6Jr1372ljHBUV9NWzUG+JLlfN/C302lRAE7vmWLjhaa81/slZbH338ezb7jsWxEolE/lxTKkhv6hG1apP9xsQTHhPZ17mP7f56c+W0G//9CpnLZEzPdQaNBtbHuAS0BdnYB2c7plWSCIAhCPWDg8UUc9F6A3sFuAy0BAdlymYK813ll1tRAMPtKratVMkhwbJ035b+vkkT5GA32c2MD9GtzxN48aDaxUZIQ8d00SbQeGf4P+a+nsIVG/5fXZn14x6r6qzBM0jbINeE7e/ZA+u9Fv/+JPYllWjRnvvEEx/ET6PWzN5l6RcX7sTd6/ZjyC/Jy4D79U8YExwdq2qoxwJc05/uh6Ku7RdfVCNw927cwLSpbii9Ldr7o4Lnik3gpx4IuNKz4zlNhgqNltYqStqRVSVn8NtO9TPTLUe4IrH7XImBn9UCYY8Aj7DYgCIIgyhkw+HyOHORuwm4DLQHB2SoZArw0QZn9NRDM6rV7ZGvR11PcrxyTlLCwRBkBDpzXqlFG6wITiwze8Wd47VVH999dbfzVvgdgkrZWxgkfFxLq7409kWVauWQZJThUlKkER3BQMHr9mFxc7rvKea+D+pu3MHUAn5Lw6imM+Cf+xvyQ1+rRccVPX8jp/3wbVnznvthTHNe+6pSIPQ7wVLGkvdi/ZSpzFGa/aw2ws4PIdj4Euw0IgiCIcgYMPv8DSkIc/ApB/4fdDloBgrPzMgR47oIy52ggkNVrYvu6ogmOrLgnsgX3MJngwk+vN1mPwD1zhLsRjC1uq+qgSN6xc8R7SjlgkrZCzknf5cvHMLcGfKX1a9YanXDv27UHvX72JlOvqMREx6DXD8QWF02XOcGh6utkfHQvt+J+9Wog+JSDfB/Dnr4w5ZMiTv/oVpAakSCXH2zz/ns7xBIcUzvVd8AeB3gS7qSSK0OZy9TvfW0CNlah6OWTslg2Hl5EW8MSBEEQGMAANA050F2H3QZaAYIzOX5dOyEo85AGAlm92lQ3fD1lZM8usgT0OTF+XNSlHZzrvP5m65Hu98CR/92E+yfYazxLQamCY6upfQ/AJG2ZzJM+Lj0jLR57Qrtt0xajE+49O3ZhT7btTqYSHGlpaej1Cw0L9JL7Pgd9oba9MnQv108q8RkhoNMZgY8m831M4oOfH0rxkRFnN7rkJ4dF2eoPNy9fsFUswQE+2Bd7HOBpkqAdvWQo8wrGPaBFwM42INv5Z9htQBAEQZRTYBD6X9BTxEEwr4jW4mDB3bsyBY3LBeU6yVSuTdpj5PWUDYtm2/S0RuLDU/qdVCypS2FaVCavHBZUXxM5TodxH8AkbaXcE79796+4Yk9o9+/eSwkOFWUqwZGTm4teP/ZkkQIJjrEYNgu+YrzQf7gtHHSX76vyk8MiLfFRQfsXPH4W7KKz1jcmBHt5iiU4QL9f/7pTCvZ4UKyNgnY8LUOZqRj3gNYAG/sP6DmijceC0LdtJgiCIMoxMBDNQw54N2C3ATYQmE2QKWgcKSg3TQOBrNHXU+5dOG5R4J75xJGLvrLL6OKh5vRk79xSu6dkBD46Z+TYzzHuA5ikrVJg4lf44rcXv2LaONsphRIc6slUggO7bhmZT+MVuMcxExzVxHxIXkJwqQSFz4aJwZb6K9f5H+VGnPnRMSvUza0wLSrLEl/Zq2UzsQRH0fTOmnlN5bKgHeXaKrYBxn2gJcDONiPb+VfYbUAQBEGUc2AwegOUizgYsrU4yvVTHDp5fr1iasgr800NBLF6ib2ewpQW6cflxQdy2RFeXOYTJ+7p4ztcistl/ZMZbLeUqIvbuOBDizmf9eM5lzl9ba5HZqBjqUlH8E9LXESOS8e6D5R4goPJx9fNBTPgvXrpMiU4VJSxRUZrVayKXre7dy87K5TgQElKMsBnuAv9SNydI/f4vibF9arNiQWvVaPiQg4vcwH/+CDd954D+E2XvIRgthtLyRayvqBHucnhNzrUfV80wdG6eiWt7KYSJGjDT2Uq9xus+0ALgI1VLsJ9eoM9Efw/2O1AEARBEFp4X3MzdhtgwibVcgR3gjLbaCCI5TYNaSGa3GDqVbeaavVwntmLTQDyeZOOF86zPiwQOXY11n0Ak7Q1Skz+zp07iLoOx4N79ynBoaKMJTga1ayNWq/C54V5cD++UCjBMQ7LbsFnzBD6Ee9148L5CY6C1MgkFfwc82d7QPUbVnznNyOvqRSdHfdBDPa4oDMcrxrJVO4FrPtAC4Cd7UD2Pwux24AgCIIg9MCgVBV5UGRPcVTCbgcMICBrK1Ng5ykodzR2AMs0tOl7RhMcHzevqVo9wk6sceFPOLKjvF2NHFsZ616ASdr3Ck3+uKjoUD8s+3Z3daMEh4oy9opK28bNUOvl6npfqac3mL7EslvwGW+A8oS+pCA1Mp7vc/y3TVPr6Yk7DSu+E20swQF+9xH2uFCs6oJ2lKPMHKz7AJsi/DiOPTnyJnY7EARBEMQrYGA6gTw4lsunOCAgmy9TYLdfUO5y7AD20oSORpMbTNM611etLtmRjz34k43w0z86mGtDtYFJ2jqlJoCXLx8PwLJtH29vowmODs1bcSMGDCbJqGa164u2dZc2HdD8+2+///772bMHMhRMcIzHtF3wHZuE/iTV40ap11Seev+iVmIhoWHFd+4aS3A0qvSOcMcoLPUQtKG3TOV2R7oNUAE724kcw23FbgOCIAiCKAUMTs2RB0eW/a+A3Q5qoxPfxcMafSko9yR2ADu3R0OTCY7V/ZuqUg/X+QPYzil/8CYbhS5z+uSIHFsT5y54iZIJDqan6SnRGLYdEhxiNMFBUk99u/ZE8+8BAV5uSt7bGkhwVBf6E99Nk/xKLf6ZFpXl/F1PVXxeq2qVjhpLcDD9OKj5Y+zxAfS1oA33yFRuuVu4vAj/6Q2md7HbgSAIgiAMgAHqGvIAWe4CE53Io81Wqr6gXE/M4NVpRneuY80qJhMch0e3VaUu0Vd2P+JPNLJC3XQix/2EdQ+UAJO09UpOAm/fPu+GYdfx8fHok3vSO/qnO7B8+/nzh2LsOcHBAB9yXOhXClIjSr2m8mTvXFUSC6Na1tpvKsHR9f2qBgujImiDoP2+kKlcH6x7AAuwse3Isdsh7DYgCIIgCFFgkGqFPEiWqx1VIBDrKFNA90yk7HzM4HXXiFYmkxtMD6d1VaUuuTH+3vxJRsiR5U4ix9XBuAf4wCRtk8KTwN/zC/Ky1Lbr9PQM0Ql3qwZN0F/nsFe1bdLcoL0//3gUil+PjArxU/i+ZkLfmhJ8SDOhX0lxvXKX73vSfe45quHztgxtedZUggP0642vO8uyuLUNuiJov4Yylv0W1n2gNmBjVUAvEOO234vo6Q2CIAhCy8BAdRs5ybEOuw3UAoKwWTIFc7cF5b6NHLhyI5rVNJnc6FlHnR1U3BYOyhA8Jv5U5LiTWPcAH5ikbVZ6IujkdMdZbZt+/vy5aIKD7faB7GvsVt9NmaaZ9r58+VhAeUhwMNikne9bvNeOLfWaSkFaZIoafu/+1K4+ZhIcRV+0qY292OgTkfbLlansvhj9jwHY2DZkf3MEuw0IgiAIwiQwWH2APFiypzjKxVocEISdlSmYWyIotylm4Hruyw/MPr3xdYe6qtQl6uJ2p1IL/fncvStyXEOse4APTNK2KT8RPJD164sXqtt1jbcrGky4B37YF9PP2LUG9upj0N6zp3+rej3S0pKjVEhuME3Gtl8G+JKWQv+SnxwWwPdBflu+CVDD9zWpXMHLVIKjMf5iowUi7XdLprKXYvS/2oCN1cD2NaC62O1AEARBEGaBAesh8oC5B7sN1ACCsBiZgrkugnL7Ywau0zvXN5vg+GFgc1Xqkh3pXWr3FN9Nk3wEx5zH6n8hMEnbqcZkkG3XqbZNN61dz2DC3bphU+zA3G4l1t7LFy5WvR5XrpxQ4/UUpqnY9luCTvAUR/wvR+7wfVCKy2UHNXxf/wY1rph7imNhr0bOmGMFqIqg7ZbIVO4ZrP5XE7Cxo8i+RhNPPxIEQRCEWWDQ6o48aBaBamG3g5LoZHyNRKTsiVgB672pXbk21SuZTXBc/7qT4nVxmdsvv9Tj4SkRcSLH1RfrHwxgkrZLpclgXuHzwnw1bbp9s5YGE+7qb1Xgfi8qwvQzdqns7GzRV4LWr1mraj0SEmOCVbqfmaZh228JOsFTHB5Lhyfw/VB+clikGr5485AWv5hLcDSrUiEca6woVmdB23WVqVw/rP5XC7CxeqA/EH0NOzf62lUEQRAEIRkYuFyQA/XT2G2gJBCAdZcpkHskUvYGrIB1WZ8mZpMbgxu/p0pdQo+udONPLJIczzkIjtmF0PVGgUnaPrUmhM7Od1V9iqNHh06ik262wwqyn7E7+fn6irb1rq3bVa3HpUtHQ1RMcHyHbb98dIKnOHKifUutxeG5/OMEpf2f07fd8xtWfCfdXJLjx0HNPbDGC9BXgnZ7Ta6ysfpeLcDGriP7mnLxlAxBEARhR8Dg1Qc7UAc1xW4HpYAAbIpMgdxykbKvyFS2RXKY3o1r/25lswmONf2bqVKfjAAHx9KTipH8JzjYYnb/weh7Y8Ak7YCKE8L8X1/8WqiWLQ/o2Vt00u3l6YXtY+xON65eE23rwwcOqVaHhMTYcBXvZaZZ2PbLRyd4iiPo4CJ3vi+KubpblQU++zeoYfYpjtbVK/lhjBfFMtgaXsbxy2539gAb64jsZ/4ENcJuB4IgCIKwmCL8pzhum69l2QSCr20yBXHtRMoOxQhW2boa5pIbrapV4u5M6aJKfQrSItNLJhQ50b6ugs+XiPULJjBJ+0nNSaGT0x2dWrb88aChopPuMz+fwvQvdqk923eKtvW502dUq8OlS0fV2DmFr7nY9iuk9ES9B1eQGhld4o+ywtzd1PCBR8e08zWX4GA68GkbVRY+FdFlkXYbK1PZPTH6XQ3AxlyR/Yxm1q4iCIIgCIuAQawndrAO6my+pmUPCL5uyxDAJRkpGyNQ5T6sW91sgmN+z0aq1MVr9egY/i+mwQcXO/E+Twf9S+0+NwdM0o6oPCnkcnKzE9Ww4wljvhCddK9cvBTbv9idZk37VrStb1y7rsr5Y2IjvNS+j0Hzse1XiE7wFEf83WO3edtVZ6jll7vUqqozl+DoWaeaDmncCBZpt7dkKvtrjH5XGrCxIdg+poie3iAIgiDKMjCQOSIPpF7YbaAEEHxFyRDArRYpty5GoHp0TDuzyQ22+Oj9qV1VqU/k+c1OvMVFhW09B6PPzQGTtJNqTwyvXz/lroYdT/t6suik+4tPRmMH6nanj3p8KNrWD+7dV+P8f54/fygSIcGxGNt+xQBfc73E77jO/ygN/NHzEr/ktWpUrBq+8PTYDhENK77zm5kkx6+3J3dWLenCl5F2uyRD2d+r3d9KA/b1V1AYso+5ht0OBEEQBGETMJi1ww7YQcOx20FuZAoOK4qUOwAjSJ3Qro7ZBMfKfk1Vq0+qxw2HkolE3O2fHvA+Y09vvIbR5+aASdpphIkhWy/BX2kbXjBrjuiku22T5ti+xe5Uu3J10bZ20Tkrfm4fX1dHjHsYtAzbfsUAX9OD75cyg3SvEq9hP68VvjanmPo1qGH2KY6vO9R9iDF2gN4XaTc5dlM5gdHnSgI2Nh7bv4BaYrcDQRAEQdhMEf5q3aGgv2K3g1xA4FVbqeAN/j5H7QD1l2+6mE1uDGr0rqp1Sve971j8KHim67z+BbzPNDkRYsAk7RzG5PDcuYOxL357oeiCo6uWLheddDM9fZqOHbDbjTzdPYy2s9ILurLXneB+ykNKcBg8zaYVwOe8Wt/C58eJQbzEq4Na/vDOlC554IdTTSU4mlSuEK322FGs/kbaLcjGch3U7mslARv7O0iVVwpN6Cp2OxAEQRCELMCgVr8Id791pgnY7SAXEHh9KENQ2NhI2SfVDlBX9G1qMrnRrEpF7tKEjqrWKd333iP9JOLO4Vu8vz8HvaV2f0sFJmmXkCaH3P37Vx8pab8b1v5gdOJ98/oNTL9iV9q2aYvRdg7wD1D03JcuHfXDun9B67Dt1xjgc0bxfVNWmPtD5ptibx5wUNMnbhrSwuyCozuGt/JWe/zQGVnwGf4+2sZyI9XuayUBG5uD7F9YDFgPux0IgiAIQjZgYDuKPLgmgf4fdjvIAQReE2wM3Ay2huWVrfoOKj3qVDOZ4GAJELXrlKy78LAgNTIR/l3I+/tWNfvZUmCSdgNxgshFRYV6KmW/OzZvNTrxnj9zNqZfsSsN6t3PaDuHhYYqdl4Xl/sOmPcuaCO2/ZoCfE9EiR/yWj0mWP+Kyok1Lmr7xT71q7ubSnD0qlvNSe06gS6aaLebtpStZh8rCdjYW6BnyP7lEHY7EARBEISswOBWAzt4Bxmd2JclIPBabkPQFmKi3NfVDk6Pf9beZHLj4+a1OCf1A2bOd8NXIYF75gh/jaylZj9bCkzSbmFOEs+ePZBe+LxAkSA6NiaWa9+spejEu2X9xth+xS4UFxdvNLkxsFcfrqCwUJHzpqQmhiAnN5i2YduvKcD3TOP7otgb+x3cFg7KVNsvskWem1WpGGUiyZEPx+SoXK9YE+32nq50ktpS/UfFblYMsLOtyP7lOagKdjsQBEEQhOzAALcNeZAtAFXAbgdbgaDrgJXBWjaogYlyu6sdME/pWM9ocqNX3WoW7Zpy7atO3J3JXZSq63U1+9gaYJL2AHuieE3BXVXS0tK43l26i07Ad2/bgelX7EIzJn0j2rZsgde8/HxFzvnit9+enzt3MA77vgXtwbZfU4D/+SdIkcTB5QkdOYfp3SQff2H8B0mNKr6TZSzJMbtbw0dqjyOgt0203cc2lNtMzX5WArCzOqAiZP+yAbsdCIIgCEIRYJD7T9HLTD7mQHsYux1sRWf9FnhdzZSr6gKj7MmMdjUqiyY3WlevxF2eKH3djc1DWnItqlbU78aiUH37qtW/1gKTNAcNTBT1O2EoZb9soj162EjRifiVi5cw/UqZ1pYfN6K06a1bZ52w79diHcS2X3OAD9qqhG/rXa8617d+De7KxE6Sv7NjeKuAhhXfeSGW4GhboxLGOhx9zLTdfHv1++YAO7uG7F/yQW9itwNBEARBKAYMdOuQB9s/QY2w28EWIOiyZju+MRLKPaVmUHp4dFujT28c/LStpDKcZnTnvu3a4NX3vulUT4m6RqjRr7YCkzRXDUwU9UpMilN069g5M74zmIxXf6uCfqL+e1ERpn8pUyosfC765Ebdqu9yOkcnRc/9+LFOEwm5Yh3Htl9z6OTZPctAw5q+p/edLNl8dEw7yd+b1a3BI2NPcdyc1DldzbEEtEhC+x2yotwyvTg52FlXbB9TZCevBhMEQRCEUYpeLnaVgzzgPsJuB1uAoMvSX8imSCw3XM2gdEaX+qLJjQ2DWkj6/sNp3bhRLWuV+u7F8YrstrJQ6T6VA5ik+WhgoqgXW48jvyA/XUk7Zq+liD11MKz/QC46Kho7qNe8vDw8uc6t2hm0X9smzbngoGBFz52YFOsP90kR9n3K0zls+5UC+KIbcvu3ncNb8XasqsCezpD83Y+b13ooluD4rmsDBzXHEp2JhUYF7XfQHn2/McDW/JD9zFPQv7DbgSAIgiAUBwa8udjBPWg4djtYCwRdMRYEaFKTG9VUDki5niK7pyzs1UjSd+9905Ub3Pi9Ut+d2L6uUnWtqnSfygFM0gI1MFF8pYsXjwQqbcd3bt7maleuLpro2LN9J7aP0awWzZ4n2mafDhnOPXv2TNFz5+RmJ545cyAT+/4U6Cq2/UoBfNFAuf0be1WwX4MaPF9agdswWFqSmalb7aouwgRH51pVXFUeTzIsaENLXvXZomR/KgnY2hRsPwOaht0OBEEQBKEKMOj9HRSDPPDGFpXRbWMh6MqSGJyNtKDMsWoGpNe/7mSQ3BjXtrak77LkBntnvNSaHdUqcbeVWWD0jpl2awHqZHuv2g5M0iI0MFEspQcPrj1S2paDngQZ3WFl+EeDuLjYOOwgXzPy9/XjurTpINpW69esVfz8v/3++28XLhzWwq4pQt3Dtl+pgL95KrefO/F56d2smlSuwG0eIi3J8WBa18IWVSuGCJIc2WqOJ8VqbkEbSt2J7ISSfakUYGtvgLKQ/U0E6G/YbUEQBEEQqgED3yfYwT5oMXY7WIOEoKwA1MPCMo+pGYyy11D4AfWH9aqzQFlKMM191PBdg+TI2gHNlKrrRBNtNq/4mI2296rtwCQtXgMTRQP5+rkrtuhoibJzcrhxo8aITtzZEx47Nm9VbJvTsqD09Axu2YJFou1Tv0Yt7pdbd1Spx81bZ52x70cj0mHbr1TA3+xUwtcJd7RiSY5tw1pK+u6lCR0TG1V85xk/yXFkdLsgNccU0EwL2/EbCWXeVqoflQRsbTu2zwENwG4HgiAIglAdGAA9kQfgwqIytjc7BFyVzQRkuaAOVpSbpGYwOumD/wbTbapXYgGy2e+wNTeGNnnPILkxqPG7Stb1P0baqz7vmDa296ztwCTtqQYmiqLy9nZRPMnB9NP+A6KTeKZmdRpwO7ds0ydDNBD8q6Lk5GRuxaIlXJ0qNUTbpFu7D7ioyChV6nLv3mVH7PvQhHyx7Vcq4G86KuHr7k3tyn3wXpVSvrVp5Qrc/k/aSPr+piEtPPkJjpnqr8NxzYq2NLeF7GMl+lBJwNYaYPsd0APsdiAIgiAIFGAQ7KSBgfgodjtYAgRcjUwEY5mgFlaUWVflQFT/xEZJEH3gU/MBtOOMbtyIZjUNt5OtJi05YqWuG2mvf4NKfp3UzO4LMEnL1cBE0ahCwwJd1bDpAP8A/UKZxhIdbIeQ+TNnc2Ghodi+RzG56Jy5r8eON9oGTBM/H8fl5OaqUx+Xew7Y958ZRWLbryWA30lUwucdGdNO/+QG38ey7bcPSdzV6qsOdV8tOtqnfnVHlceVXCvbsofu5Q8DYmXGyd13SgP2dhfb/4CaYbcDQRAEQaABA+ElDQzGLbHbQSoQcHUyEojFghpYWeYUlQPR/+6YImExO5bcGNPqfdEdV7YOlfYItZX6QqStGoMiSwJqUAXbe1UeNDBJNJ/kCA3wUMOm2UKZEz4ba3KCzzRiwGDuwplz2P5HFmVlZXF7d+7mOrVsa/KaWYJHzWt21n5yg+kptv1aAvidLUr5vQU9Gxn42eZVKkpKRDP1a1DDkSU4WlWr5Kf2uAJqa2V7NgOliJRXKHffKQnY22BsPwQ6gt0OBEEQBIEKDIb1QEXIA7IbdjtIBQKuQSJBGFux/h0byrykZhB6/evO+qB5VrcGkpIbY9vUFk1uzO7eUOm6/lvQTmwHgzze55Nt71H50MAkUZJ8fd1UeV2F6czPp/QTenOJjma163NrV6zm4uLisScHFsvT3YObMekbs9fI1K5pC1WfXLl374qWX0spJWz7FQN8zLegiaA3BX9vp5Tfc5rRXTShzJ7kODK6naQyWlWrFNCkcoVoNceVYi2xoa1rgEJEynzN9p5UnqKXi7fHIfujX0FlYtcxgiAIglAUGBC3YU8SQJ9ht4MUdIa7ndi0yjt8/x+6l4uSWhpIButsWM1/ed8m3EMJi4qyrV/FkhvTOtdXOlC+ymujpqBzgs9FX1/BAiZob2NPEC2Rp6eTakmOqMgobsKYLyQlAJj6du3J/bBqjX7HEQ34JVGxV1CWzl/ItW3cTPJ1zZnxnX6xUZXq+MetW+e0uqCoMf0fth0LAT/zS7G/YYnVDaD3eJ+lKuX/HKZ340Y2N3wlsGW1itzJz9ub/f6lCR0TFvVq7GRDHXx1xl8bMSVvG9u7YvHYxi/zXdt7UnnA5uZh+yXQcux2IAiCIAhNUPRyS7N05IE5CfRP7LYwBwRbM3mB12oZyhtsZQA6CaToI8hzujcUTW5M+qAu56RscoPpC9AQkFiQnqyz4YkZJYDJ2fsamCBapEePbjqoaeMP7z/gWtZvLDkhwPRBi9bcgllzuHOnz3A+3t7c06fpqvumpKQk/VMaRw8d5r6dPJVrUa+RRdfQq2MXLsDPX7X6vvjtBXf16kkv7PvLCrXCtmMh4Gf6i/ifK6AuOoV3vjK2qHO7GpWVXPeoREdAu638rk0JCd3LJIcnrzzN3RdCwO4qgAqQY6go0P/DbguCIAiC0AwwMH6OPDgzrcJuB3NAsLWmOOgyun2pheUdtjKI/A/osVIB7ur+zUSTG990qqdGcoMpy8RnFu9SozQwOWujgQmixbp584wz2N1vatl4bl4e9/2KVVzNilUsShLwVa/ae9yooSP0r7Rs+uFHvdg2tGdPneYcHjzkngQ+4VJTU83WJSEhgfPz9eWcnXSvdOPqNf1OMGxL18F9+ltdR6ZGNWvry3rx22+q+dCCwoLMCxcOB2HfV1bqMLYdiwH+JsCIHypU2g+yp+yGNTVMcnSuVUX/qqGC594H6mXld7+Toc3fBrkVl9dXjn5UErC9nzQQP/XHbgeCIAiC0BwwQLpoYJCuhd0OpoBg60eQbPvLQ1kZVgSQD4u/66NEcMsWHhVLbnzX1fyaHSpooVxtLycwOeuugQmiVbp06ahf4fPCLDXtPDYm1uwuI2VVLHnDtobNzMxU1XemZ6RFnz17IBn7frJBF7HtWAzwOSMxfR57XWVUy1oG/rhHnWrcL1O6KHXePcXXnmPFdx/J2PYnQZp+fRVsr7UG4qZL2O1AEARBEJoEBslmoD+RB+r72O1gCgi2ZHuNBsrqamXw+W3x95/IHdgeHdOOayrYprBxpQr6NTswg/xiPZGr7eUGJmc9jUzaHmpg4mhW584djM98lh6ttr2HBIdwC2fPRU9KyCH2+s3m9Ru45ORk1f1mdHQYeyUlD/s+kiidkb8vxbZjY4Dvccb0fWyx5687GK6HNKTxe/rPFDjn/uLrPm3l92V7hRDKqihXWUoA9ueJHDOxhUVrYLcDQRAEQWgWGCh3IQ/WTEOx20ENIHDbamXwWKv4+zFyBrXXvurEtXu3cqkAulmVitwWZbeClao/QM2x+8wYMDmrZ2TS9iYoTAOTSinKjY2N8MawebbOxXdTpqEnKaxRg3ff57Zu2MTlFxSg+Et3d4cys1MKKBjUzshn7bHt2Bjge1qA/sT2g4s/bGyQ5JiuzILPx4uve5yV3/8Ku8/UAOxvrAbiJc0mBgmCIAhCE8Bg+X+gDOQBO76oDCw4aitWJijCeN9PlyugZY9B92tQw+AR6DNjO2AnNkpk84KuSgMTtHzBhM2/+O9l6vUVr8e6R1i2n5aWpn8Kgu2kgp24MKePBw3lTh49zhUUFqL5ylu3zhl7GkKr+qjYJoR/j8G1XvOADzqoAT/IHfq0LdfhvdKJ6E1DWsh9nvPF11zZyu/fwe4vpWExCigFOVaKxm4HgiAIgigTwKA5DXnQZvoBux2UBALAtlYGjht5ZVizvayoZnSpb/CrIFvF38R3xoHCVQrqbdp6UC1gknZNMGnby/vsoAYml5L1y91LDmCDRZg+ID4+ntu7czc3qHc/9GRGiT4dMpw7ffJn1dfXECq/IP/ZxYtHArDvEwvlxbMHT8FnK1GM1gLAD1XQWbd1qjVi29PON/b5rcmdS63L0aJqRbl3VrnBu25rF7N+C7O/lAbscIMG4qRy8bQrQRAEQdgMDJp/A0UgD9xsctUEuy2UAoK/zVYGjT15ZcgW0Ja8msKe2jjwSRtzx68sPv8hlYL9pmgdZQEwSRspmLRN4X32D5CPBiaZknX58jHv578+x976UK+Y6Bj9binDPxqkakKjXvWa3GcjP+X2796rf7oEux2YMp+lR509eyAJ+/6wUE9BtXn2sE3wuU1bi6oF+KJvVfJ5JessnTd13LoBzbn2xb6b7XAl4/ndede8wsoyJuD1lLKAHTYuQk4Agxyx24EgCIIgyhQweHbBDuRBHtjtoBQQ/IVZEzTyvv8fOQPq3SNbc1uHtpS6YF2r4josUSHQ34LXS5YDEzV/3qStieCzGqAMDUw2Jev8+UMRObnZiRrwBaWkc3Titm/ewm1ct16vlUuWcVPGT+SG9R/IdWndXr9Fq7nkRbM6DbgeHTrpkyYjBgzWa9yoMdyi2fO4A3v2cb4+PujXKVRKamLwmTMHnmHfFxaKLX7aWmAL/GTgcXWt1DbAJ7mq4PcGFJ/rC3PH3p/aVZ/oOC3v64TJvOttZWUZdruzB9jiY2xfAGqE3Q4EQRAEUeaAAXSZBgbxadjtIDcQ+NWyMmB8yCujvgpBtjH9o7gO4xU+TxLodbyeshyYrPUrnrRlGvm8M6hQA5NOC3TgWXRMmJcGfEG5lp+fe1lbb4MpC9RGxA7e5R1TV3nLlA/wSXVV8LHNi8/VBsvPC6452YoycnF6SFnAFmdj+wLQLOx2IAiCIIgyCwykzsgDeS6oKnY7yAkEflOtDDqX8crohhT48hc5HazwuYbh9JBtnHm5FsdtE593AuVqYPJpkR49uumggcC+3On5r8/zbtw444rd/1YoVyy5wbMD9ppNmVxrCXzTUoV9X7Xi87yO5OeZKvCu96SVZXTB6yX5AXusCSpE9glO2O1AEARBEGUaGExrg54jD+gXsNtBTiDou2FlsNiRV8anSEHvRV4dOit4nls4vWM7MGn7F2iwmWNagTI1MAm1SOfP/xSc+Sw9FnvSX14UnxDtf/bsgWTsfrdC7MmNtmZsYBToNXmtTz3AR4Uo5f8E50lA8vWNeXWYaGUZa9XvGeUAm7yP7BPYmki1sNuBIAiCIMo8MKDOwA70QX2x20EOIOB7zcpAMUdQzndIQe/3vDo0V+gchaD31O8ddYHJXT1QnAYmoxbLw+ORI9jkHxrwC3apF7+9KLh//6oTdj9bqbAzgvVn7BHwUT2U8rOC89xH8vX8Ba3fs7IMX/V7RhnALidg+wXQJOx2IAiCIAi7AQbWh8gDewKozP7aVwIEfP2tDBRPCcr5ESno/YxXB6XeRV+qfs/gABPBSiA/DUxKLdalS0f9MzLSIjUQ9NuVYmMjvM+dO1gmE1+gK6B/YNuVWujM7HJipTIE59iF5OtHC+oRYGU5VdTtFfkBu6wCykH2DUZfeyQIgiAIwgpgcK2FHfiDtmK3g61AsLfNyiBxhKCcM0hBb2teHaoqUH6UmfbroOM9RWIPwITwDdBDDUxOrdLdu5ccCwoLMjXgH8q0nj3LiLl69YQHdn/aoCPYtiQ34Gv2gmqb+LyOAj4wVnAOrKf1FgrqsdrKcj5XqHtUA+zzIrJ/yAdVx24HgiAIgrA7YIBdjD0JAHU0X1PtAsGenxUBYi7oNUE57khB7795dXhbgfJ7mWi7tcXH7FOyjzCAyeHfQdc1MEm1SmfPHkiPjgmnnVas05+eXk6PoB2fY/ejDdqAbUNKwPOzX5o4ZofMPjBYUP4AJF+/R1CPhlaWc0Ch7lEFsM9hGvARM7DbgSAIgiDsEhhk/wcUijzQR4D+F7strMGGhMAhkbLSEQLedEEd5F7h/7KJtrvOO66TEv2jBWCiuEMDk1WrdevWOeesrMw4DUwIyoSiY8IfX7x4JBC732zUVGy7UQrwNTN5fkd0wcxiP5giox/0E5TfCMHXMxks9Ax/87ainHCl+kdpwEbfBKUi+wkf0F+w24IgCIIg7BYYaD/AnhSANmK3gzXorN9WtZWgHKytA91ErknO8usZaTf+rjPBYsfYEzBhnKWBSautiQ6X7JysRA34Ck0qMSnO7+LFIwHY/WSjCkAfYduLkugMk9KbjRxn7S4jZv2szvqFqW1VkMh1TrKyrEpK9ZGSgK3ux/YVoKbY7UAQBEEQdg8MuD9oYNBvj90OlvL/s3ce4FFUXRgO2aWDothFUbCCvffe9VcRaVItIAiIqGAX7Eh2N4HQkpCE1N0NTUREAQEJHSxIUWmC9N77yv2/2d3ostndaXfmzm7O+zzfE0hm7px7dmbOuWdn7kWSl6IhMfwuQjtXCUp4iyLYwqvtck+pBNsfF7ZdFyM+G6uBgWNbCwxgdWvSpDEzdu3e+bcF7heW0MZN65aMG1c4X/Tnwqm4EdevCypFuu+F3YMGRtluFad74fQIbf8t4p4fpZ9anlZpGqktK4Pr9Q7R9wvoTdF+IAiCIIgKAwLvEsGBP+6+yS/VNm/GDRHaaSIi2YX6RbCFV9uXhbVbG5oRts1WqMKs0IABZEsLDGS5aPw37jlbtm783QIDBiH666/lC8eOzftF9OfASbug6+TP4MSgNPJy2PkRttP6dEO4pkRo+ztB9/yzItjSVUM7cTdBOK7bpYLvGzNE+4AgCIIgKhQIvtdCPsEJQLkBt1Up1faYccTJ2fD7NwUlu+WenjAiocf/b4BWRtjuPaM+H6uCgeRzFhjQctPo0blLliz5aabogoMZOnjowK4FC2b8WFKStUa03zlqH3S9/JmbWEj3qAj3o9nQeWHbbeZwP4z01N4AQff8iE/p4PeLVLYz36jPxghw/b4t+P5xCKov2g8EQRAEUeFAAB4kOAmQCizXiPaDEpDg3akyIVwH1Y3SVqagZLfcCif43SEO7Y4Lae+dKNtIxznFyM/IqmBA2cUCA1ve2iu9vrJh49+inwTjrpWrfl/wzTfu2RbwsRG6U/T1IALce+6Ocl/aDT0bsh2P11QmRDi+lqcmeKhtFH/coKGtuHj6DtdwPeig4PvIu6L9QBAEQRAVEgThOtBOwYnA76L9oAQkd71VJoNR5xjB36YKSnbPjWDLfk5tF0PzY/w9LieW5QUGlu9ZYHBriEpKhv81e/aU6du2b14hujihVes3rP3thx++/lFaLle0Pw3U46KvA5FIhYcY96dvoUmc7oVfRzj2g4Lu+R/F8EdPlW3dauwnxAdcz98Jvp+sFu0DgiAIgqjQIBh3FD24gCIu32clkNyNVJEIdpNpa4eARHd3FFt2mXDsvaVRnmapSGCA+YkFBrkGK3Pnd9+PjosnO/7447c54772Txh6SLzfDNeTos9/0eAe1Nike22kAkc9Afd8SSUyPlET17oa9+nwAdd1B9H3FSjuJmQlCIIgiIQDAXm2BZICS78XjuRuhcIkcIhMO+cISnRnR7FnmwnH7mXMpxJ/YKD5hQUGu6bI683cMmnS2Bm/LppXunnzhmUi7y9HjhzZt37DmsULf5o57Ztv3HNg3x7R/tGq/PzBavd5WvR5bxVwL8o14X73TZRjHxBw34/5hGRpYG6pBQrbijinlFXAdX42tFtwHjNTtB8IgiAIgkjyJwZXW6DAsUS0H6JRqnyC0UkK2rpfQJIrKSOKPVqWDFSjP/h/IvENBpypogfJojRyZPaKCRM8s2fNmjztjz9/m7t9+9ZVXAsZR48c2rJl4x9Ll/48a8aM76Z9/XXRvJKSrLWi+81L77z7Nnv7nbfU7NNE9PluJXA/OgvaZ/A9L1qBY56ge391GZ+cVhqYM0qunbnGfCp8wPU/3gJ5zBWi/UAQBEEQRBAE5iwLJAefivZDJJDYXaIg+ZMmpztZQVsvC0pyIz5erDCx1aO7+X8i8Q8GniNFD5atJOlpj1GjcpZIBYnJk7+aMXPmpGnQ9FgqLf1++vffjykdN65gwchR2X+ijR2i+2Gk+n70AWvarC3LykpTuk9P0ee5FcE9qZvB97xvoxw3W9C9v9xS5RFsu7ZUfsLpXfw/DT4gd2hvgfwlXbQfCIIgCIIIAcH5FGi7BZKE60T7IpzS6DPwl0l69LiRwracgpLciBPE4ferDTympZeFxWDxOuh9aAo0HZoIDYI6Q1caeWwMPqtCC5QMVN97/x02eLBD+ACbJE4O52f+4kb3V3so3SfiE1u8gC3VoTuh9lAf6KvgNZQJ3WHksXmAe9MoA+97E6Mc0+jCSjR1VOiTZgraOo3vJ6EfX2DVlL2C85b1UG3RviAIgiAIIgwE6M4WKHBY7lUVJHVtZZK+ZiramiUoyY24xF8pn2URIyniY9pWAYOwBdKAUUZ7g8WPTyDuT6JgEHoatFpusNoNg9pnm7dlrtQvhA+0SeZr8BAHPv92/nMgMzNVyT7jeZ+rErgGboP6Qz8ruHZWBwsfpxthi15wf6oNrTS5wHGLoHv/cBV+6SPT1k38PgU+IGeYZoG8pZVoPxAEQRAEEQUE6q0WSBYs9aoKkroPYiR8b6lsS0SCOy+GPUY8wbEGqqPf83zBwK8B1Ou1119PUTBAi1bwKIQe4GzTllgD1mEZLv8At+VzHdjQoU7hA26SeRoxIp21afui//yT5t9QsM8sKGIxUws47pNQFrRN4zWzB7Lk4A/3qKsMut9Ge0WlmqD7/yKVfsmN0ZalVghBrvC6BfIVmmeKIAiCIKwMgvU7FkgYJF0r2hdlIKkbEiXZG6qynes0JKe7oTd1JrgpMWzi/S3mfuga/V7nAwZ7laBHoO/LBoHDhrmUfAMtpzVQF042NoZ2xRq4ls2/0Kr18xj0DhI+8CaZo44vv+L/3Fu3fZEVFg6R2/5XiMtj8jjmc9CfKq+JtdCsCL/fysMmI8C9qrUBBYWoT6/hbzN1tt1R434xJxqNYOekKO1wuefxADlCYwvkKZI6iPYFQRAEQRBhIECfDz0cLG7Ms0DCIMkyr6ogqRsTIdH7XkM7PTQkpk9CDXUmxY/EsIl3geNRfd7mgydQ2HgQ+jnCQHDv+x+8O6t7jx6/tmn34madhY7l0FMc7L0FOhht8Op2Z7BOnbv6j9mla3f8f5jwwTfJWH3R7+N/z7PUNNnXk1ZCul8HwbHugX7TeC30gQ0doJ+KioauC7NP+r/0dMlg6AWonl5beYF7Vl/O98CvYxzrUx3t7g220VvDvveo9MlJ0J8R2umj093cQI6wyAJ5iqTZ0FvQg9B5ov1CEARBEBUSBOHHoVILJAZyivrkgZkgqZsdluT9DNXS0M44lUlpz+B+F+hIiqWZ8aN+e4e/reCY2L+ox888wMCpCtQN+lvhQPJwuw4d13N4omMSpGsCPtjyBHQ8mq05OQNZi1Yd/Mfr1buX8AE4yTgVFAzxP7Uhfdav9ewpt/1uqIHeawfHGqHzGvgTduxT0c9voaf12s0D3LvyON4Hv4pxnDt1tLstpJ3hKvftq8EnDaCtYe0M0uhiriA3+NAC+YmcpkMPi/YVQRAEQSQ8CLiZFgj8avSQaJ8hqVsekuBJ/z5TQxvS+9cHVCSk3UP2vdSIZDvYdqRv6bToMy2+5QUGSjboeY/ywkaZfC1addjPocDBgt98nyLZY3d6qkBnQRdDjaDG0DXQXdA90IPQU1CzUD2bmVfcMzeHRdPzjlR2Z8fX2d0vvsa6OJysT152OfWFPs0fzvoVDGeOMKUWZrF0aFhRJsss/k8j3Jms2AIDe1JAPd943X9OtWn3IisoGBxr23+g+/VcOzjO6U2VTRwqq9zc9Oka+is92XE9nzuBdnAPm8rpXjhG5jjbNba7I6ydDBX7Rp2HScZWafnYvSHtuLW0wxPkBLdaIC9RI5donxEEQRBEwoJA67BAsFcraela1QUFniCp2xlM7qQJOTU9Wo39HlORjD4Xtu/VOpLt1jJ2LeWQ0Odo8QkvMDi6C1qqZSBZWDhkGafihl+Pte64soqj+DO70/MVNAP6BVoCLYWWQ5uhrdAu6AjE1Ki6y81qpBSxGv3yWc0v89kpqcWQ+wTVhc5MK2bnDChm50P1BxT9qwYDi9jFUOP0QnbloP903eBCduuQAnZ7UHcPLWD/y8hj7YaPYN1zctjH+cPZkKIs4QP/iqC0Af3+PZ/S0/vLbd9bz7WDY5wKcbsG3n3v7dk6+j4cOoXXfUEtpYHXMn7hcD8skTnO5xrb3RuhrU9U7K/pFSbsd3vpf8X5iBOomgVygerQCgvkJWr1vki/EQRBEERCggDb1QJBXqsmifRdMLGTllM9V0cbqQoS0H3QgxH2vVljQiz7rR22Wawzmc/T6hO9eAKTc47XM5hMTf1iGs8Ch6TGPT9RVbSIJ9V0udkNgwtZ++Ej2Nsjsv1PhOS7M4UXBRJF0kSibdu/5D+P3n7nLbntx+q9hnCcbM7nvzSPjJrXVMK1HWrO4/6gBdzPToUW6bwnFsscQ1qidqOWtqO094rC/Vvo8Mtd0EFottY2eOCLvydQQ/WcfA8JgiAIglAEAutdFgjuevWGCN+VBl4t2QVdFm0b2Cb7/ntpYOnUWMmnlFRfGmXf2zUkw9K70xcqsEtPMi+yuCFNZnhE74Dyha491vAucDzV8nnhhQgzVMvl9j8RIhU8nssawd7Ly2bZxVTs0KO33u7tP4fadejIioqGxtp2MaRqZYxwcJxavM99ScOHp83h4IsJ0Dm87hdqCBY5ftVxXyxQcAytc3FEfMIFv78f2iSzb2EsmxDHVkNjfFGemMT+zaG5yrzIH9jVyQJ5iF5dJcp/BEEQBJEwIKBWgdZYILDr1TGfoKVjkdSdH+n3sOckyBO0b2aM/e+VSTxjvqOLvz+oIRFW9E47tvtJY6It7L1iDHz68RhMDinM5D64K1PVlCLhBQgRqgxJr8dIr7s8m5nnnzdEmhNkUFEWK3SLLyBYWRkZLv+50/K5Dv5/x9h2B6R7tQYcq44R537vt3pFWrlIizZCUQvLRlIaeMpiisZ7o6JX9rBdKw1tR/3c8bfToKIY+0pPYJwUaV8ptobE2r+hiDEP+1+gyIGckQoDwRxAdB6iVwuhSiJ8SBAEQRAJA4LpFxYI6ry0Cqop2qcSkh3BZCXUvksibYukcFSUhHMa1FjuWNjmaZVJ8ONK+1FafoUYJeqlxlc8wYDndV4DytcGDjSkuPFA+67CCw1WUVVImhPk0vQidvPgAtZ2+Aj2YV42vdYSQZ27dPOfPwqWhL2T1/WE4/1gxDUAG/dw8stO6Ape/VVLqfrVSiQNUdH+2yrbjhhjwtqUCurR5lZ6PdI+iF2PhcWyn9X4yWhgzxIL5B+81EO0PwmCIAgibkEgvc4CwZy3Yj5maxaw49sItj0Zvh0SykYRksz1UDOlx8K2LRUmv9KSsE3V9CNYZFGTYLdU0z4vMFg+tW9e9mueGMuoqlWrN981pMDR6PXEnYODl6q5PP7XWx7LyGev5OSyj/Kymaswi+UUZzK3BYoNZsuV+oX/3On70Qdy23J7jx9t1cvMTJ0qLUPL+xoYNDillKN/tkBn8Oq3WnDPe0/lPVLV023Y/n0VbTdS0W6P0sC8TqH77y6N8JoLYtczEeKZ0Mmjy4Ad6RbIO3jqoE/Ba60EQRAEQUQAQfQ3CwRzI/SEYL8OjGJX2/BtkUwWhySX26N9gxYL7NNGQeK7AlL9fi/2+U5hYi0lxty+OZYDg+Ba0K3Q61DOeQOKZxZxLG5kFRnzekqLVh1Y7+zh/sH6Salu4YWEeJH0lMcFA4vYNYMK2QPD8lm3nBy/D0UXHszSgIFfsjfefENuu094XmNozz9XRnHxsOOt27zA9Tro/mqPRZx99B3PvqsF977WKooQn2to/yFom4K2VT3Ngu3rQs6wNt4N3w6xq0mUmNZNbV94guM/YIF8wwjNEelXgiAIgohLEEA/sEAQ562p0G2C/fpkDPvKzVKPZPK3YJFDegqjmpZjlsq/qz0Cqq2x7dEKkuqNar45VAMGt1WgC6H7oU7QCHtgadUTBsDSXA48B0xGvZ7SO/W/uROaZ40QXjiId0mFj+sGFbKW8OUbOAf6FQxnQ4uyKuJTHjGXHlUL2rsntP03er3J9Tp4tnk7qRjJ6zWVMnXk6QO1lAbmQtqv4H5ZroCgsP1zoIkybWuak0R6agPqBH0l3fPD/47Y9WiUmOaD7tVyTF74ApOkT7RA/sFbb4n0K0EQBEHEFQicl1ogePPUfOgxC/i1IbQnhp13G3FcJKQPREh0padBPpaSYp1tF8gk1NIysvV49aUMDF4vg7pBXmgBtAP6J9IgV5q/gfeAsVXv97gXN55r8wIrCplIMwWDcdEFgkSS9FrLuQOKWaP0QnbP0HzWYfgI9iV8XJD4k5fqXjElHLQ3KPQY/VM+Pcr9NZVBKTM4++EAdBFPP6gF98IboR0y98zuOo8hvdY4pDQwKWh42xEnCdWLL/brrDuh0404rkobpYlGvRbIR3hKdk4VgiAIgiCS/InAfAsEbh4aBUVcOlUEsGWmjL11jTguktrqkBuaDo2FuL2Hj7YGx0jUx0G1eBwHA9TTocZQ22BRQ/HA9gsMYnkOlKSlTJ9t3o57gaPLZydODik9ZSANykUXBhJdNV1uduPgAn/B46P8bDawMCuRih5cVkwJB22uDD1OUdHQI7yviZc6dllhgD++5u0LtUgF39LYy2u343Sck6EupYHXCKV7/0c82o0EYlcNmdg2wahjqwW2NArmBqLzEx6aJdqfBEEQBGF5EDB7WCBo69Vo6ELRvgwF9rwaw94NUF/RNmoh+BRIpCQ9E9K9nB0GoA9Bg6Fp0FLomJrB671D87kPGt8cnG7I6ykD8ssfq96AYuEFgIqk09KK2cUDi9htQwpYm6wRbEBh3L/Ocj+P6zwUtFkv0rG6de/h431NFBQMWWKAT4S+piiBe2NNaGaUe6fwpw21gBj2STCWRYtzL4q2MRTYcz30vQXyFb3qLNqXBEEQBGFZECjPhw5ZIGBr1S8+we/7RgI2NZCxW3apV6uCZLxzhAT9ba3t2QNzakhParwETdUzWK3hcrNhRfyXE235xjvcixtt3/kw4rGuHVQofNBf0XV2WjF7JjOP9RoRmLg0L36WqFU9WaUS0G7LSMcbMsSxnvd18fEnH043wC8LjfCLFnCvLIxw/7xatF1a8cV+VeWAz2JfPEj4AvNirbZA/qJV+yFdr5oSBEEQRMKCIDnBAsFai1ZBz4r2XzRg2zwZ+5uItlErSMbvD0nMN0jvmGtpBwPJOlATyGMPPKkRcT4NNZImluQ9OErLzzDk6Y3PcoZFPN6Dw/KFD/BJAUkFswsHFrEbBheyTtm5Vl+lZT6UzPt6l0C7qVGOebxt+5e4XhetWj+/C+0eNcA/3F7T0wvume3DChxc50sxE8SyFjKxbppoG6MB294OFmFE5zNaNEq0/wiCIAjCciBAtrZAkNaiD0T7Lhawr6+CPuyDLhdtqxaC73kfgiZBZyrdDwPGZOhse2BOjbF2la+eyKlOqtuQeRRe/Kwf9+LGsz3einq8NrSSiqV13oBi9uiwfPbuiGyWbp2Cx06I+8S+ZaDtadGO/emnfTbwvj6ystJmGeCjv4zyjxZw77ypNLBU90zRtmgFMexqhQWCcsuhWwXYdiaUa4G8Rovi9osSgiAIguBOMKjHWt3DiiqCDEvieQD7blHRn5VQHdE2awFJ+flqtsfAsB70CVQKHTJi4Nl+OP+nN4YXZ7JnWnXgXuB4c9iQqMd8PTdH+CCeJK/aLrd/7o6nMvLYx/l8J7VVqX+gu4y61iXQ/qZoxy8qGrqT92SjXV7pZsQ8HJLeNNJPWsC99CzRNmghmEP8rTDW7YZUxQyz8QWKNXMskOeo0SboZNG+IwiCIAhL4AtMyik6OCuVNM/G7aJ9JgdsrA2tU9k36VWWaqJt54098LTGFVBr6AfosJGDzboGPb3xisvFvbjxzPNdWGEMW52FWcIH7yT1On9AMXs6I499mJdtyDwwMaR5/hsloP1acja81vP1vbyvk7y8QT8b4KvtUE0j/VURCMa6xRpinSGvUPEENvb0xde8ZLmifUYQBEEQwkFAfMYCQVmpuon2l1Jg6xiNfZRmdbeLtp8X9sCEoQ5omd3gwkaZ2hrw9Ea+O4M17fAy9wJHZ1dqzONKK3hUtcCAnaRN0qtSjdML2fPDc1lmseGFjimQ7pWLYoH2G8vZMTx7wN+8r5Nur/b4xSCfvWukvxIdX2B5WK1POvQRbb8SfIHJ17+zQP6jVA+I9hlBEARBCAOB8BRoqwUCspyW+OJojgrY2klnf0tE90ErGNTZoAuhrtBksweUJ2FAOcKAVS46pzhkB2FPtXye3fSK8hVWnmn1vP+1F7ljS0+kiB6ok/RLKlTdPLiAvZabw3L4Fzu2QhHnwMHvL4Me4nF9o507ldjzYscuSq+DA1C+km1zc9PnG1Dg2MrDLxUVn/5lVq8V3Qel+ALzlG2zQD4kJ+lVoRqi/UUQBEEQQvDFx2Ra2VBV0b5SCmy9CDrIod/DRfdFLRjEnQV9BC2AfCIGkU9n5nEdAElPbrybMUR28PVAh67spM9z/Tbc9VJPRYO7Dh9/rsiG09OKhQ/OSfxU0+VmNw4uYN1zcni+SvVwpGsSv28FHYJm8bjG0c7dSuxJG9DvL4UFjjSpXfy8EdoUa1tpRZXc3IFGFDk68/BNRQMxahyHOLdMdD/U4AvMNTLVAnmRnFJF+4ogCIIgTAcB8F4LBOFYktZ2byXaT2qBzTM4+sAluj9yYMB2KnQ3NAraL3LgKH1DPrSIz0oWKSMyWPsPP2bNWrSXHaTd/3x3Vr1/4b92NO75iaICx4ACZd/iV3WJH5STjFEtl5vdPqSAvZ+XzQZrP3cHhF+X+F01aGjINpN5XO9o50aFNvnatH1RyXXw78oP+PfF0Ea5fVq26rC/70cfzHS7h0Wd7FSlLLWiSjyA2FTAMc6VO3+tDmx+zQI5kpyuF+0ngiAIgjAVX2DVDtEBOJp+hi4Q7SO1wObOBvgiXXS/IoHB2clQO2gKtEX0QFHSTYMLYg5k8ooz2AdDB7EPhg+Lus2I4kxVS8E+1K4Lq/5lwQl2NHhb/nWWlm9/qGjwJc3bINqvJON1cqqbXZZepGWujo3QCY+j4/+nQwvDtuOyNCfaOUepbZ991nebgmvomtD28f/LoB1Krr3mLduz1NQvpsWyISsrbWpOzkAlq7A04+GfRAfxKBkqMSDOcXmFykx8gac1f7FAvhRNv4j2EUEQBEGYBgLfxxYIvtEkLf8aN6+klOELTES23yCfDBbdvzLsgUlDX4U2iR4UhuvtEdkRBy+5xRmsx6efsmYtAstXNmn/sr+QEb7d57kZrFnHboqLG0+2eoHVDr6WEqpzPkyX3feDrKGKBonSKhyi/UoyV9Vcgbk6OmbnstTCLFYU+zWWTqHXJ/5/EbQ2bJv9UC0e1z/aqQTtUXLuFhcP3a/gCajTw4+B392i9BqUJC0jW1w87K8Ix18Z8noLczg++yOGvTN5+CfRQSwaZVCMk+a2iDiHjJWRchXIY4G8KZp6iPYRQRAEQRgOAt5lFgi60dRbtH+0AtvnGuybLJH9w8CrNtQNWgodFT0IDNepqW7/iiMnDHCgV4cMZS3avlRuUPT6oPR/t5OWae3UL4U921z5oErSOR+kR7TljL5DY+7X7OUeir+hb545QrhvSWJUGWowsIg9PCyfuQojvr5ywqsV+H8TaF+E7YbxvBegvfFKz99evXsdlLmOakc6Bn7fQ821KD3NMTC9/48nPEHyed9p4dt1eL7T1vyCwZOi2HsBTz8lEog/NmiswTFupi8Olo6NBOx+3wL5UyTtg84R7R+CIAiCMBQTBuJadBiK20eEYfvnJvkp2+y+YaB1NtQK+l30gC+WpEFg6GDl9dwcVj+1gD3Z8oXIRYZXXmOf5gxjvYcMYs0791BV2JB0Xbf3o9pS95PMmPv2GDhQcYHj8vSinWhza4g2Qn9A86Bp0FdQiVKdP6B4njTnQ5mkyS6vG1TIroLOGVC8MtjmtPoDitdLy5s2xAC73oBi/0Sn0go1tGStGEl+x2fnXwL5s/zhrChwfvgnx/QE5ttIj3EeXcbznoD2eio9f3NHpG+PdS3EOg7+PkPtddmte49F2dkD5korrrR87vk9UbabAdtugKaF2duLp58SBV/gtRSznlL4RHR/teILrLJy1AL5VLhGi/YNQRAEQRgGAl1HCwTbcK33xdFSceHA9ttM9pcpRQ4MqipDD0OldsGThyrRqzk5LLc4k72UncvOHRBYdeSsPoNVFy6U6H+tXiw370aoTvs4I/rTG207Hi9wZxxXMjgsdGdsR3v3hOkO6CqoPnQ6VEXtZ4u2/y47hrSKh+S3LEia+2FIUdaPzbNGNHozN+e+jKJMNqAwi/UvGM4+xqBamggTv2ev5OSy1lkj2FMZeeyeofn+4sgptJStKaoinddpxezJjLyj1w4qlF5HuRJaEeM8Gsn73oA2r1Ba4JD0Stfusa6nqK/O4G+Njbh+QwsrwUJHgSew0swE3r5KBBBz8kyOcfeL7rNWYPst0FYL5FXhirjKEkEQBEHENQhwdaHdFgi0oZoOnSraN1qB7TWhtQL8Ji2dW8mIPmEQdSbUwh5Y6vUf0QM6pZKeMghfbaThWymGDI4u6dUvkg3SsrjboEXnvj/wt2j7pjg+K1UxODRkglm0+57McbdBL6kZxErKd2ey9KIs9kX+cPbWiGx/semhYfn++SSkIoj0uoVUCKlGq8JwEfx4WJqnIyv2pKR3G3QOrVJ6XqSmfbErxvV0Rqzj4O/ZBhU5Gob1R3oK5jwjfBWvSDEGKhQQ36T5OM4S3X+twPazoTkWyK9CtQ6qLto3BEEQBMEVX2DyTtFBNlRS4hSX79uWIdinXOfkwICpCvQA9IM9Dp7YUKKLeylfDUWpnnjuxeNVU4qkV0TGQNlQX+gtqDl0L3Tp/R26tYm077PN2zG3e9g2FUWD23l+xmWg3TPVFi/0SJrjRBqESxNmSpOm9hqR4y9+PJOZ5y9+1B9QJPxciVfVdLnZnUMK/MWlCL5fbMT5EzyH5Ipk/wrn/DFpks8o11T9WMfB3y8yqMBxTazjEv74NkJgfJsuuv96gP2VodEWyLNC5RDtF4IgCILgBgLbPRYIrqH6TLRP9II+PGMBP+bp7QcGSTWDA/P5ogdrvNXgbeVPcFzR82N23/MxH6X36+kWHYbI+RTbvRhp31e6dv9ZRWFgnd7PNhZoP9XMIoecsosz/XNL9MjNYU0y8/zzglw4sMg/eWwVC5xLVteDw/L9rxuF+fUpA8+fepCiV63y8gbt6dS5a7Rr6ma5Y2Gb6QquYS9UqKLAcZNRvkkEfNZYGeRF0X7Qgy/wBEy6BfxYJh90qWi/EARBEAQXENRWWCC4lqmLaH/wAP2oBvW3gD/dWvuAgdFFUDG0WfQAzQid916aosHOXS/1lLZfge1nK9j+MTm/YpsPY7XR8rnn96an958mMzD8UuvnqgS0f7onMO+A8OJGJEnzgkgrh/TJy2adsnP9q8lIuntogX/iU3rN5UQ9UL7A8ZOR50/wHIq1msrxTz/rO13BMrHPyB0H2/RWcF2eBVWH1ioscDQy2j/xCmLKGMExbRf0nmg/8ELqiwXyhDLNFu0PgiAIgtANAlofCwRVSQehJ0T7gzfo0w3Qb4J9m6vUXgyGkqELoT72wJwRwgdnRknpJKMPt+387yS3+H/U+TOCijopYkgbuUqOm5c3aH6MAeLlWs9JpUhFFNGFDK0qwmBemu9DmvBUmufj8vQidmZasX9pVdHnndmqm+pmw4rKvaLS0oTz53/RPp8BA76crLDQ8JrccbDNVTJtFIRs21Lhcc821jvxiU/MnBuh8kIJNxcK+tTKAjlYmV4S7Q+CIAiC0AwC2eXQMQsE1M3QVaL9YSToXxdoj0Afy746IYEBUSdojj2OJhDVqjqfZSsZ6HwX6h/8/+UY205V4mNsN1/JIKtP3/enRBkgztRyDqoFx6kL7RFdrOChoUVZ/ldcuuXkskeH5ftX0qkIxQ7pSRZp6dgwf6ww6fyxQVsifR6vdO2+UGGhIVPJsbDdphht3BS27Xq54xrjkfgGMSRfcJ7QW7QPjAT9u9tnjYne90Pni/YHQRAEQagGAcwO/WqBYLq6ogRT9PMCaJFAX3si2WUPPLVxHzRZ9IDMYB2Efoa+gXpDtykYYD0b6iv8/6QY2z6n5DzAdgeUDO46de76Q5QBe2se56MScKx3RRcnjCx6SJOZ3jc0nzVKL2QnJ+BStjcOLvAv7xvW96Ymnj+fRPD9P81atFuusMChqJiH7fpF2f/3CNvGfEUMWsrfE/GLL/C65fcC45a0Etn1ov1gBuhnI2iLBfKyWb44n+SdIAiCqIAgeL1rgSC6FIq5DGCigf6eBJUK9PkJE49iEHQ69AH0t+jBmEE6Cv1qD7xy84w9MK9IjbL+YzATa6C1IdJniN+PjbDtIiWff1P5x+n/VfOW7TOkwWDY4HAnVEXfWagcT2B5zM2iixFmFDvez8v2z+Nx+5ACVtsV/8WO6uhDX/QprK+Gz70Rdv6c7yk/2egynN+lCq+DQ1A1ueNgm9OgPRH2/zjCtqfLHLPEGG/EH4gXNp/Y4oaUI9QV7QczQX8vgv62QH6W0E/MEARBEAkGAlc9X2DOC5HB82foVNG+EAH6Xdsn9luagRgA1YL+l4CFjd3QL5AX6gydFuuzkAYzMQY6r0TZ59mw7dZB5yr57LFdN6UFDqgpBoPrwgaHH2g55/SAY74kugBhtqQJOaXiwOMZgRVbpKc74umVlrPTilnP3JxIfbtNwPnjDbNhPM7tviqug3uVHAfbXQcdDNs34mSh+P2QGMd7l68H4hfEimKBcWobFPP+nagEczTRk79LOWI90b4gCIIgCEX4xM+CPgeqKdoPIkH/C0T5f8PeA+w+7w/L7IkziegxaBqUAj0EXQxVVfI5YDDzdpRBTsx5CvD3XSHbKp6wEdtOUjioWyBtL33jHjIw3A2drPRYvMAxk6E/RBcdRElaolZ6uqP98BGswcAiyxc66qS62cf5w1lh+WVhx5p97gTPn2vC7BiO8/sUaIfCayFd6bGw7ach+y2MsZ20qkq0V8Ue5tPz+MYnfinYHNE+EAn6fyb0h+DPYKRoPxAEQRCELAhYDwsOmNN8Fby4IeET8Njv3iNH2edzl7Kzh44VPgjTIWnyU6kw8xM0GmoPnan1c8Bg5poIAxzpW+DrZPYbFLJ9fYXHkns0vkzby9rEYHByyMCwl9Z+6gXHvkd0ocEqkl5n6Zydy+4YUuB/UqKqhZakreFy+22LYPcR6AKB548nxJZU6Xc4x+9QeD1sVHocbPt4yH4xlxzH39tEOR7Fp3/+uVRwniBJSEHOSsAHp/rEr8Km6AkqgiAIghAGgtVygYFyggX6r3kwzNGG6832/cZ9B1j3KQtZzbQS4YMwjTpgDzyl0R26F2oIyb6brwQMaP4OHUxB1yrY5/KQfaorPM5rCgZzW6Gry/bBYLAgOCiUnqCorKefesHx80UXF6ykfHcm+yJ/OOuUncsuHljEqoi/Rtg1gwpZRvklYSW9JfjcqQcdDtry7ysgONcfUVjkuF/JcUIKlnuUFCqwzaNhx5mip5+JBOJGY5/4icgjvmJksh8aCD6+NG/XXIGfQbmJegmCIAjCMiBQ9RIYJEdDdoF9r+sLzAxebtI5k+2oAf1plt/3HTnKvl21gV2UNV744EuldkALoRFQG6i2UZ8JBjUpIQOcN1Ts9zW0WcX2i2QGcdLSmReG7oPBYAtPYJLGh9T0yQg8gWVjd4kuLFhVAwqz2LOZeezqQYXsFAFzdkjzhKTBhgi2LYFsFjh/+kA+6IRBK875m6C1MtdGvpJjNA1MNiptr/g+j23zQo7zotp+JTqIIw9BXwnKGxZDXArZOvq/D8oRnL9IK9l8KzB/e1VU3wmCIAgiKghQp0EHBAXHTKiSwL5fAq0K2vKCQDsaQgvN8vuhY8fYuzN+ZWcNGeuzQMFCqX6HHND9UAPI8KQy7GkMxYUEbHs+pGjJTWx3s8wA7pNo+2JAKPQbxFBgSwfRhQQryw1lFWeyD4MrspyeVmzKdVMVkoorEWySimOyTySZBWxpGOn3TQPLL4+IcX1Iq6nUUXIMbNdJzWsm2PbV4DF2QrWU7lfRQEy5A9ogIH+QYmbE88akfq8M2iF9QXKKQDuSoUJBOdxekX0nCIIgiIgIDIyKJ4gzqN+3QntC7GkswAbpPVqHmX6fvGYTu614suhihZwOQ/OhfOhlSNFcFkaAgU1xcJBzhUHtZ0QZuC2ArjTimEaBQeoE0YWEeJH0Gsu7I7LZrcH5Ooy6lu4bms9yiiO+mvK56PNFDbgWHm4aWJUo0rXS3aBjNg+2/7YR7ScSvsCXBSLyiEPQl5CiIhfnPg8LseMvn8BiS9CeVEGfQabIfhMEQRDECSAw3SYoIIoubtzsCzxeWmZPzJUxOB73aqh9MBGZb6bPDxw9xty/r2ENrf1Kyn4oF2oFXQAJf3weg5vzII9BbddpGnnFhrgcUGHQXAdaI7p4EE8qm6+jSWYe90LHmWhvcFHEV1N+hJJFny9qwXVRu2nkZVyXG3S8M6ASI9pORHzil5iX5qNwQe2gq0zo7+1hx18HXWT0cWVsElHkOA7dKLLfBEEQBPEvCEq/CwiGXwju8y2+E4sbkvobcBzpsd3eUAm0TFTSt+PgYZa3ZDWrnzFOdPEimn4PPqnxsN3A+TSsiPQaS9hATVom83zRdukBA+eroKOiCwfxKukVlscy8tmFA4tYdZdbV3FDWsI2wjG2QKeKPk/0ID3ZBI0Ju3aEfntO+GPeDFFxLoaW+ALL2krzjN1qQJ/DX83ZCF3M+zgqbUoR4Of5IvtMEARBEH4QkF4VEARFT+R5J7Q/gl0PcjyG9K3OWgskdv4VUp77ZhY7NX206CJGJM2FPoSuhKry8n88gUHZVcGiRrNEescfA+hOogsF8Sxpvg5XYRZ7JSeXnT9A21Md0gouhe5ybUsTed4i+vzgBa6Zs6EXoBxpElHR9lR0fIHXPoXHPRn9AV0t3xvFfR4e4RhbfCY8QSJj1xcCfNtBZJ8JgiCICo4vsLzYTpOD35uC+/xkDNsULeep4BgPWiCBY4eP+VjOb6vYhZlfiy5ihOoQ9DP0KXQ5D38T1gUD6UGiCwWJoCJ3BvsoP5vdOaSAnaOg2CEtSXvP0Pxo7bUSfV4QiY1P3JxeaiQ9wXkzp/42j3KMXT4DnhhRaZvZRY71PsEr2xAEQRAVGASh/iYHvj6C+9smhm3c1nJHW8tFJ2/7jxxlaQv/YHUHWeapjSPQDKglJPT9ZMI8MJiuBBWILhAkigrcGaxfwXD2v4w8Vic1+qsrDQYWMWfkJWF7iD4niMQHMehsaIfoOKhAKzn198IYx5BWpxO6jLeAXO9dkf0lCIIgKigIQOdCR00MeMMF97ebLzAJVjT7vJyO84TopG3rgUOszYTZrFqqV3RRQ3paYx7kgi7h4V8i/sCg2gZNFF0cSDSNcGey1lkj2MUDi0647qTChzRhaYR9UkSfC0TFAbHoetGxUKEe4dTf3TGOcQx6hsdxdNhXYKJPpVeA64rsL0EQBFEBQfDJNTHYjRbcVyWPaH7C6VhCH81dt3c/e+G7uaILG5KmQO2h+nYLrIJCiAWD62rQdNFFgUSTNE/HgMIs9siwfFbD5Wa1oLbDR0TaNk/0OUBUPBCTWoiMhwqVzamvpTLHkb5g6cjjWDps/NZEv1JBlSAIgjAPBJ5GJga5OT5B72PiuMnQCIV26k480EZlaK+oRG3Z9t3s2ryJogoax6A/ICeUMBMYEvzAILsqNEl0USBR5SgY7n9yo7j837KhSqI/f6JigtjUQ1RMVKjtkO4iPNrIV3i8vhzcqtXGmtAiE317tqi+EgRBEBUMBB2vScFtBXSKoD5WhcarsFX3Y6po4xlRSdrCTTvYne4pooobm6B3IKEzxhPWBwNtO/QF9I/ogkAF0EHoFdGfOUEgRr0nKjYq1D0c+thXxfEyISFFRxz3LGidSX5NF9FHgiAIooKBgHORL/ZcFLwkrQt/nqA+St9SzFRp740cjltsdmJ26NgxNmXNJnbmkLFmFzX2QdOhp6GaPD43ouKAgfe90A4LFAESVcugy0R/zgRRBuLVO2bHRxVycejfyyqPORqqzMO3Gmy91BdY4cVovx6BaOlmgiAIwlh85kw0JQVOIUuA4rh1oIUabG7M4dixJhkzRN4/1rKLssabXdxYCbWGzuDxmREVEwzA60ELLFAMSDSNhmqJ/nwJIhyfdV9XWcWhb800HHeKj9Py9BrsvQE6aIJv+4voH0EQBFFBQKCpD/1jQkB7TFD/6kJLNdrcQOexbzczIdt56DAb8NMfrIrLtJVSDkJz7IFlXmvw+syIig0G4pWhVAsUBRJBh6Auoj9TgogF4ldbM2OlCulavhz736fxuPOgOrz8q9Lmzib4VZqXrLaI/hEEQRAVAAQZhwnBLENQ386Bluuw+xydx+9jZjLWa/ov7NT00WYVN1ZDL0BCXjkiEh8MzJ/w0CsrevQ7dKXoz5EglIAYdg202syYqUBddfbpRh3Hlr6YEfJEpE/dXGVa9YaIvhEEQRAVAASZvwwOYlL7pn+7j2OeD63Sabuub1Cw//dmJGHbDhxiPaf+ZEZR4x9oOdQZosfdCcPBAP0s6DsLFAviTbrnDyAIs0E8OwkaY0bcVKivdfbnMp3HXwnV5+VfFXafDu0w2LeLze4XQRAEUQFAgLnJhATB9Bn7ccwLfYEJTfXaXlWnHfvMSMK6T1nITh44yowCx0DoOl6fE0EoBQP2p6BVFigcWF0zId1zBxGESBDXepsROxVor85+nMfBBml1kws4uVaN7W+a4N/rze4XQRAEkeD4AsuSGR3AGprcp4uhLRzsPqrTjquN9u3m/QfZS9/NM7qosQPKhOhRd0IoGLhXhd6F9lugkGA1rYVaiP6MCIIXiHGNoe9MyFHk1EhHH2pxsmG9T+ecYBps1/v0iRINMbNPBEEQRIITDLxGP2Gw0+Q+SQF5Kyfb1+q0pYvRycGL381jtdJGGlncmAk9A1Xj9RkRhF4wkD/HE5iE9JAFCguitQ16A6JrlEhIpAIDVGTCYDuaXtBp/xFOdmzy6Zz0VIPtBwz27R6foBVjCIIgiAQEQeVtExKDGSb2h2dxQ9J8nfbkG+XXTfsMfXLjn2BhQ1dSRxBGg0F9XehDT8WciFR6YqMrFTaIigJiX2vokAl5S7iG6bR7DUdbTC1y4FgLTfDv62b1hyAIgkhgEFBqQNtMCFzZJvXnMgP6M0anTVqXpo2pIz4fa//tHKOe3NgMfQzVhyrx+nwIwkg8gVdXungqxhwdP0GtoGTRficIs0EMvMPH74kIpdL7ZUcpZ3s2+0wqcuA4XhP8uxGiQi1BEAShHQSSSj5zlgCT9L4J/bnIF/hWg7ftaTpsqg79w9umjfsO+IsbBhQ2FkOfQbpWjSEI0QQH/1MsUIjgLS/0oGj/EoRoEAubQMdNymEkHYU0FxSxb54BNv0NGb5EO46RYpKPS4zuC0EQBJGgIIicBU00MTFoY3B/pNVS1hlke08ddt3K257Dx3yszYTZrGZaCc/Cxh57YGWUyyE7z8+GIETiCSwv+zr0swWKE1r0DzQVehGqLdqfBGElEBO/NDGPkaR5ZSLs+4FBNv0FncPTrxFs72aij7+GzjSyPwRBEESCgcBxl8kJgaQ7DOzPFb7Ao41G2f6EDtu68rRlw94DrM03s3kWNnZDoyBTV7ghCBF4PBmXQ+94Akuoii5cxJI0aeq3UHfoXNF+Iwgrg9i4ysRcprUOO5saaJf0JIdhr6ug7ScF5I03GtUfgiAIIsFA0JgmIFDVM6gvN0K7Dbb9bB325fC0hfNqKaugZ+l1FKIi4vFknAy1gIqglRYoavwKDYYeE+0bgognEBufMzGXcemws77Btu3w6XjCRMb2a0z0cZnGGtEXgiAIIsFAwGgoIEgxg/rS2Gd8cWOLTht/5mHHlv0HWcfvuayWchxaC/WATub1WRAWJc1TI9npPcvmcF9uc7pvxmf+CNTU5vS8DaXj36PtDs8E/O0H/H+WzeH5ye50Lw0WvzZgP+kJn39UnF/H0Na24Dm2HG0ugubjdz/i5yQc6yv8LIQ+hbqg/Sfxt3vw76tx7AZJDu8pSSn5Ql6R8ngyqkE3Qy94AkvPTvIEVijhXchYAX0D9YOeg64R0V8ijumbWykpxVsD10w9XD/StX0b9AiuozZ2p1e6tjNxHY/GNTgR/54KzYF+xu9+x+9WQ5vw/70qY8chu3/yafca/Pwd+/+KY86BDdOl40BjpeNCfWxObzu7w/04/nZbstNzBe5B5yalemonlZQYNmE14uR8k/KZKTrt3GF0zgJdwMmtoXafJSJ3hE7l3ReCIAgiwUCw6CAgQOkqEkTpxwU+YyYUDdcEnXb62zl49BibtnYz8/6xRpOG/rKCPT9xLms5fpYu3VE8eXnNtJIBSFKbQ800SvXTONI+Oo5nJd2d9KW7ip5zwkgwkDgHNj6GQcZHNoc7B4OOb6AZwcljpaLDXpUFC6N1GNoK/QkthCZDY2C/y+7wdEl2eK9JcpUIn1Xf48m4DHoCejf4xMdcaH2xJ4N9lD+c9czNOUHdcnK2vpyd+3u74blTm2SMyLtrSP4nl6QXdrPA+ctFGMA2xcD1iWSH+wGby3MHPq8bMKC9IsnhbpiU6q2X5BxZNynFU0v055YwuEqSJb8mOzzNcV18CH8XBK/t2cFre33w2j5ugWu6rJB+IGjXMmhWsAhSiPOnH342TXZ5L+HpIp95Txhs1mnndybYuByqy8u3IbabnTtKeph3PwiCIIgEA8HCISBALeLch9OhlSbZ/rEOOxuVtbPtwCH20MhpqhPFkwaOYn1mLWZ6+XPnXtZz6s+sMp/kdQIGNqomAMM+rS2QdPPQ5CSX+xSt5wQX+uYmV3J5z7E5PNdioPMUbOqNf4/Dv9dYwD9GSPrmWBogDcbAug36eg/Ov4a2VE9NoZ+DhGNkjRou92QL+Miqkopp23FuLoDG4t9O/OyJn03tDveDNof7Bvz/Epuj5NSklDG03K2rpEqy9FSGw3Orzelu4n/SyeEZbw8UAa1SvOAm9E3q1xR/Qdbpbik9ZQZdoLWIjFg70qS84DStHzH2/dwkG3+CuN4j0d42Afnjazz7QBAEQSQgCBZjBASoyRztrwH9aqLtzXTY2rysna0HDrEHS6aqTgBf+G4e23HoiObCxvHjjM1Yt5XdkP8dq5bq5ZmceuwOT32lvrD7H50Wn1BzkLgCh9NdO9npfg4DgEzYMRNaAR20gE/MlM8eGOz9ZPN/g+3uVcnhFveKh2NkDXvgm3TRfok3SZ/jLnvgdYlf7YFB7ggMeF+2Odw3J6XkVxb2mQogOcVzLvr9PHww0h54KmOdPfB0k+jPyUwdsweeMpsPuaHuSS6PqpVBEGuvNykvuFfrZ419W5uYv/wAcXvlD20tE5A/DuFlP0EQBJGgIFiUCghQxZxsr+Izf4LUK3XY+2lZO2oLHFVcXvbEmB/ZUeyrlU37D7HuPyxkJw3gNilpuKTXCq5KGiz/XrWdChzqcJVUsrk8dTHguRPqhuNOswce+Rbdf0vKFjgXB9mc7sdtTu+lSV8UmTOPh2M0FTgMkVs61+dLrypB7fHv223SSk8pJVVN+VwNJtnpOcfucEvX9nu2wCtkVnptzEo6Ks0dAr0F3W9zeM/EtR3zSR/E29km5AXdtH72vsDE6GbmMCUQl7lP0M6PAvJHbl+QEQRBEAmKz9zl1MqUwcn2DAG2a06ose/YsnbUFjhuKvieLdm+W3NxY/6mHex/Y35klV2GJ6ALMai8Vc4XdipwKCN1rN2W4r3a5nD3x7F+gDbaA992i+53vEiah2CRXXoaIMXTPimtpLZhn5UEFTjMkDT43wD9BJXYne7uSa4Sza8IiMTm8NyNa/tze+AJrE0W8G28SHo9Zzv0Iz7/tGSH99akL0dHfI0F8badCXnBYK3nAPY9SUAe01v7WXuC7aMF2L6ch+0EQRBEAoNg4RMQoDQvqxZi99MC7F6j0+YlZW2pKXA0yPqaLd+5V1NhY9+RYyx78SpWy7inNiJpT7LT82iSoyTqe9N2KnBEJyOjEtq93Ob0vGALDM7p21xOgj932KUVJRzuOzAo4r9qEBU4ROmgLfBaS3ub031NktOiE//2L6lsc3guszm9b9oCr+KI9lui6Dj8udzu8HTH5391Ukr+v091IN5Wg3YanBtM0nNa+AIrnZidz+h+lQ9tDBNg90G9dhMEQRAJDALF+QKCk6Q+HGxfI8DuaTpt/rctpQWOs4aMZcXL1mgqbvxznLE3p//CThs0xvSEE8nmOiSabaP5wk4Fjogkp5ScBb+9b3d6pZUQKto792ZqI87Rr5Od7tuSBpfYeH1+Sak0B4dgHbFLA12np8DmcD+X5CoRssRwRJyes3HODYRtv9mpaGmUjkJ/ws9fJEuTkwZBzE0zODf4S8+p4TNvSdtQ6SrKBO3+SFAOeYZe2wmCIIgEBUHiHkHBSfP7qkG77xVkd7YOmy8IbUtJgUOaBDRr0Up/oUItf+zYw54dN1N0snnc7vC8jsH6SeH+sFOB4wSQkF8EX72P9nZboE8VScdsTvdUm8t7DwbE1fV+jvQEh8Xk8Kzxrzzi9Fxn68/h81VL/xIbzqvLcPzB9sAkquJ9UnF0CH7/EroaMfcmE/IDzctXY1+voJxG11Ns2L+HILtv0mM3QRAEkcAgSLwgKDi10Gl3U0F2f6TD5hOKMkoKHK2+mcUO+9RPKrp69z52W9FkVtXFdZUUrdoDOcP9YacCR4BBY+w2h+cxW2A+gaMW6E9F1UYMRIckuYr0vbZCBQ6raiWUh2vtIl2frxpKSiolOzxdcdxfLND/iippvqLf7Q5P231Hjq4zOD+4Ueupgn0dgnKac/Wc4j5zV4AJlebV7AiCIIgEB0HiY0HB6R6ddtcXZLeemdJfDG1LrsDR5KtStmHfQdXFjTHL17GLh48XnVSWEwbw+Rhc1Cvzh72iFzi+HFfJ5vQ2hl8m2gPLIYruBymgNRgMdU1yjNY2mTAVOKyufXanO8/mcDdOcnF8NSkM3Osewnk03QL9JQV0vHHOhO2z129lh4/5jMoP2ms9X7DvG4Jymrp6znPs/6Agu9/UYzdBEASRwCBI5AsKTrq/RRNkd3Md9n4W2lasAsd5w75iK3btU13cGL9qAzsvY5zoRDKajiDpn4BBRS3JH/YKXuBIdnjutQee2hBtP6m8DuBc/TDJUf7VKlmowBEXsjk9i5Odnm5JfftyWS7zX74cZ7M5vM1wjHWi+0gqr0uzv2Ge39cYlR98ovW0wb4tReQ0ek93tNFYUC6Wrtd2giAIIkFBkJghKDhpflc1xPaDAuy+V4e9J7xjG63AcX7GODZlzSZVhQ3pNZY+sxazOumjhCeQcsLAcWayw3udvYIWOOxOd1VboO9HLGA7KbqkVRmmJKd4zlF1oVOBI77kwGfs9Nyt+oYeCVdRNZwz6Wj3kPB+kaKqMvTJnMVsx8HDvPODQq2nDvZ9QEA+s1PvKY826gjKIcfptZ0gCIJIUBAkNggITDs42b5HgO2X6bD3hFnStx04xB4aOa1c8vXZ3KWq5t3Yf/QY+2zOUlYzzdRlYPXoOCStEPKxBWzhoclJTq/iAkeyw90E+2yygN0kBcKANdvm8Jyq+EKnAkc8ajU+44c13djLcJXYca68ZqfXzeJCp6SPYinzl/HOD2ZrPX2w75UC8plNus75/2w/JMD233jYThAEQSQYCBBVBQQlSYs42S+iwKF5Fn7suz20rfACh/St0mOjpqt6cmPnoSOs6biZrIo1JhOtqFL8BIfN6b3IHph0VbTNJOX6BwNXh+ILnQoc8aodNqe7i9b7O/aVnsqiFZDiSFLM/f6vjewYv/xgg9bzxyfmSYj1Wu0Ns32FANsP8rCdIAiCSDAQIBoJCEqSxnOy/7DJdm/RYWu5YlL4KyqNciaw+Zu2Ky5u7Dp8hL029Sd/kiY6UazgUlbgcLprY6CcawF7Seq1N9nhuVrRxU4FjnjWdpvT/YDqG3zq6JrY73cL2E9SqXu9P7DVu/byyhGOQ3bV508Q7HsgXnKaMLunCsolT+dhP0EQBJFAIDg0ERSUhnGy32y75+qwtdzjp6EFjhppJWzi6o2Kixs7Dh1hzb6eKTw5JPmlqMBhd7qftifm0xvboUXQeGgqtNaegMvd2hzukTanV/4JLipwxLtW2Bzem9Tc321OzzsWsJu3pOVVt0BzoHHQXGi9BeziLukVT455wiVqzp1QsO8Sk3Ma3XNwBO0uFJRL3sbDfoIgCCKBQHDoLSgovc/B9poC7C7SYe/T4e2FFjie+2Y28x0/rqi4sQX7vTxpAT25YR0pLHB4Mi1gKzdhwL8MA7u3oftsDs+lSf291TEwPA1/u9nudDfHzzH2xJpscSX6eZ3sxU4FjniX9EqSR+m9Hduejn1+sIDd3PoPzUW/OuIavzvZ6TkvacDoqvjd+biub8PPjtBkC9jJTVeO+JZnnvCQ0nMnHOz7jck5zWGttobZ3U9QLtmOh/0EQRBEAoHgkCEoKLXhYPsZAuz+UIe9r4W3V1bgkB6R/Wv3fkXFjW0HD7NHRk0XnhCSTpDSAsdGC9jKQ1tsTvdbSs57bNfY5vDMsgcGTaLt5iH5e1eqN5EKHGn/9utLd5Ukh+dcu7P4egx6H8TfukF50DxoswVs5apkh/dGhee4NOhPlCcbVqI/jyUNGiP7moUtMFnyIgvYzEUrdnJ7TaWTkvMmEth3gNl5jVZbw+x+RVAu+REP+wmCIIgEAsFhiqCgdAcH2y8RYHdLHfYODG+vrMAxSeGSsNJrKV0mLxCeCJLKSb7AMWhMNXuCDPJtTs9bSU4MdhWC7a/HfktF281J78h22OlOnAKHK6TAEYnBJTa7w1Mf294FFUIHhNvMSThv+yk8vx9PkH7vQF9aKbuqwZfjKmH72y1gNxdJk41yyhM+V+zDMLBvDwF5TR2t9obY/bigXDJfr+0EQRBEgoHgsFpQUDqXg+03CbD7Wh32fh3e3sb9B9mY5esUFTek1VKe/mqG8CSQFFHyBQ6Ht6EF7OSlK1Wd/M5RVbDPVxawm4cy5PubQAUOp0yBI4xkh+cW7PO3BezmoR8qOUvqyvUZ27WwgK08tChZetVMJTanZ5sFbNetzEUreOUJel5lFVEoOF+rvSF2NxaUS5bqtZ0gCIJIIBAYbJBPQEDycbL/IQG261kittzkYTM272Clm3YqenKj25SFNOeGdSVf4HB6LraAnXyU4m6s6uQfWFgZ+40VbjcHYTA3XLa/jpEVtsAhkUATbi7AgP9Cuf7and7nLGArD/2a7HCrniDT5nQnxOtJQ3/hVuCYrdaHZfjEPJl6hVZ7Q+yuLsBuSVyWuSUIgiASBASGBoIC0p+c7G9pst2rddp7wvJv+48cZbeO/pGNXLv5xGrG8fLFjSZfzaDihrVFBY5YVLgCR0JNMqqlwPGMPbACh2jb9WqZ3eGWHfxRgYMKHGHaoNaHZfjEfPF0l1Z7w2zfIiKn5GE7QRAEkSAgMDwoIhhB33Gyv6vJdo/TYetp4e3lLVnN7IPHlC9whLDnyFH22tSfhCd+JFlRgSMWVOCIZ1GBQwYqcFCBI0zHIdlJWqOBfZeZnNs8pdXWMLvnC8opVb9WRRAEQSQoCAqdBQWjoZzs/8Bkuz/VYev1oW3N3rCNXZr9TcwCxxHfP/7XUqqmeoUnfiRZUYEjFlTgiGdRgUMGKnBQgSOCZF9tigb2HWNybvOiVlvD7PYKyikf5WE/QRAEkQAgKKQICka9ONmfarLdymeXL29rk9C22kyYHXjlJEqBw3f8OMtYtJLVSCsRnvSRFIkKHLFImAKHlwocCqACR9yKChz88oV71PqxDOz7qcm5zQdabQ2zu5+gnLIrD/sJgiCIBABBYbSgYNSUk/15JtutblB3oq2vlbUzcfWG/5KqKAWOYb+uYKemjxae8JEUiwocsUiYAgc9waEEKnDErajAwS9faKfWj2Vg32dMzm14PVX7sqCc0sHDfoIgCCIBQFBYJCgYXcfJ/olm2q3TVpfUxrq9+9nDI6f9l1RFKHAs2rqL1Rv2lfBkj6RKVOCIBRU44llU4JCBChxU4Iig99T6sQzse57JOdk3Wm0Ns/thQTnlWB72EwRBEAkAgsJhQcHoJE72LzbR5kU6bR0ltfNB6SJWxRUyp0ZYgWPepu3sitxvhSd6JNWiAkcsqMARz6IChwzYroUFbOWhX5Jxn1L/ebvftDvdfa2k/42Z/m2fWb8xNZq/cTvPnGGYWj+Ggv33mZjf/KLH1hCbLxaUU/7Gw36CIAgizkFAOEtQINrBsQ87TbQ7X6etCzbvP8jOGjL2xIQypMCx/+gxdqd7CqvsEp7kktSLChyxoAJHPIsKHDJU9Cc4rAhi7vOCcpwy6XoqAvvPNNHWrZx8bvcFVpAx29cHedhPEARBxDkICHcICvrzOdlf3WS7dU2MuvfI0W2dvp9fPqEMFji2HjjMWo6fJTq5JWmWlwocsaACRzyLChwyUIHDeiBmtxCU45RpsU77s0y0VSpKVObk97WC/H0mD/sJgiCIOAbBoJ2gIOTmZP9lJtv9sA5bq89ct5WdnzGufEIZLHBIj8fWHjBSdHJL0i4qcMSCChzxLCpwyEAFDuuBuPu4oBynTAd02v+ayfZqXtY2zO6pgvx9Kw/7CYIgiDjGZ/4yZGX6lJP9D5hs99labV2ze98VD5RMjZhQVh8ylj373TzRSS1Jv6jAEQsqcMSzqMAhAxU4rAdi9t2CcpxQnazD/gdNtvVOTn7PFuRrzavWEARBEAkCgoFbUBB6npP9HUy0Wde8IZ0nzX+3aujEoiG6u2Qqu65okuiklqRfVOCIBRU44llU4JCBChzWA3H7ekE5Tqhkz50Y9p9tsq0tOPn9HUG+/oiH/QRBEEQcg2CwUFAQuoOT/R+aaPN0rXYiYax33rCvVkRKJq8a8S1bvnMPezDK0x2kuBIVOGJBBY54FhU4ZKACh/XwiVvRI1QP6ezDbhNtfZOT35sL8nUhD/sJgiCIOMZn7hJkoeIyEZTP3McgNS/3hoSxU7VU79HwRPLcYV+xscvXsa0HDlGBIzFEBY5YUIEjnkUFDhmowGE9fOJWigtVB519mGOiremc/H6dIF/P5WE/QRAEEacgEJwmKAAd5tiHySba3UOLjUgW60AbwpPIaqlelrdktb9tKnAkjKjAEQsqcMSzqMAhAxU4rIfP/JXWIuk9JbbC78mSIvQhx0Rbx3Ly+0mCfL2Nh/0EQRBEnIJAcIugAPQTxz78aaLdmh4zRcLSPVIS2WbCbHbw6DF/21TgSBhRgSMWVOCIZ1GBQwYqcFgTQXlOqAYrsRN+vxuqF8H+XnGan20R5O86vPpAEARBxBkIAm0EBR8Pxz6YaXe5xEMOJCuXQ4vDE8jHR09nf+/Z/2/bVOBIGFGBIxZU4IhnUYFDBipwWBPE2K2Ccp0yTZCzET4/HZoFnRvBfjOXut3K0e+zBPn7Wl59IAiCIOIMBIG+goLPJ5zsP8NEmzW9VoNk5V3ohLk3pFdTZq3fekL7VOBIGFGBIxZU4IhnUYFDBipwWBPE2OWCcp0yLZOzET5/CyqFakWw/1KT7bVz8ruopWKb8bCfIAiCiEMQBAoFBZ+2nOy/wUSbl6i1D4nKmdCe0MSxRloJ6ztrcbn2qcARQw4L2KBcVOCIBRU44llU4JCBChzWBDF2rqBcp0wHY9kHf18D/QnlQ5Wi9MFMey/m5Pc3BPn7bR72EwRBEHGIwKB/Myf7m5po87dqbJOSFOj98MTxTvcUtmb3vnLtU4EjYUQFjlhQgSOeRQUOGajAYU0QYycIynVCdXo0++Dv3tAxKOoSrdh/g4m23s/J748K8nUWD/sJgiCIOARBYLug4FPuEUyN9r9mos2qloi1//eNzL9Jo/T0RvirKWXadvAQe2jkNNFJLS8ttSfGoEaLJic5PVTgiAYVOOJZVOCQgQoc1gQxNk9QrhOqqyPZBl+fBu0M+j3qlz8+c+ezaM/J7/UF+XoqD/sJgiCIOMOXAEt4oa1UE+3+WI1tSFQ+DE/sn/mqlB31+SK2n2AFjs42h2eIPWzukQoiKnDEggoc8SwqcMhABQ5rghjbX1C+E6rHI9kGX/cM+vwIVCNGH3JNtPVDjr4/LMDXa3nZTxAEQcQRCADXCwryczj2YYyJdndXaheSlJOh3aEJY91Bo7fP27g9avsJ9YqKy9smyVVSxe7wdMH/9wm3x1zRKyqxoAJHPIsKHDJQgcOa+MTNBRGqTuF2wc+XQouCPi+V6cNbJtrK7RUPtDVfhL952U8QBEHEEQgALQUF+XyOfVhoot1PKbULiUq78ITx6bEz5h08eixq+wlX4JAYWGjD/3tBu4TbZJ6owBELKnDEs6jAIQMVOKwJYmwLQflOqMqtHgc/97AHntyQfO6U6YOZc459x9H3oiazv5RXHwiCIIg4ATf/dwUFnXc49sHMte2vUWKTPbByyo9hyeLfW/YfGhmr/YQscASxOTyP4vfrhdtljqjAEQsqcMSzqMAhAxU4rAli7I2C8p1QnfDlDnxcB9oc9Pd+6DGZPlxtoq2yy9qq8P17gvz9KK8+EARBEHGCz9z3OUPVlJP91U22+yQldiFJecR+4hML0rczr2L/2bHaT+QCh98vDs9TGOysEG6b8aICRyyowBHPogKHDFTgsCaIsacKyndCNT3UJvj45RB/L4EayfTBzJxnP0ffNxfkb8WvFRMEQRAJAm7+pYKCjroBUXT7LzPR5s1K7bKXH7yNg05DG+tjHSPRCxwSNqe7IQY8P2Ob48JtNE5U4IgFFTjiWVTgkIEKHNYFcXaXoJynTGvKbIF/L4QWhPg7H6qsoA9/m2hvXU5+N/PJk1Cpvl8RBEEQcQ5u/hsFBBwfZONk/yMm2j1diU1IUM6yBx41DU0UHwzaG/MYFaHAIZHs8Fxrc3hmCrfROFGBIxZU4IhnUYFDBipwWBefoMkuQ1VmC/zbFjoY4u92CvswxUR7r+Pk96qC/D2eh/0EQRBEnIAbfw1BAWcFxz50NtHuDDl7kKAkQ33DksTioK2Xyh2johQ4/LhKatkcngn2xFxGtmIVOBz+JQ6bqVBLaJ5wuzmIChzyUIEjbpWIBY4iQXlPqM6Hb6v5z6f/fC2tNFZLYR8GmWhrE46+XyPA10t52U8QBEHEAbjxXykouH/LsQ/9TLT7DTl7kKCcC80KSVo2QQ8EbX1U7hgVqsABbCme82wOT5FwW/mrYhU4KrCowCEPFTjiVolY4OgjKO8J1V3wbZMwXyt+0gD7dzXR1tc4+n6yCH/zsp8gCIKIA3DjbyIouHN7JxJteUy0W3Y2biQpUmJ7KCRpcUH2oK2vyB2johU4/PTtWwkDoEHYZ69wm/mJChwVRFTgkIcKHHGrRCxwtBKU9/yr0nVbusG3pSF+Pgy1UtGHe020N5Wj74cI8vm5vPpAEARBWBzc9HsJCjavcOzDHBPtvlDOHiQp7pCkRSp0NAyxNUXuGBWywJHkX13lZJvD01u4zfxEBY4KIipwyEMFjrhVIhY4rhOU9/yrD2f+5rGfOE+X7OopYX0400R7x3D0fU9BPr+LVx8IgiAIi4Ob/jBBweZ+jn3YYJLNB+VsQYJyhv2/+SSkZP7zMFtHyx1n24FD7KGR00QntbzUWu3naS8/f0m8igocFURU4JCHChxxq0QscIia7NKvQ8eOsYuGj98e5mfpCcZklf3YYZLNCzj6/nFBfn+eVx8IgiAIi4ObvpkzcYfqPE7226HjVgnySFDahyQsS6ETEmG0sUjuOBX1CY4QH7YRbjcfUYGjgogKHPJQgSNulXAFDgnE2rWCch82YdUGVrm8n+/R0Aez8rctHP1+sSC/f8qrDwRBEITFwU1/tYBAc4ij/Q1NtDsnli1IUGpCE0ISlhci2HtY7jhU4KACBym+RAUOeSpegcPTwgK28tAvybhPqf68He437Q5PX6uq6+QFK/vM/I3Jaf7G7VzziA17D7B7vT+E+3ixWv9KoL1UE/MfuxYbo9htds4pqZiX/QRBEITFERRofuVov5kTbb0eyxYkKY3sgfdopYRlrT1suTfsf7qS41CBgwocpPgSFTjkqXgFjor9BIfN6d5sAdt1a+gvK7jmEcXL1rCTB44KP847av0rgfZeMDH/UV3kimH3cgF55zxe9hMEQRAWBjf8SwUEGUklHPvQwUS7H4plC5KUlvbATOgH7JGf3rhVyXGowEEFDlJ8iQoc8lCBI25FBQ5OOcTOQ4fZpdnfhB9DepW1sVr/SqDNG0zMfx7UYmMUu78RkHfu4GU/QRAEYWF84iZ74vYuJNr6wES7z45liz0wSZiUsMyAzopga1slx6ECBxU4SPElKnDIQwWOuBUVODjlEMN+XRHpGCOgqmr9K4E2q0D/mJT/dNZiYxS7XYJyzzq8+kAQBEFYFNzsewgKMm059mG4STbvkrMFScrf0BHojii2fqTkWFTgoAIHKb5EBQ55qMARt6ICB4ccYum23ezavIkntF3Z6TmOnzer9W0oaPt3k3Ighx47w2zuLCj3vIFXHwiCIAiLgpt9uqAgoyugh/Vhskk2T4llB5KUesGkZbw9ylJvaKNIybGowEEFDlJ8iQoc8lCBI25FBQ4OOcRHsxez6qklJ7RdP2OctFSsrsk70bbHpBxorB47w2y+T1Du2YJXHwiCIAiLgpv9REFBppa8dYr7YIlvL5CkvAitg26NYes8JceiAgcVOEjxJWUFjpEVvcDRDPv9YwHb9WqpzeGWnTOBChxU4CjT33v2s1PST5xYtFbaSJYyf9lvav0aDtp/06QcSLetITbXE5R7vserDwRBEIRFwc3+TwEBhtt66sE+yC67yknPxbIDCctwqACqEcPWXUqORQUOKnCQ4kuKChyp3gpd4MA+71vAbh76yebwNJTvLxU4LGC7buktcBw8eoy9Me3ncu3eWPC99NrKGrV+Dcdn3kpyB/XaGmb3IQH5Zw7PPhAEQRAWAzf6StAxAQFmFsc+nGGi3VETPCQrZ0BF0AUxbD1F6bGowEEFDlJ8iQoc0bE5vTVsDk9r7HPMAnbz0KQk50jZyQrtgVW1RNvKQ4ttDvflSj/v/z53z04L2K5bWYtW6sod3L+vYacNGlOu3SG/LJf+7oNsan0bCvavbWIedJoeW8PsXiwg/5zDy36CIAjCguBGf6aA4CIpj2MfFC27ykExv7lAsnKSXWaZN7Rxk9LjUYGDChyk+JKiAofTXbEKHK6SZJvDc4nd6c7B9jssYDMnuTOTUkfLDkrR9/9h+0Pi7dWt7Ti/H5f9vEP77nRfaU+M15HY+JXrNecO+48cZdeETSwq6YzBY9g2xPngdg3U+DYSaGO5SbnQTXptDbF5rID8cx8v+wmCIAgLombAzVnvc+xDa5Ns1v3UCdp4TunxqMBBBY441UpoqUrttYDdulUB5+DIx0C/sV8O91UYzN+Cf98PP/zP7vB0haTX9TbaA6tEiLaVp/5JdnivU3Ifgy9uxvZrLWAzD22xOd0P21zuqK9gBu5n7ir47J/C9sstYDMXrdy1V1PesOfwEdbjh5/KtVct1cs+n7s0dNtHlJxPsUAbJSblQs312hpic4qgHPRMXn0gCIIgLAZu8s0EBZeWHPvwvkk2D+Rg64dKj0cFDipwxKUc7if/HfQq09XYb4pwuzmoAhY4pCcyyopUf9gDS2RLv0uEJxaif84Oz/SkL8cpeqWgkstzOvaZJtpmjtpkc7rH4Fx/sZLD0+jfjvbNTcbfLrA7PB3xsxDaYAFbuahx7gR2xOfTlDd4/1jrf1IjvM3LcyawnzfvCN22m5LzKRZo412TcqHeem0NsfllQTno3bz6QBAEQVgM3OTfEBRcrufYh2yTbH6Bg62KloiVRAUOKnDEpVLkV5Y4gYGFlbHfWOF2c1AFXCa2Iuo3u9N9lZpTHNu/bAG7jdIhu8OzCj8PWsAW7qqRVsIG/vSnppzhjx172GmDRkdst++sxezYidurnrA3HLTxuEm50DC9tobYfL+gHPRlXn0gCIIgLAZu8gMFBReeS8ROM8nmazjY+pPS41GBgwoccSkqcMSGChzxrMPJDvdDSSljktWc4naXp4498ISLaPtJKnV70WT21+59qvOFLfsPsue+mRWxzdoDRvqXjA3bZ6Kq+2YEfOYtu/q9XltDbK4vKAfVXVAiCIIgLApu8t8KCCxbOfdhrQk2H4VUJbVRbD2i9JhU4KACR1yKChyxoQJHXMrm8KxLdniaqTq3Q8C58bA9gV7bqAiSnr6YtX6r6nzhqM/Huk1ZyCpHaLOKy8ve/vHXSPut0npuhYJ2dpqQD/3Jw9YQm83OQSWN59kHgiAIwkLgJr9CQGCZzdF+m0k2L+Rg6/lqjkkFDipwxKWowBEbKnDEo7Ylp3geTkopqaLq3A7B7vRWtTk8L1mgLyQFOjV9NHMu+F1TvjBuxTp20oCREdttmDWezd6wLeJ+Ws+tUNDOFBPyoWNQJR72Bm3+Q0Ae+gcv+wmCIAgLESwO+AQElnyOfWhgks2ZHGx9QM0xqcBBBY64FBU4YkMFjnjSMUiaUFPdOR0Dm8PTE21us0DfSFF02qAxbMTiVf4nMdTmCj+s2eQvYkRr+/3SRbHabSR/BsXGZ96qJOfyuB6CNn8jIA/lWqQhCIIgLAJu7g0FBBVJH3Dsw4Mm2dyFg61d1RyTChxU4IhLUYEjNlTgiBdtxef5gS3Fc4aq81kGW4q3hvSqC9rfY4E+ksIkFSfylqzWVNzYf+Qou614ctS2T4o890aontV7fqGN1iblRLfzuB6CNqcJykXr8+oDQRAEYRFwc39YUFBpxbEPXUyy+VYOtrrUHJMKHFTgiEtpKXA4qMBBsoxW43NMT3K6uRY2wrE5PNfiWOOgoxboM8np2dUoZ8KMTfsPasoRth88zJ6fODdq+9VSvf6VU2Ta6aP3vEIb15iUE7XncR0Ebe4mKBe9j1cfCIIgCIuAm/srgoIKzyVinSbY+w9UnYOtE9QclwocVOCIS9ETHLGhAodVdQBy25zuG5JSvVVVncMasaW6z7A5PG/ZaPJR0dqY7PQ0K1j216Va8wRpvo46A0dFPUbj3Ans1y075doZpfecQhtVTcrjPuZxDQRtFvVlW0defSAIgiAsgk/cY4E8l4gda4K9yzjZqmoiLSpwUIEjLkUFjthQgcNKOgLNtTk8/eyp7gtUnbc8cZXUsTndn+P8WWwBn1QUSU/OLLU7PD1tqd66ZR8FYu9fanOEmeu2suqpJTGP13/+MiVtcZn4Eu38aUJeVMTD1qC9FwnKRfvz6gNBEARhEXxiJnbazrkPS0ywuZiTraqOSwUOKnDEpajAERsqcFhBe6FCm8Pdzu701k/qX2JTdc4aQVqJHfY0wjn0ubQkrQV8lMjaYHd5ekHl7lVSvFcTp1fv2scekInT9YZ95Y/nCtuspvdUQhtjTMiL5uq1M8Reuy8w6afZ+egYXn0gCIIgLILPnCq/YUEx2IdDJtj8Bgc7r1Z7XCpwUIEjLkUFjthQgUOEpNdPFtgd7lyb0/1IkquE21OEhtCvpGqyw9MJNk+0B4oxov2XCNpjc7hn2ByelrgfR/38fSrmgzhw9BhrOq405nGliUWzf1upJvZfq/f0QRt9TciLtuq1M8zmVQLy0d949oEgCIIQjE/cErGFHPtwrkk2P8DBVtUzm1OBgwoccSkqcMSGChxmaiMGtGn4+Uyyw3NhkquksqpzUzC2FG9du8PzP5xX/aC/0I/jFvBpXMnmdK/CzyE4Dx5JdrrPlvO5VGBQEp+P+Hxs6C/LWVWXN+bx73JPYev3HlAT+1XHygh9aG5SbqR7brIQm78XkI8e5mU/QRAEYQF84paI7cuxD3eaZPPJHGz9Qu1xqcBBBY64FBU4YkMFDt76B9oO/QJNxIA2Jdl/7yhugHNL/KsnvOhXYsMg/QqcY5+in5OgzcG+i/a/1bQRkp7U+CjZ6da0+hni7165+Dzs1xWs7qDRMW2pPWAkm7V+q9p84zO9pwraaGxSbnS1XltDbB4iKCc9h1cfCIIgCMH4xM1arfvbiZA+tDfB3r852fq12mNTgYMKHHEpKnDEhgocPHQYmgMNg887QPfZne6Lk1O9tVWde/FI39xK6O+pNqf7bvS/J/49zx6YLFX0ZyJS0pMts+CLD/DzjmSn9yw9Lkb8/S5WbJZWQ5Hm1ZCzq8PEuVpyjvF6TxFf4AldM/K5JnptDbH5DUE56V28+kAQBEEIxiduidhbOPbhExPs1Z1sBG1dq/bYVOCgAkdcigocsXGOqsgFDh90ENoH7YS22QPfuEuTaq6GVtillS2cnoXQZJvDPRo+HYifb2FA39zm8NyRlOY5N2lgfL1qYjgpJSfDR/fDV6/hZyF8Ny3oy0Sbv0OaS2U5NBP9LMA58U6y03OvrX/JaTzdifj7brS4PGPdFtYoZ4KsrVfmfst+27pLS87B60sVM+a00D0/WYi9TwnKSTvw6gNBEAQhGNzUXYKCCbdExKdytnON+pSDnTW0HPvg0WNs2trNzPvHWl1q8lXp+0i4mvGTV/0+Lm99tX7DfvX52i1MdyW53FVidtbpqWUBO/koxX2Sqg96YGEy9rtNuN0chAHmDbL9TSuxYds7RNsqxD8OzzMYlD5hd3gexf8fsDvd9+L/d+D3t0q+w++uxb8b25zeBklO7ylJqW67qnOJwL3EbbM5vKfDt9dKE6rCr52k1zXwsxC/mwbfr7VZ/4kPn02y0+GZhX8XwO5++HdH/PsJ2H5NJYf3nKSU/GSjXIj4e3ukmCzNpXFt3kRFfUiZv4wdPubTmnfU5NAHM1bJG8zD30F7rxCUk37Cqw8EQRCEYHBTHycgkOzh3Ie5Jtj8LAc7bxMUuCXt4+FrgiAIIkHIyEhOdnnr25zu2+wOT1ub0/M2/p2JgXkJ9JU98ITRd9AUaDo00x54FUZ6smYRtMQeeNImmpYEt/spuN+sYDs/BNudEDzOSJvDk2lzuPvgZxvYcW9Sird+0oDRsQvCJuALW6Ft8bZd7LbiyYqKG3d7puiN27pfm0AbX5qQX0zk4eugvdWh4wJypGJefSAIgiAEg5v6EgGBZCHnPmwzweZLONjZRYCvyzSOh68JgiCIBKdvbnKSc3SVJJenRlKK56Qkh/dUu8t7hs3lPsfm8NZPdngaQJfanJ5Gdqe7cXR5GiU73ZcmOz0NbQ6PVEg5F/uckeQsqZvkcJ+U5HTXTEobVSXpy3GVRHc5Gr6QVT32HjnKHho5jVWRWTFF0umDx7Axy//WG7e7c7D/ZRPyi+U8fB1i80YBOdJcnn0gCIIgBIKb+mEBgaSEo/01TbD3ACdbhwrwdZm68egDQRAEQVQUEDvflGLo33v2syZfzVD8es2HM3/zv16qM27Lz+Ujb/89JuQXxyBuRSq0NVNAjrSNl/0EQRCEQHBDrydosN2PYx8UrVWvU7M42TpLkL8l6X4ChSAIgiAqEoidV0sxtN23c1iNtBJFxY0GWV+zLQcO8YjbCzjYf6pJOcZ5PPwdtDlfUJ5Uh1cfCIIgCEH4zKnsR1JHjn141gR70znZuk+Qv9fysD/hGfhtpaRUbw2b01sv2em9JNnlPjMpzVtNtFm6SCuuXMnhPTNZWjrT4bkQ/z41qW+JZR8HJ4iEpH9J5UpOD65D78U2h+e8ZFcFWMY2QbA7Pad2+n7+YaVPbpw2aDTz/L6GV+w+AumeRBVtbDEhz7iHg7vL7O0rKFe6jlcfCIIgCEHgZv6SoCByP8c+9DbB3uc52NlQkK8llXvM1e5wtwpOJBcqJwbC9aS/25zuruF/R2Kejp+Z4b9PdrillRCKI2x/kb8tl+e+csdCWzan573y+7i/LLMRf3eW+3uK55kIdufYne4rA/0qrh/h74PQVsOoH05aSVUM/m+BTS5sNx7bz4Z+hX6Evkbbb2Fwco3ec8A0SkoqwQ/noy9vwn4v+iX14xdogTRZID7bIdJSkqLNNJNkh/eGCOdF2XmaB30Kta6U4mkg2lYiQcjIqGR3uS/Addg7eK6VXYdzoIm4Bl045x5JyhhPK8RYGHxWn9dMKzmmtMDRedJ8tvvwEZ7x+3K9fUAbP8RDnhRib3tBuVIzXn0gCIIgBIGbeT9BQeRCjn3IMMHeqzjY+YwgX0tqEW6P3eH+LFJyhmTc4x/wO9155f7m8KzCz03hv092uF+1R1huEG3Nk56EsLk8L5Y7FtrC37+PaIPD3dvu8lazBWbgP/FvKZ73I+yz0+50PxDoV/FVEf6+OuKynX1LKqFPlwUHHLKJK9rIlr591XsuaCbFWyvZ6fl/e/cB5kZx/3/8fBqDwYDppobeOwkdUxJKIJQQIIEAgRCS/P5AgEACCSTBJAQDJ51pIXRCsaU7eu+hJITQS+gQCGB6bwbbAv6f0e7ZOmmkk06zO7L9fj3P9zGcyn5ntNqdHc3OLNaZLSw3JFdYqDQ5X6Xu3jmUY5fy/WTAMmXzt+m5Ay9n2ghdzHV298ytOlqiM9uzrPJbQLnUv3Dr7h2qsiysfW015bFRxi4Nmissrb/P7iWnMplsz46NXqBo3/yH8tm1Y/TtM/ZIF+0/+u4uYPcn1c/XOrL54brY9l9mO2Koa/zsGbvv5gor6vNeakh3zwJTH+8eP1R/WzCTyy+jXJa3OXWcePGs3vNIkY5DI1Re2yE8sYHjyr0qd/VqGV2Xd3bkevQ++aVs3WRyvfN2dDWwXO5JvcM7uwuL2LrWfrxMJts7X8fYyzKlx0af3zmkO29HdC2lel5+SLZn4Y7cAEtXD9YpF3d2dOft8WiJ0ggye0zI9gZfFaVRJlqy+6iGjxuKVc+/3nfnho3dWi2L3qM7hXbGsT7qPc53VKC20m99lQEAEIgO5peEOIl4LsPfp4d89T5HBzph25i/Mh81xpwdHIqi4mdqUF/UZAeHawhvUa8pODs4crU7OBSv6bFtk+7gUG7z6bFLHc//TBe5L+vfLyv+PllhR3n80lSMAhhae3TAea6RKHEUtJ3TVNcH6XlbOH/JPeX6jH0sk82fqOdfb6LRJfZX4LuMXVoxVzgyk+tZRs8rDWPW/++jv1f+2viFrVPFpxV//zJTGqnSs2+N/OyImnP0nCN0AbaLLpyqh9V3XT678ttFz/mrnn+ziZaCfEhxu7GjerKFgzqylyzS/zW62M3mt9Hr/qbn/EPxlOJVxXOKBzL2M8kWDu7o7p0/LtPRtfKrimyh2/X96+wq7NDMhYriTeX3Xf37O8c2am0/Z5yfdb7q4lXl38/x+nwcDZVV+R1e9bdc4bwah6CphuR6lrefi557Rfw52f3p3xm7ZGe2cGpnrmfTjuz42eK6/1at8tttKYdjtP9+X/W7aNWGTsjPoovadVXWXNnIqMdMNJLodr32JP39AL3+YhMtHWqXEn2k9Fi0dOgvh2R7V+x7O9VjVXnrxBl6/+Mc9XPU1PfL5s9o4v3q7HP5jSqLrr/bY2KxYp+y/z/BOI6VyvXJjtHnl77/pnv83HbfU73Y78dNcX3ZurGjrwqqz706xxYWqtrHc4WN9NifTLT06j/juravu02f2Zmqv/313+eaaCTJ/XFd2+/fZXrd7zLdvSvoGBQdR7L9R8oN7V+HOibk/6D/3qlz7CUjqz73sYXhenxLbdPWrz1m3RvvY/pc89pW4YAh3fmpI6WMaz/OFrIdo0cPiffB4x2P7+z4LGynfDTSrqt3Ycfjp+t1yw30/Sj7DG1e71d+VrVi5OlXfJX3d2tKeRzXaM616D1+lEI7o6fVPMvyXSRQW+lsX2UAAASig/nDAU4g//VchgkJ5/sfT3leEeiE7Vz6zNTu4LDxrhqCr1U1wnNNd3D0xSOOv9Xr4LDxtokueisuBHpcv6gNsoMjv7HJOcrZFd9ak8vvUXmRovd5P2Nv+2iw0attvOPqqHE+N5d/y94GpChd2JcuDnP5Oxt47SQ974zOrp7F4wuKysfHdPylN2NyPSvovx+tzrF0kdtIeT5VWa5VrGh/6de/39Nrn27gdR/quX/syBWG6b+/plxvNdWdR466Kzyj526fyTWcnx198aRrf9c+6urgeEqfj+1I20D/5qs/j8LfTdSR1Ni2SxegpYu6ys/1ykx3zxzTcinYi69/OF5v9/mBR95Mq58rHTm/W+sYpP16AVP/e18eT5qu0oianzX4fNtZdqPKulX83Vk2E11ID/g5N/CZZvX5jNR3/OomXjdB9XOfs966Cz/VRfgsJpuf0HJupfzyu5fX85Bc3nac3lb9eeUPj4879hhV9b3pzPVspX3D3u73TgPb/awzl99brxluR2qojq7yUJbJqrMLld8C+rfRkQtTbEeZ8t6444TLbGfs+iY6Twy8v2QLR+u189XM3Xa6dOXtSL4HquvS2dH9oWLr0ofQ1bu84/GXbX51T9TRuXEexbHN1l/2vqe+mlwsJnEOv3agnAei91gzhbbGQ63mWZHzxADtpdt9lgEAEEAxzBKx3k4geq9ZU8h3vKdc/xugrm0c6cqn1i0q9aLZW1TqXxQM2MHhzsHjCA7VgZ0bpOpiQo3jBe3jeo39BX9yRR1MGUQHx3+aKKO9IDw9c1LvPJnol8/KC0TVc+nCrPLX4S+0rTH691bH53ZEXJ4lTPSe/R/PFf7d5Gd3py6qRrn2BcXHevx1V9666LUjPcY6tm8v7G/KRCM4vqx47PlM9Ot+o7nV6ODocXVwPGKH6cd1s78jrwcz0S/gjdbNLaqXDRxln6C8Npy63+Xym+hvbzhytyMZPmp832qygyNbOMy4b5mYUPrcqv9+s70IbWrfyBVeUh1srn/HOR6znaCvmGhEkeu1n8S5VP79MztSqekODse+HteRcsxvllQHh97f2YGlv/9faV/M5Wt1NNq6fqZ6G3l7fHvT8X722LJ1fDyqPB7Y/cnWda3j8qT48arX2RFTTXRw2LD7+7OZbM+Wxo4cyVY9bvfpqs5qE40os9+7Wp0zb3RmCzsMpoNjSGsdHPYY5fo+1IyNx9+SxK0pffHKQDk3IoW2xkc+8izL94kA7aUJPssAAEhZMdwQwPM9lmGNFPJt+Z5MvcccgeraxiqunGp0cHxp6vzimlIHR62Ln74cmh/BkU2lg+MS05VfpTKGZAsruDo4SsOu7S+52eptGDuCJle6GK3cxguZbP4bUW75ql/W9ZqHM9FQ8Mo6O6Le/mmi2yoqt2WHta8aX6w+4diWawTCv5Xf1+x9/vH8AxV55G1Hyv2O1+0Vl2lN/fezjm256u/MqfV84rT67jyxZ1lXGTvdc3DU7+DIFh604difTnZ91vo8l4hGyjg7HqauxKT/PsaRy4sm2/Md4+jg0IXj2q7tKTfXPlCzg0N5V42ksrdblR48qTRHRuWtTR/rM3HdwvWAtr1pJtczSp/pdY7H7a0Rr1T+vbMrv3Kp/NnCrsZxvOjI5eeMHz+ous7z9jYm14XwOFfd2Lk8anVwxGHze8+xjx5e9nna40N1nen7VL4tHS9GlNfzQB0ctcS3vlXuaw/bSYPj72n1KKNsT9WthKVy2clLS/t96Rajysdf1ue6flzX+zoevyeTrR6JZMuk+rGjyuwxoWpkU2c0mqvyePlxx9grZo23VbXfq8x31/hc++Jdm6/jM/A+gkOPjzT2uFI7F2es/rfrv3rojXeTPo/PW2/faYTe49EU2hvVtywNPt+rArWZpuv5fwBgpqaD+KaBTh6jPZZh5xTy3d5DnhsEquuay8Ma91D159SArbrALGuMNnyLSqb0i331MO2yhvt/1di80bENOwKhZmeJGvRHOP7+vt5vS1suNb7XdjxuRwFULf/ms4NDf6t5726NC/RDyh6v/LVwsv6WdZTjqWmrxeR/4HjP/zi3lZ0274BzX8gWuh3bumravpK/vHpb+Scdr7nTZMePjF8zxvH4I8Z1u1L8C7hytxcl1+q1T5RHJrpgrniv/J/rlamSzw6O8nkcatTnD03FSAm95s2O0y4fFtVN9a0TpV/vdVFqHB0cHce7J101uZ7dHLnV6+B4vvr5Pfv1Pa4cKkd3TNLfrnHU212me/xC0XvmXUP534qjfzmy4xeN69p25FTOB/NVWZ77OPaRCTVGcNRcwrvWLSoDxB5TXx/d8uWYgDi/V73Pf/AdHD2/d+wXd037vKs7HTqz9vtSVYY3MvGkpfqefsPx+HN2Ql/7eGcuv7Pjcbvfn+f4+w36DOeMy3iWI9fqiaaz+XfKPo9DHa95bDC312j7v3X8/WP9fZvos8uv7Hj8RdXHOq6612Ozmui4/lmzufQ+/dJXk5K5NaU8Wl71Su9xfgptjqr5aFrIN42JUV2xqq8yAABSpoP4TwOdPHwuJfabFPJd0kOe+weq6+Nr5WTcHRxX60JwIxPdMlDdqKw7giNf2cHxmZ3B30TzGFQ3DGuP4Bijv//YOH5djd43f6Bd5cLxmM3tMhPd5lD52GW6eJivqg78juB4QXXQWxF/0gXEvGrku25ReTh+juuWkYf0uv0cr6nbwaG4V6893fF3lTF/jZ0I1F4Y2HJ15gqrdnRdPjTeF1wdHK9G+ZUmLKwcxm5/2b/B8ZrBdXDk+g/xr1RjDo6nHPX9u47uvLMzwOsIjlInUv9t6/Wjp24rV1jIlXOnnVyxq7Cs4/2e1nZWr9XBEe3X5dsrFPT+66XTwZF3dXDY48PV8b7xruPztN+PqltwWu/gcF4IP+fYD47p7M6PqDGCY4CRZj10cNTu4NCxP3+F4ibXfqrXXFL9t0F3cNT9nOIRbq4O9JdMNHG041afwlWqjwWrvhe5wkpmELdLzja296vDbn8orXP5ofX2nUboPQ5KIc+9W82zLN8DArWbdvJVBgBAynQQPzHQyWMzj2U4J+Fc3/eU59mB6tr5a5VV4xaVqztO7B2mBuxBNRqwDd+ioobt53Y7me7CWvr/D6q2VauDI1sYo0a3XVrwBHfDNn+gHttM0cjEnV/o/e5WLs5fZGp1cCj2Ux3sqm3ZlUum9N9+U3Nw3J3pzi/a5BwcEzvtCjLdpWHglY810sGxTrz6Qr0LBPsr5ZN63vH6fOY3jnkx6oW2cYrq1HWbxZPK76elusvaC6Gqx312cLji5o5cYW7Xe3ju4HDVyR1TN3bmNUNMtAJD5fNuUJ276u18XVjPWqeDozKKdoLXlDo4XBfQNb9vmWjp4V1MIh0cDc/Bcafp7hmZcXQemui7W7Xtsu38cGp90MHR6Oduj4lXu2+Zyn9sjwfR8bTgWnrczkVS1cGRiTrQHJ1nU193aCbbs0mpg6SB/dLYY2M2v0ZpyeLy70T0WdnVfarnMBkgNi3c+tUL73+c1rn84nr7TiP0HhunkOcfW82zLN8tA7WbfuWrDACAlOkgflmgk8eSHstwR8K53uEpz4cC1HPd1WrqdXB0jBlnMnYJ0+pGZdMdHJbe6+DqC4laIzh6xpRe1NtrLxJfdDSYDyw9fnzvrMrn58a9zOtkbf9mlXGzjpPGD61TB7U6OGpGnREcttPgrYq4rlMN6BodHB/HDfjKeQ8+t8tAZrrzrnvnG+ngWKI0B0ZXYTU9114Q2eUin40/t8q5PmzYe+BPdvx9UlwGu8qM/dwfU9lP12e9cfSZ5n/R7AWBGaCDQ3U1XP+9rrETQJZFJipD5Xt96qjv3o5cfi7XZ+25g+OTym3r9Vf222B379ymeonJT7TfV96OVOzM9awZfaY1Ozjertje61EnQcIdHNmat6jY/eideJ/6n7G3RmVLS/tuofqfRTk4J1FNaATHRMd+cJXKtYBrBIfy/LX2s71MjRFiJoVbVDpz+Tn1/1spdi0P7QdV38NEOjiyg+7gmBTvi/aY8KLiEb3/eNXnxh2nXW5c++NAEXdQuD7X7niC0erJeKP99rBSpfyld6iOdXYeEdcxeYre/1Z9Xt/U93GWft+FXMGeX7Y3jtVsGolFz7jyq6ff/TDN83nLq7npPWZPIc9xreZZlu9SAdpNNs70VQYAQMp0EH8swImjqMh4LEPSS8Se5CnPECfpo+vlVLeDo6PUMK7+ta3+HBy1Ozi6Cz9xNLJrjuCY+jrH8qr624H9CtLds5CjHO+qfFsM9Ln47ODIRHNHVFyY59fqyNqOGOctKqfpOd/SY7ZxXjmx6gvOCQcb7eCYWje9Q3Vhv4ieu6bqdZSJOiUqJ3+0y3u6RlvcHXcubKz4esYuDXt879TvbhIdHKpbe9+8/TW1svPANVrn4sr6Vqze0T3OuD5rXQS5VlF5WBdny0XbzrtWUXnAuYJDrnBO1WedLaxZtX/lCn9roE7u7Tjzms7oM63RwZHNb12xvU3tUsLpdHA4R3DoojT/PW1rlF6zrp63UqbrkuFl39v0Ojiydn6Yqv1gTX3vZnHNwaFtH64L5zm0/7puy7KRRgeHcxUVfVer5yRqrxEc96rs29rltfX4OvqcljcnF4ZNy2+QHRyuW1Syhe5oidj8kc7X9XVw9MldOrfjeXbS0W87vpdDTdTJ5VrZZcCY/aTeKSc/+HSIc/qwyrI0S+9xT8I5OpelH2SuRvFlgHq+1VcZAAApK4ZZIvZFj/kPSyHflu8n1XusHaCebSxVL69BdXAMdgSH1w6OfEUHR++8jnK8U/rVbgD2OcbVwZHNd+mx0Qo7iqXYf/s1R3A8qNxHV4bq5vAaHTWHTMujepnWzmgujcrbTN7W6w61HSN67+pJ/qJlPQ905VGKXGG8iUYflL/OTgZbfSGenTbJqIvtaHLUwf+UW6nuMu55Uu7OuFdfOcuubhDfV185LH1SjbkU7nKVUe9zgCtf1aerg8Puy6eY0rwveddndKH+vcVRN7fVqN+9Osb2Tr0I0X6vi+1C1fKeZTFR+U69PafOCI5ja5TVNcHnxFqfv8r4L0cZx2l/31z/ft9Ur6D0mr7Hrk6au7TthersG2mO4LjXXdbCobVGcJQ2csr1Ge2nrs7Nljs4OnL54cYxskx1Oc6u9qT//oWjfoqd0T5U+Z1/JdOd30b/bmGqy/Olji+nOcqQ+CSjLjU63CbGx1JbtqrjfcZ29NTo4Jj2vtWjLOyxot/Gx14x3JGvHUG1Zf8cC4uY6HvtGs3WUKx1wQ0XfDp5Sohzes1bThul9xiTcI5vtZpjRb4vB6hnb+1UAECKdABfONBF920ey7BSCvmu7iHPnwSo538OlBcdHN4nGXWGnWRvoA4O/XeX4/GbM1EHS+XoDnsrjOvWls/0OdhfJW9torGuC+y8vcCvnoNjwA4O5wiO+pOMZgvXqlyuX2RtWV421SsYTFF+5zQxB4fdxpOufGvcolIvXlB92gl3m5l88JaObO88U7fZPX5u5e6ajLUvHtTjy0zbHxueg6NvX6xajrZe6ALafs6Vt2bYTg1720Hl/Bt2HzxN9e9arjhQB0fDc3DYmFBrBEfZ93+C43Wtd3CU9v/Cjqb6O1qM67+yrr/Q9ynfmcsvl4lGMFXm9JHjcyutmtTZZUf3VD2/fTo4BjvJaFkHh3sUVU/THRz67zUUrluumgnbQTuPzrHPBziv/2Sg/W4geo+dUsjTeZvgIPO9M0A921EjzpGAAIA2poP3qAAnDRvneCzDtgnnOlnR6SHPUwPU84ANITo42qiDI1vYzlSPrPisI1uYX68/xEQTqn5eYxv24ucmfQbf7OjOz2NcIw6mhf2M7LBtuxywXZljEztfh0mrg0MXFx0nXDabXrtLnGeti3lb1ieU4y86TiwM89TB4RrB0Re2E6lvLof79Hn8pjNbGNnRNX6EaaGDI96Hanas2OH3/ffHZDs4VJ+b6HPZwE6IampP4Ggvwh/Tc46J9k07aWzVc+jgaEBnrsfOo3O9cU2yPO37aFfQ+ZWOu9EtPtnL5jLRsbfqdqJ+ZbNzvnTnR3acOG5hx+N0cERR6uBQ2NtX7Dmocv6bZsN+b0q3tOkc+/sA5/W/NLLf1VNM58et9VrNsyzfvwWoZxvL+SoDACAlOnjvE+ik8VuPZUh6CbF7PeWZ9i8QnyqcS2WWU+N+VVMxyZ1iIzW0S/MsZEqTPfZ/XI3RbU00MVv/yfGy+eX07879n5vfuW9bme7CUlXb0nvFF0KVf19t6utyha2rcsjll+1XkO7eWRzl0EVl9XKAjjpYMHpu/9d3dPXOGm9/0epyFXbR39d3bLM6sqV62NFdjsLUBpTKZFcy2a4qD3vRc8r1nSrLynqfvfW3nJ3/wd5WoDhDYYd9fzeT7VlQ9TBEFzy2LqrrdFrutqxb673WynSPnzpngv62piP3jerVnf0cHNvYzGTHD4veM7+a4/GNO064LGNztcs16jk72TLEZbFlOlvPyerfH2n7q+h5nfHnsFlD9R3lvbUz367S0HR3vegzjjuZNuvMFZac+qKu8UPr1acjNrFzP/TbcLZ3tlrP17ZG9t8fC3Y+mZ3qbWNo/89zoyZys/viAvFnN1KvtRd+x6rsf4nr3l7QdunC8Wel+Va0L5Wem80v7XivzfX6mvMB6PULGMdxQhfHs8WP24vy71U9Pq0elqz+XPP6fPINl1f1tJ1y/Jbjs15h2nbyVd85xdem7TM9s+v/v1n9nPwSHY0YXdrP59c27WSZf8hEyzTbuj43/i7vq/pdveOEq/rNS6XPYHa9bm2F7RAYq+ddoLhI9XKK/rUrrWzYmS2MKD35xHHDHGXYXmXv+6zncTy+TSZebagzl1/M8fgWpTk2qv8+Sp9hzV+2Ta7UIVS5z+04tVx2zo7+31W7D29l+vbjbL/H1ijbn7ao/hx7lu+38bFXGEe+toPanptsh5Ht2G2lc8N27E89N+kcu1iA9tPdDe13A9D7vJFwnj/ykWec6x8C1LMN53kEANDGdPA+NtBJo+5ykE2WIZtwrqd7yvPdlOv4LB95AwAwPTLRRKJ2RMkTLXZs2LCrUG1YuQ2da29J+dw+0Ufd6H2uTTjPY33kGee6d8p13BfOuZwAAG1MB+9CoJPG+h7LcHnCue43cBYD5hhirpNv+KhfAACmNyYaQXSMqb0UcLNhb6mrGrmic+0PApzffcwLNjrhHC9tNceyXDcJUMc2ugfODgDQVnTwfiDQSWPA2waaKMPjCefackeB3mPHlOv3GR91CwDA9MTkCvZ2HLsa0MueOjbsbS2/rLU9nW+HKt5O+Ry/b6v1pPfYIeEcH2s1x7JcF0+5fvui7hxUAIA2pIP3hwFOGJ8PnFlTZUhymdsvFEM95PjnlOv4kIGzAgBgxhHPtXGFqT2h62Aip6i7Ikgx+WVXK+OvrdZVMfn5Q7y19fReQxRTUq5jG4/7KgMAIAU6cM8f4GTh9YSh91pieshV73NTynU8r4+8AQBodyZXsKto2YlXq1bDaiHsctUNrfimc+7IlC/AH/VRb3qfNxPOcxEfeca5hliSd6JiiK8yAAASpoP2ugFOFja8DfnTe22RcK4XecrzgxTr91wfOQMA0O5MtLrK5aZiKW8PMU7R8O20OveOS7ktNUerdaf3uCHhHDdpNceyXG9OuX77YmFfZQAAJEwH7T0CnSxO9liG/5dwrod5yHHplOt3JR91CwBAuzK5wuqKCz13anwVd5T0uiYUrUfn3g1TPtd/s9U6LCZ/a03Lk7SX5Xp2yvXbF6N8lQEAkDAdtI8OdLI42GMZxk4HDYjdU6zbv/uoVwAA2pHJFYbFk4g+rvgigQ6OaxRfG0xuOgc/k+L5/shW61Lv8f2EcxzTao5luR6ZYt2Wxz6+ygAASJgO2hcFOlns4LEMSa/jPsJDjqekWLff9lGvAAC0k7hjY5TivgQ6NWx8qbhTMXywOeocvH+K5/vLW61TvceKCefoc6nYNH8sKo9jfZUBAJAwHbTvCXSyWM1jGZL8teQFTznen1K9PuEjXwAA2ontdFB0KSYk1Llh4yHFWq3kqfPwbIq3Ujrnv9Jqveo9OhWTEszxkVZzLMt1g5TqtTLyvsoAAEhYMf112/tiVk/5ZxTFBPO8zEOOtrHzRUr1uq+PegUAoB2YXGEOxU8VzyTYsfFlfLvL4j5y1rn4tym2p0Z6yPeBBPPzuVTsQinWa3nc56sMAIAE6YA9V6ATxVsey5D05J1Hechx45Tq9d2ip44jAABCM9EkohcoJibYuWHjCcUGvvK252LFaymd+7/rId/zE85xIU/1OqSY7lK8ffGOj/wBAAnTAXvtACcJG/d6LMPWCee6vYccD0upXn/vo04BAAjJ5AqrKI43/pd9dY3ceNTXyI1yxfTmizjeQ66/TDjHjX3UaZzr0ynVa2XM7asMAICE6GC9a6CTRI/HMhyYcK4tN3r0Hr0p1OknnHwBANMzE00iumd8u8iUhDs3bPxHsVFS5dF5+cEUzv+3e8jzWwnnuI+H6uzL9cYU6tQVLc3NAgBIgQ7WRwQ6SbT8a0NZGU5OMM/3PeX4agp1erSPXAEASJuJJhDdSvFgCp0affGUYukky6Vz8+YpnP8/9ZDnvAnn+Ccf9RnnekZKbdXK2NlXGQAACdHB+txAJ4mfeyzD9Qnm6eNXkcVSqE97ny9zbwAApjsmV1hNUVC8mWLnxiNJjtwop/PzlSm0A1b3kOfrCeZX8FGXcZ6/SamtWhlH+CoDACAhOljfGegksZXHMjyXYJ7dHvLbJYX6/IGPugQAIA0mV5jdTuqpuFLxeYodG0XFvxReJr1shM7RS6XQDtjPQ55J3vrxgI+6jPP8QYrt1fI421cZAAAJKaY3w3dlLOMp/6SXiP2hhxxPSrgu/+2jLgEASIOJJhC9SPFKih0bfXGTYqW0y6xz9a8Tbguc5SHHMQnm94GPeozzXCflNmtftDyqFwCQoGK0hFmIE4TtkMh4KsOyCee6vIcc7084xzV91CUAAEkxucI8ii0VNyomBejY+EzRoxgWovzF6AeZexNsCzziIcfdEm6vzO+pLpOeL6RWvOwjfwBAQnSgXiPQCeJ5j2XYJsE8J3rIb46E65KJRQEAbcvkCkMVmymuU7wdoGOjL/6qGBmyLorRjzKTEmoPfKGYrcX8lku4zbK+x7p8P+W2q40vFcZXGQAAnukgvXOAk4ONmzyW4aAE87zDQ35bJ5ifXXqu00M1AgDgjckVOhWrKn5uomVYQ3VqfBV3qhwZuk766Lx9ZILtgg095PdBgvnt4aMO4zzTWH7XFanf3gQAaJAO0ocHOjn8xWMZTk0wz5M85HdcQrl9pkh0aTsAAJplcoUlFH9WPBnoVpTyeF+xu2L20PVSrpjcrSqHeMjtjgTbVaM9VF9fnpcGasNu66sMAADPdJA+O9DJ4dcey3BDgnnu4yG/pBoKB3ioPgAAWmZyhbkV2ypOV0wM3KnxVZzDeYq2/CFA5/Ali8ncYtHyUqzFZCdGv9hH/cV5ZgO1YQ/2VQYAgGc6SN8e6OSwq8cyJLlE7Boe8vs4gbxu8FF3AAC0wuQKRrGv4hrFe23QsWHjqTinOUPXTz06l38ngfbBix7y2jvBdtU9PuouzvPAQG3Yk32VAQDgmQ7SLwc6OXzDU/5JLhFrJ+sa2mJ+KyeQ16uKET7qDwCAZtnbPRTrKbKKl9qgQ6MvPo87WuYJXUeNshfLCbQTWppIVa9fM8H23zse6267QG3Ya32VAQDgWaATgw0vjY9isrN9P+Yhvx97zmmyYm0fdQcAQDNMrjCXYifFpW3WsdEXYxULh66nZuicPkzxtOe2wvYt5jQ0bm8k1b6a21PdrRqoDfuEj/wBAJ7pAL1CoBPDRx7LkOQKJRd6yO88zzn9Px/1BgDAQEy0vOuSip0VZyg+boNODFc8o/hR6PoarAQu1FtePl7v8UiC7SsvP9TofeYI1I6d6CN/AIBnxXBD+x71WIYDEszzlx7ye9ZjPnkfdQYAQD0mV8govm6iSTrvU3zaBp0YteJ5E90uY0LXWyt0jt/TY3uh5Vso9B7nJNi+2sVHncV5vhOoLbuIrzIAADzRwfmQQCeFKz2WYWyCeY5qMbeRHnN5WNFWS9wB0zMTTYz4PcVfFN8KnQ8Qkr4DQxTzKjZSHKj4bxt0XAwURcXfFIuHrj9fdJ4/xVOb4W0PufwkwfbVET7qK87zgUBt2ZbaiACABOjgfGqgk0K3xzJclWCew1vMbRdPebyuWMhXnQEoXdBtVHYRN0FxhGKx0HkBaYo7+tZUHKu4WfGqYkobdF4MFO/GOc8bug59KkYTp9/sqe2wRIu5rJRg++pMj3V2SaC27N6+ygAA8EQH5xsDnRQO8ViGJxLK8X4PuflYR/4Txeo+6gpARBdFI0y0jGTlRZO9sLtYsYNirtB5Ar7FIzXmV4xS/FrxXBt0VjQTdpWUuxQrhq7LpOicP7zoZ/6LXT3k8kFCbaxbfNRVnOOxgdqyf/RVBgCAJzo4Px/opLCTxzJ8nlCOLY8y0Xvc32IOdpnaLX3UE4CILoxmVYwe4CLqPcUVir0Uw0LnDLRK+3Gn7RSIRz3cqnhd8UUbdFg0E3aCUzvSaoa5JaUWnfsXVbzRYhsi5yGPqxNqY73go57iHPcK1JYd56sMAABPAp0QbPiaPXvRBHPcscXcZveQw/4+6gnANLo4+olpbiWIjxQ3KPZQrKLIhC4DMBATjdRYQLGl4neKJ6fDDo2+mKzI2+9f6HpNk20rKT5qoQ1xn4ccfpVQG+tLhZdJYfU+6wRqy97jI38AgCc6MC8b6IRgYw5PZdgswRNvq/NvbNxiDlkfdQRgmviC73+DvMiyQ+OfUJyl+I6ZzldswIxL++Yyij8pbjfRXBWhOyhaCZv/0WYGm2ujUWoLrKV4t4W2xGwtbj/JzoNlPNXRXIHasm/5yB8A4IkOzFsHOiG85rEM+yaU470ecjushe2f5aN+AEyjC6S5TDS/hq8Lr9cU5yi2UaxgGNmBAEw0UmPBuNPNdmo8bqaPSUIb6VC0c22sFrqOQ1ObYLXi4OfC2MzD9lsZRVIvtvZQPX05vh2oTdvSj2EAAI+KyS7/VS/+7rEMf0wox+M85NY7yG1fqBjio34ATKMLpX0UHyZwIWZvd3lUca5idwXLOSNxJppTY2XFGMUdCe3boeIzxVFmJphro1HFaCTFp4NoUxzuYdtJrVZ3gI+6iXP8Z6A27fq+ygAAaJE96QU6GZzqsQwXJJTjZh5ye2kQ2y0oOj1UDYAyulBaXvFBShdntsPjRsW+inUU/MKHlmk/GhnvT3bi21MVL5jpd06Neh0bF5kZeIWUVqh9sPkg2hV5D9s9IKG21lgf9RLneFagNu1BvsoAAGiRDsqnBzoZ/NRjGe5IIL+JHvJacBDb7fFRJwD6M9GtKRcEuFiztwm8qLhU8X+KhUPXBaY/2m82U/xRcWe8PxXboCMiiXhW8VPF3KHrvJ2prbCdothE2+JpD9tcJqH24HU+6iTO8eBAbdrTfJUBANAiHZRvCnQy+LrHMryQQH6Xeshrhya3aTubuC0FSEDcufBZG1zA2Q6Px0w09N7O27GUYmjo+kF7MNHyxXZy0K0UB8QdY2+2wX6bdLysyCm8TD4+M1B74ftNtjFammg03uYzCbS3nvFRH3F+mwZq03rrpAEAtCihk9VA0fLoiIoyNPMrRqOxl4e8/tTE9g7zURcAqumiabjipTa4iKsMO1/C/YozFd9VLBS6rpA+fe5Gsa7iYMVVigdNdCvVl22wj6YR/1Csr5g19GcxvVHb4TuKyQ22M9b1sL2xSbQLfdRFnN/wAG1aG4/7KgMAoEWBTgQ+Jxj9WkI5jvCQ23UNbMc2THb1URcAqumiaRbF6Da4iGs0HlKcrNgzvuhdTrFA6HpE6/Q5ZhSLKdZQ/Dju2PqPaY+RRWmHLfO/FNvRsdGaYjRq4cMG2hv7etjWYOb/aCSW8lEXcY4PB2jXfuwrfwBAC3RAXijAScCGt9EKeq9vJpDf7Z5ye3GA7bxlGyY+tgXATRdPo0x7jt4YKOytLP9TPKy4XXGeYn/FigoTul7ROH1ecyh+ZKIVduxF/TNmxp1Do5F4L96XFwv92cwo1JZYuTjwpOYtT+ap98gUB79Ubb3Ywkc9xDmOCdS2Zd4YAAhNB+P1ApwApihGeixDEsvcHuwpt3rbuFYxn4/tAKimi6chis0V77TBBZ3v6Fuh5WjFLiYa3r+gIhO63mdGJhqZMY9iWRNNBrqDiW43+auJRuRMbIN9JnTY223sPBtdho6NRKhNMY/i9jrtDi/zROh9zkug3eVz4vllA3VwrOarDACAQdLBeJcAJ4CTPJfh+ARybLkDRu+xSp33/4WPsgOozUS3dtzTBhd2Scfk+MLxDsX5JhopsKGCDtQEqX4XN9EksXZlk4LiFhN1Zryl+LwN9ot2C7uC0SaG0UeJUxvj8Bptj6c8vf8WCbS7jveRW1mOlwRo327jswwAgEHQwfjQFA/8dyt+qxjmuQyXes7zHk957e5470cUK/p4fwD16ULqjDa4qAsddqTHvYqLFceYaC6SIxV7mGikwVqKJQwrV1RRnSyq+LqJJn+1ozHOUtykeC6u19Cf7fQQ9jYcO9Joq9Cf58xGbY3lbHumog1iR9B6WamtOPDtMM1GwUdeZfkNj9uclXWQZHgbhQIAGCQdjE9K8ED/hKJLsbdimQTL8IjnvH/uKa/KFVR+7+N9AQzMREuvftQGF3jtGl+YaKSBvVi3HSDXK8aYaF6E7yjWVrS8pGS7UtlGKFZSrKrYWrGfiTp/jlVcqOhV3K34r2E0xmDjdRMthczKQIHYzgzFzxTvl7VFvMwToff5nee2130+8qqR6wqKHytOVjybYLv3mKTKAABokA7GV3g8sD+lOF2xhyK1Bo229anHMthZyGf3lNfV8XverFjSx3sCGJguqOZWXNoGF3gzSrxqok6QHhOt7mI7Ao5WHKT4oYk6ROxcJ+soVjHRiJCRigUU8ylmU7T8q7Heo1Mxe/y+NhY20ZwXq8XbXU+xqeKbih0Vuyp2V5yoyJtoOd6nFO+3QZ3OqGFHbNjbdI5TMOFim1AbZC7FLxTjip5G0ep9FvTcOfCmj7wazN2uvrev4gLFCx7LcG5aZQAA1GB7zAdxAP+f4u+KExTbK1YKmL/vE2zWY262bn/o6/0ANMZEEzxyEZtefKp4W/Gi4gkTdYbcaaKVX25TXKO4xESjIuytMjkz7XaZemGf060YF7/WdlpdG7+vjX/EF9NPxdu1K+W8aaJJZSe1Qb3MbGFX+7GdXrbTiXk2ZgJq45zpuQ0WZNSY/WGrGM2btoPixLiNO5hbcG4IkT8AoIwOxhMGOFjb0RE3Ko5QbBA630o2J88n10U85janr/cC0DhdXB1vZu4lOAkirfhQcZVi99Dfe6RP7ZxlPLfB1gxdpkrKaWPFUYpbFZ8NkP9DofMFgJme4+D8lqKg+K5i6dD5DUQ57unxxHpa6PIAaJ2JVk+5sQ0u/ghiRg47quZ7hltRZmpqO13ksR22c+jyDKQYTd66azG6xfv9ivxfCp0fAMz04gOy7ZU+TLF66HyapZz/4OmkanvlmQgNmEHoomuYokvxShtcCBLEjBB2Ylp7G9CpijVCf8fRHtR2Wt5jB8fhocvTLDvqpBgty2tva3k/dD4AgOmcx18OxoQuCwC/TNTJsYHiOhPNExH6ApEgptewy+KeYKLvE/NroB+1oc731BY7M3RZAAAIquhnffP3FHOFLguA5OiibBHFbiZaBtROTMkSsgRRP+xEvXay2H0U84T+DqN9qQ21aHHg+SkaiVtDlwUAgKB0MvzYwwn116HLASA9JlrlwS5talf2oKODIPrHe4rzFVsqRob+vmL6oLbUnz20x14MXQ4AAILRiXBeDyfT10KXA0A4uoCbW/F/irzif4bVV4iZMz5X3KM4zjBpKAZB7akRindbbZeFLgcAAMHoRLiuhw6OPUOXA0B4uqibVbGu4kDF3YrJbXDRSRBpxPWKHysWV3SG/i5i+qU21a88tMtWCF0OAACC0Enwhy2eRO8LXQYA7UkXeisp/myiCUpfVkxpgwtRgvARdn++Q3GiYq3Q3zXMWOxtJi22zbYNXQYAAILQSfD3LZ5Evx66DACmD7oQXEpxmolGd3zSBhepBNFo9C3veoaC8x4SZTsoWmybHRy6DAAABKGT4IUtnEBPD50/gOmLLg47FYsqdlB0KZ403MpCtG/YUUePK44y0fKuQ0N/hzBzUBvrihbaZ6eEzh8AgCCKg18i9m0Fk6gBaJmJOjwOMdGKLE8YRncQ4eI1xYOKvyn2UCwQ+vuBmZPaWIsrJg6yjXZD6PwBAAgi7qgYzMlzn9C5A5ix6GJyNsUqim0VWcW9bXDBS8z48bridMU+io0VyyhM6O8DoLbWEYNsoz0bOncAAFKnE+Acgzxx/it07gBmDiZalWJfRa+JOjzsL+xMVkoMJuzyxXYZ438pLlb82kQdatx2gralNtfjg2mrhc4bAIDU6QT49UF2cKwcOncAMxddhM6iWMJEv7DvaaJbCJ5sg4tmor3jc8UjirEm2m/sMsaLKTKh92mgEWpzraiYNIi22tKhcwcAIFU6+e02iBPmMaHzBoA+ulAdqfi24jjF5YqHFK+2wYU1kW5MMtEqJ/9UFBSHKjZTzBZ6HwVapbbX4YNor20dOm8AAFKlk99RTZ4snwmdMwDUoovZYYplFRspfqw4SfEPQ4fHjBh22VY7d8b1ihMUOyrWUyxiuOUEMyC1we5tss12YOicAQBIVbH5JWLXC50zAAyGLnrnNNF8Cz8y0fK0Nyseiy+SJ7bBBTvhjg8Vzyv+rrhQcZBicwWreGGmojbYCk222c4OnTMAAKkqNrdEbFfofAHAF3uBrFhRMUqxneJgxRmK+w3L1IaKT+L6txPKHm2izqitFWsr5ld0ht5vgJDUFtu/iXbbQ6HzBQAgVTr5vdPgSfJRBUN+Acw0dDG9tInm9viFieb3sKtu3GiiCStfNtGcD6E7BKansKNk3lA8baKRM3cpLjHRSibbGyb+BBqi9thljXZyhM4VAIDU6MQ3Z4MnyE8US4bOFwBCsqMHFHMpllesr9hJ8UsTreZyj+LTNuhEaJf4OO7EuNpEnUM/M9EomU0Uq5to5MxChrkygKbF7beXG2zDLRU6XwAAUqGT3jcaPDnuGTpXAGh3ulg3Jhr1sZviWMUVijtMtJStHbnwRRt0PLQakxXvKSYonjLR7SQ3mWhuDNvZY28nWSD0ZwHM6NQ2G9VgG26b0LkCAJAKnfT2aODEeF3oPAFgemRHJygWVKwaj1zYLe4EuErxgWJKG3RY2Nts7CSrzyjuVlxrovkvbIxX/FXxJxMtubqX4ruKLRQbKlZTLKUYYZgbA0id2mgnNtCO+03oPAEASIVOer8f4KQ4QbFg6DwBYEZncoXZ4w6Dbyl2Uew6iPiOiVYXsRNyrlIWK8UdEfMpTOiyAvBH7bSnB2jLjQudIwAAqdBJ79w6J8TPFGuEzhEAAABuaqutpphUpz33eOgcAQBIhU56tzHvBgAAwPRLbbaDBxjFMSx0jgAAJK7OsMZzQ+cGAACAxqjtdkudDo71Q+cHAEDidMKb4jgJPqaYNXRuAAAAaIzabnMrnq/RwbF/6PwAAEiUTnYjHCfAdxSLhc4NAAAAzbFtOMXLjvbdWaFzAwAgUTrZreA4AW4SOi8AAAAMjtpySyverGjfPRk6LwAAEqWT3YYVK6Z8O3ROAAAAaI3adF+Lbzku7+QYETovAAASoxPdlvEJ7xXFN0LnAwAAAH/UvjunrIPje6HzAQAgMTrRLak4XDFX6FwAAADgn9p5h8UdHFeFzgUAAAAAAGDQil98sbqiO3QeAAAAAAAAAAAAAAAAAAAAAAAAAAAAAAAAAAAAAAAAAAAAAAAAAAAAAAAAAAAAAAAAAAAAAAAAAAAAAAAAAAAAAAAAAAAAAAAAAAAAAAAAAAAAAAAAAAAAAAAAAAAAAAAAAAAAAAAAAAAAAAAAAAAAAAAAAAAAAAAAAAAAAAAAAAAAAAAAAAAAAAAAAAAAAAAAAAAAAAAAAAAAAAAAAAAAAAAAAAAAAAAAAAAAAAAAAAAAAAAAAAAAAAAAAAAAAAAAAAAAAAAAAAAAAAAAAAAAAAAAAAAAAAAAAAAAAAAAAAAAAAAAAAAAAAAAAAAAAAAAAAAAAAAAAAAAAAAAAAAAAAAAAAAAAAAAAAAAAAAAAAAAAAAAAAAAAAAAAAAAAAAAAAAAAAAAAAAAAAAAAAAAAAAAAAAAAAAAAAAAAAAAAAAAAAAAAAAAAAAAAAAAAAAAAAAAAAAAAAAAAAAAAAAAAAAAAAAAAAAAAAAAAAAAAAAAAAAAAAAAAAAAAAAAAAAAAAAAAAAAAAAAAAAAAAAAAAAAAAAAAAAAAAAAAAAAAAAAAAAAAAAAAAAAAAAAAAAAAAAAAAAAAAAAAAAAAAAAAAAAAAAAAAAAAAAAAAAAAAAAAAAAAAAAAAAAAAAAAAAAAAAAAAAAAAAAAAAAAAAAAAAAAAAAAAAAAAAAAAAAAAAAAAAAAAAAAAAAAAAAAAAAAAAAAAAAAAAAAAAAAAAAAAAAAAAAAAAAAAAAAAAAAAAAAAAAAAAAAAAAAAAAAAAAAAAAAAAAAAAAAAAAAAAAAAAAAAAAAAAAAAAAAAAAAAAAAAAAAAAAAAAAAAAAAAAAAAAAAAAAAAAAAAAAAAAAAAAAAAAAAAAAAAAAAAAAAAAAAAAAAAAAAAAAAAAAAAAAAAAAAAAAAAAAAAAAAAAAAAAAAAAAAAAAAAAAAAAAAAAAAAAAAAAAAAAAAAAAzfv/NlhbRcrYCfcAAAAASUVORK5CYII=;" vertex="1" parent="1">
          <mxGeometry x="940" width="229" height="229" as="geometry" />
        </mxCell>
      </root>
    </mxGraphModel>
  </diagram>
</mxfile>
